%TF.GenerationSoftware,KiCad,Pcbnew,10.0.1*%
%TF.CreationDate,2026-06-18T16:13:49+08:00*%
%TF.ProjectId,Octave-HE,4f637461-7665-42d4-9845-2e6b69636164,rev?*%
%TF.SameCoordinates,Original*%
%TF.FileFunction,Legend,Top*%
%TF.FilePolarity,Positive*%
%FSLAX46Y46*%
G04 Gerber Fmt 4.6, Leading zero omitted, Abs format (unit mm)*
G04 Created by KiCad (PCBNEW 10.0.1) date 2026-06-18 16:13:49*
%MOMM*%
%LPD*%
G01*
G04 APERTURE LIST*
%ADD10C,0.100000*%
%ADD11C,0.150000*%
G04 APERTURE END LIST*
D10*
X140603884Y-73842587D02*
X140603884Y-72842587D01*
X141032455Y-73842587D02*
X141032455Y-73318777D01*
X141032455Y-73318777D02*
X140984836Y-73223539D01*
X140984836Y-73223539D02*
X140889598Y-73175920D01*
X140889598Y-73175920D02*
X140746741Y-73175920D01*
X140746741Y-73175920D02*
X140651503Y-73223539D01*
X140651503Y-73223539D02*
X140603884Y-73271158D01*
X141889598Y-73794968D02*
X141794360Y-73842587D01*
X141794360Y-73842587D02*
X141603884Y-73842587D01*
X141603884Y-73842587D02*
X141508646Y-73794968D01*
X141508646Y-73794968D02*
X141461027Y-73699729D01*
X141461027Y-73699729D02*
X141461027Y-73318777D01*
X141461027Y-73318777D02*
X141508646Y-73223539D01*
X141508646Y-73223539D02*
X141603884Y-73175920D01*
X141603884Y-73175920D02*
X141794360Y-73175920D01*
X141794360Y-73175920D02*
X141889598Y-73223539D01*
X141889598Y-73223539D02*
X141937217Y-73318777D01*
X141937217Y-73318777D02*
X141937217Y-73414015D01*
X141937217Y-73414015D02*
X141461027Y-73509253D01*
X142365789Y-73842587D02*
X142365789Y-73175920D01*
X142365789Y-72842587D02*
X142318170Y-72890206D01*
X142318170Y-72890206D02*
X142365789Y-72937825D01*
X142365789Y-72937825D02*
X142413408Y-72890206D01*
X142413408Y-72890206D02*
X142365789Y-72842587D01*
X142365789Y-72842587D02*
X142365789Y-72937825D01*
X143270550Y-73842587D02*
X143270550Y-73318777D01*
X143270550Y-73318777D02*
X143222931Y-73223539D01*
X143222931Y-73223539D02*
X143127693Y-73175920D01*
X143127693Y-73175920D02*
X142937217Y-73175920D01*
X142937217Y-73175920D02*
X142841979Y-73223539D01*
X143270550Y-73794968D02*
X143175312Y-73842587D01*
X143175312Y-73842587D02*
X142937217Y-73842587D01*
X142937217Y-73842587D02*
X142841979Y-73794968D01*
X142841979Y-73794968D02*
X142794360Y-73699729D01*
X142794360Y-73699729D02*
X142794360Y-73604491D01*
X142794360Y-73604491D02*
X142841979Y-73509253D01*
X142841979Y-73509253D02*
X142937217Y-73461634D01*
X142937217Y-73461634D02*
X143175312Y-73461634D01*
X143175312Y-73461634D02*
X143270550Y-73414015D01*
X143746741Y-73175920D02*
X143746741Y-73842587D01*
X143746741Y-73271158D02*
X143794360Y-73223539D01*
X143794360Y-73223539D02*
X143889598Y-73175920D01*
X143889598Y-73175920D02*
X144032455Y-73175920D01*
X144032455Y-73175920D02*
X144127693Y-73223539D01*
X144127693Y-73223539D02*
X144175312Y-73318777D01*
X144175312Y-73318777D02*
X144175312Y-73842587D01*
X140603884Y-75452531D02*
X140603884Y-74785864D01*
X140603884Y-74881102D02*
X140651503Y-74833483D01*
X140651503Y-74833483D02*
X140746741Y-74785864D01*
X140746741Y-74785864D02*
X140889598Y-74785864D01*
X140889598Y-74785864D02*
X140984836Y-74833483D01*
X140984836Y-74833483D02*
X141032455Y-74928721D01*
X141032455Y-74928721D02*
X141032455Y-75452531D01*
X141032455Y-74928721D02*
X141080074Y-74833483D01*
X141080074Y-74833483D02*
X141175312Y-74785864D01*
X141175312Y-74785864D02*
X141318169Y-74785864D01*
X141318169Y-74785864D02*
X141413408Y-74833483D01*
X141413408Y-74833483D02*
X141461027Y-74928721D01*
X141461027Y-74928721D02*
X141461027Y-75452531D01*
X142080074Y-75452531D02*
X141984836Y-75404912D01*
X141984836Y-75404912D02*
X141937217Y-75357292D01*
X141937217Y-75357292D02*
X141889598Y-75262054D01*
X141889598Y-75262054D02*
X141889598Y-74976340D01*
X141889598Y-74976340D02*
X141937217Y-74881102D01*
X141937217Y-74881102D02*
X141984836Y-74833483D01*
X141984836Y-74833483D02*
X142080074Y-74785864D01*
X142080074Y-74785864D02*
X142222931Y-74785864D01*
X142222931Y-74785864D02*
X142318169Y-74833483D01*
X142318169Y-74833483D02*
X142365788Y-74881102D01*
X142365788Y-74881102D02*
X142413407Y-74976340D01*
X142413407Y-74976340D02*
X142413407Y-75262054D01*
X142413407Y-75262054D02*
X142365788Y-75357292D01*
X142365788Y-75357292D02*
X142318169Y-75404912D01*
X142318169Y-75404912D02*
X142222931Y-75452531D01*
X142222931Y-75452531D02*
X142080074Y-75452531D01*
X143270550Y-75452531D02*
X143270550Y-74452531D01*
X143270550Y-75404912D02*
X143175312Y-75452531D01*
X143175312Y-75452531D02*
X142984836Y-75452531D01*
X142984836Y-75452531D02*
X142889598Y-75404912D01*
X142889598Y-75404912D02*
X142841979Y-75357292D01*
X142841979Y-75357292D02*
X142794360Y-75262054D01*
X142794360Y-75262054D02*
X142794360Y-74976340D01*
X142794360Y-74976340D02*
X142841979Y-74881102D01*
X142841979Y-74881102D02*
X142889598Y-74833483D01*
X142889598Y-74833483D02*
X142984836Y-74785864D01*
X142984836Y-74785864D02*
X143175312Y-74785864D01*
X143175312Y-74785864D02*
X143270550Y-74833483D01*
X144461027Y-75404912D02*
X144556265Y-75452531D01*
X144556265Y-75452531D02*
X144746741Y-75452531D01*
X144746741Y-75452531D02*
X144841979Y-75404912D01*
X144841979Y-75404912D02*
X144889598Y-75309673D01*
X144889598Y-75309673D02*
X144889598Y-75262054D01*
X144889598Y-75262054D02*
X144841979Y-75166816D01*
X144841979Y-75166816D02*
X144746741Y-75119197D01*
X144746741Y-75119197D02*
X144603884Y-75119197D01*
X144603884Y-75119197D02*
X144508646Y-75071578D01*
X144508646Y-75071578D02*
X144461027Y-74976340D01*
X144461027Y-74976340D02*
X144461027Y-74928721D01*
X144461027Y-74928721D02*
X144508646Y-74833483D01*
X144508646Y-74833483D02*
X144603884Y-74785864D01*
X144603884Y-74785864D02*
X144746741Y-74785864D01*
X144746741Y-74785864D02*
X144841979Y-74833483D01*
X145222932Y-74785864D02*
X145461027Y-75452531D01*
X145699122Y-74785864D02*
X145461027Y-75452531D01*
X145461027Y-75452531D02*
X145365789Y-75690626D01*
X145365789Y-75690626D02*
X145318170Y-75738245D01*
X145318170Y-75738245D02*
X145222932Y-75785864D01*
X146080075Y-74785864D02*
X146080075Y-75452531D01*
X146080075Y-74881102D02*
X146127694Y-74833483D01*
X146127694Y-74833483D02*
X146222932Y-74785864D01*
X146222932Y-74785864D02*
X146365789Y-74785864D01*
X146365789Y-74785864D02*
X146461027Y-74833483D01*
X146461027Y-74833483D02*
X146508646Y-74928721D01*
X146508646Y-74928721D02*
X146508646Y-75452531D01*
X146841980Y-74785864D02*
X147222932Y-74785864D01*
X146984837Y-74452531D02*
X146984837Y-75309673D01*
X146984837Y-75309673D02*
X147032456Y-75404912D01*
X147032456Y-75404912D02*
X147127694Y-75452531D01*
X147127694Y-75452531D02*
X147222932Y-75452531D01*
X147556266Y-75452531D02*
X147556266Y-74452531D01*
X147984837Y-75452531D02*
X147984837Y-74928721D01*
X147984837Y-74928721D02*
X147937218Y-74833483D01*
X147937218Y-74833483D02*
X147841980Y-74785864D01*
X147841980Y-74785864D02*
X147699123Y-74785864D01*
X147699123Y-74785864D02*
X147603885Y-74833483D01*
X147603885Y-74833483D02*
X147556266Y-74881102D01*
X149127695Y-74785864D02*
X149365790Y-75452531D01*
X149365790Y-75452531D02*
X149603885Y-74785864D01*
X150508647Y-75452531D02*
X149937219Y-75452531D01*
X150222933Y-75452531D02*
X150222933Y-74452531D01*
X150222933Y-74452531D02*
X150127695Y-74595388D01*
X150127695Y-74595388D02*
X150032457Y-74690626D01*
X150032457Y-74690626D02*
X149937219Y-74738245D01*
X140556265Y-76157713D02*
X140603884Y-76110094D01*
X140603884Y-76110094D02*
X140699122Y-76062475D01*
X140699122Y-76062475D02*
X140937217Y-76062475D01*
X140937217Y-76062475D02*
X141032455Y-76110094D01*
X141032455Y-76110094D02*
X141080074Y-76157713D01*
X141080074Y-76157713D02*
X141127693Y-76252951D01*
X141127693Y-76252951D02*
X141127693Y-76348189D01*
X141127693Y-76348189D02*
X141080074Y-76491046D01*
X141080074Y-76491046D02*
X140508646Y-77062475D01*
X140508646Y-77062475D02*
X141127693Y-77062475D01*
X141746741Y-76062475D02*
X141841979Y-76062475D01*
X141841979Y-76062475D02*
X141937217Y-76110094D01*
X141937217Y-76110094D02*
X141984836Y-76157713D01*
X141984836Y-76157713D02*
X142032455Y-76252951D01*
X142032455Y-76252951D02*
X142080074Y-76443427D01*
X142080074Y-76443427D02*
X142080074Y-76681522D01*
X142080074Y-76681522D02*
X142032455Y-76871998D01*
X142032455Y-76871998D02*
X141984836Y-76967236D01*
X141984836Y-76967236D02*
X141937217Y-77014856D01*
X141937217Y-77014856D02*
X141841979Y-77062475D01*
X141841979Y-77062475D02*
X141746741Y-77062475D01*
X141746741Y-77062475D02*
X141651503Y-77014856D01*
X141651503Y-77014856D02*
X141603884Y-76967236D01*
X141603884Y-76967236D02*
X141556265Y-76871998D01*
X141556265Y-76871998D02*
X141508646Y-76681522D01*
X141508646Y-76681522D02*
X141508646Y-76443427D01*
X141508646Y-76443427D02*
X141556265Y-76252951D01*
X141556265Y-76252951D02*
X141603884Y-76157713D01*
X141603884Y-76157713D02*
X141651503Y-76110094D01*
X141651503Y-76110094D02*
X141746741Y-76062475D01*
X142461027Y-76157713D02*
X142508646Y-76110094D01*
X142508646Y-76110094D02*
X142603884Y-76062475D01*
X142603884Y-76062475D02*
X142841979Y-76062475D01*
X142841979Y-76062475D02*
X142937217Y-76110094D01*
X142937217Y-76110094D02*
X142984836Y-76157713D01*
X142984836Y-76157713D02*
X143032455Y-76252951D01*
X143032455Y-76252951D02*
X143032455Y-76348189D01*
X143032455Y-76348189D02*
X142984836Y-76491046D01*
X142984836Y-76491046D02*
X142413408Y-77062475D01*
X142413408Y-77062475D02*
X143032455Y-77062475D01*
X143889598Y-76062475D02*
X143699122Y-76062475D01*
X143699122Y-76062475D02*
X143603884Y-76110094D01*
X143603884Y-76110094D02*
X143556265Y-76157713D01*
X143556265Y-76157713D02*
X143461027Y-76300570D01*
X143461027Y-76300570D02*
X143413408Y-76491046D01*
X143413408Y-76491046D02*
X143413408Y-76871998D01*
X143413408Y-76871998D02*
X143461027Y-76967236D01*
X143461027Y-76967236D02*
X143508646Y-77014856D01*
X143508646Y-77014856D02*
X143603884Y-77062475D01*
X143603884Y-77062475D02*
X143794360Y-77062475D01*
X143794360Y-77062475D02*
X143889598Y-77014856D01*
X143889598Y-77014856D02*
X143937217Y-76967236D01*
X143937217Y-76967236D02*
X143984836Y-76871998D01*
X143984836Y-76871998D02*
X143984836Y-76633903D01*
X143984836Y-76633903D02*
X143937217Y-76538665D01*
X143937217Y-76538665D02*
X143889598Y-76491046D01*
X143889598Y-76491046D02*
X143794360Y-76443427D01*
X143794360Y-76443427D02*
X143603884Y-76443427D01*
X143603884Y-76443427D02*
X143508646Y-76491046D01*
X143508646Y-76491046D02*
X143461027Y-76538665D01*
X143461027Y-76538665D02*
X143413408Y-76633903D01*
X140603884Y-78672419D02*
X140603884Y-77672419D01*
X140603884Y-78148609D02*
X141175312Y-78148609D01*
X141175312Y-78672419D02*
X141175312Y-77672419D01*
X141651503Y-78148609D02*
X141984836Y-78148609D01*
X142127693Y-78672419D02*
X141651503Y-78672419D01*
X141651503Y-78672419D02*
X141651503Y-77672419D01*
X141651503Y-77672419D02*
X142127693Y-77672419D01*
X143461027Y-78672419D02*
X143365789Y-78624800D01*
X143365789Y-78624800D02*
X143318170Y-78577180D01*
X143318170Y-78577180D02*
X143270551Y-78481942D01*
X143270551Y-78481942D02*
X143270551Y-78196228D01*
X143270551Y-78196228D02*
X143318170Y-78100990D01*
X143318170Y-78100990D02*
X143365789Y-78053371D01*
X143365789Y-78053371D02*
X143461027Y-78005752D01*
X143461027Y-78005752D02*
X143603884Y-78005752D01*
X143603884Y-78005752D02*
X143699122Y-78053371D01*
X143699122Y-78053371D02*
X143746741Y-78100990D01*
X143746741Y-78100990D02*
X143794360Y-78196228D01*
X143794360Y-78196228D02*
X143794360Y-78481942D01*
X143794360Y-78481942D02*
X143746741Y-78577180D01*
X143746741Y-78577180D02*
X143699122Y-78624800D01*
X143699122Y-78624800D02*
X143603884Y-78672419D01*
X143603884Y-78672419D02*
X143461027Y-78672419D01*
X144651503Y-78624800D02*
X144556265Y-78672419D01*
X144556265Y-78672419D02*
X144365789Y-78672419D01*
X144365789Y-78672419D02*
X144270551Y-78624800D01*
X144270551Y-78624800D02*
X144222932Y-78577180D01*
X144222932Y-78577180D02*
X144175313Y-78481942D01*
X144175313Y-78481942D02*
X144175313Y-78196228D01*
X144175313Y-78196228D02*
X144222932Y-78100990D01*
X144222932Y-78100990D02*
X144270551Y-78053371D01*
X144270551Y-78053371D02*
X144365789Y-78005752D01*
X144365789Y-78005752D02*
X144556265Y-78005752D01*
X144556265Y-78005752D02*
X144651503Y-78053371D01*
X144937218Y-78005752D02*
X145318170Y-78005752D01*
X145080075Y-77672419D02*
X145080075Y-78529561D01*
X145080075Y-78529561D02*
X145127694Y-78624800D01*
X145127694Y-78624800D02*
X145222932Y-78672419D01*
X145222932Y-78672419D02*
X145318170Y-78672419D01*
X146080075Y-78672419D02*
X146080075Y-78148609D01*
X146080075Y-78148609D02*
X146032456Y-78053371D01*
X146032456Y-78053371D02*
X145937218Y-78005752D01*
X145937218Y-78005752D02*
X145746742Y-78005752D01*
X145746742Y-78005752D02*
X145651504Y-78053371D01*
X146080075Y-78624800D02*
X145984837Y-78672419D01*
X145984837Y-78672419D02*
X145746742Y-78672419D01*
X145746742Y-78672419D02*
X145651504Y-78624800D01*
X145651504Y-78624800D02*
X145603885Y-78529561D01*
X145603885Y-78529561D02*
X145603885Y-78434323D01*
X145603885Y-78434323D02*
X145651504Y-78339085D01*
X145651504Y-78339085D02*
X145746742Y-78291466D01*
X145746742Y-78291466D02*
X145984837Y-78291466D01*
X145984837Y-78291466D02*
X146080075Y-78243847D01*
X146461028Y-78005752D02*
X146699123Y-78672419D01*
X146699123Y-78672419D02*
X146937218Y-78005752D01*
X147699123Y-78624800D02*
X147603885Y-78672419D01*
X147603885Y-78672419D02*
X147413409Y-78672419D01*
X147413409Y-78672419D02*
X147318171Y-78624800D01*
X147318171Y-78624800D02*
X147270552Y-78529561D01*
X147270552Y-78529561D02*
X147270552Y-78148609D01*
X147270552Y-78148609D02*
X147318171Y-78053371D01*
X147318171Y-78053371D02*
X147413409Y-78005752D01*
X147413409Y-78005752D02*
X147603885Y-78005752D01*
X147603885Y-78005752D02*
X147699123Y-78053371D01*
X147699123Y-78053371D02*
X147746742Y-78148609D01*
X147746742Y-78148609D02*
X147746742Y-78243847D01*
X147746742Y-78243847D02*
X147270552Y-78339085D01*
X148937219Y-78672419D02*
X148937219Y-77672419D01*
X148937219Y-77672419D02*
X149318171Y-77672419D01*
X149318171Y-77672419D02*
X149413409Y-77720038D01*
X149413409Y-77720038D02*
X149461028Y-77767657D01*
X149461028Y-77767657D02*
X149508647Y-77862895D01*
X149508647Y-77862895D02*
X149508647Y-78005752D01*
X149508647Y-78005752D02*
X149461028Y-78100990D01*
X149461028Y-78100990D02*
X149413409Y-78148609D01*
X149413409Y-78148609D02*
X149318171Y-78196228D01*
X149318171Y-78196228D02*
X148937219Y-78196228D01*
X150508647Y-78577180D02*
X150461028Y-78624800D01*
X150461028Y-78624800D02*
X150318171Y-78672419D01*
X150318171Y-78672419D02*
X150222933Y-78672419D01*
X150222933Y-78672419D02*
X150080076Y-78624800D01*
X150080076Y-78624800D02*
X149984838Y-78529561D01*
X149984838Y-78529561D02*
X149937219Y-78434323D01*
X149937219Y-78434323D02*
X149889600Y-78243847D01*
X149889600Y-78243847D02*
X149889600Y-78100990D01*
X149889600Y-78100990D02*
X149937219Y-77910514D01*
X149937219Y-77910514D02*
X149984838Y-77815276D01*
X149984838Y-77815276D02*
X150080076Y-77720038D01*
X150080076Y-77720038D02*
X150222933Y-77672419D01*
X150222933Y-77672419D02*
X150318171Y-77672419D01*
X150318171Y-77672419D02*
X150461028Y-77720038D01*
X150461028Y-77720038D02*
X150508647Y-77767657D01*
X151270552Y-78148609D02*
X151413409Y-78196228D01*
X151413409Y-78196228D02*
X151461028Y-78243847D01*
X151461028Y-78243847D02*
X151508647Y-78339085D01*
X151508647Y-78339085D02*
X151508647Y-78481942D01*
X151508647Y-78481942D02*
X151461028Y-78577180D01*
X151461028Y-78577180D02*
X151413409Y-78624800D01*
X151413409Y-78624800D02*
X151318171Y-78672419D01*
X151318171Y-78672419D02*
X150937219Y-78672419D01*
X150937219Y-78672419D02*
X150937219Y-77672419D01*
X150937219Y-77672419D02*
X151270552Y-77672419D01*
X151270552Y-77672419D02*
X151365790Y-77720038D01*
X151365790Y-77720038D02*
X151413409Y-77767657D01*
X151413409Y-77767657D02*
X151461028Y-77862895D01*
X151461028Y-77862895D02*
X151461028Y-77958133D01*
X151461028Y-77958133D02*
X151413409Y-78053371D01*
X151413409Y-78053371D02*
X151365790Y-78100990D01*
X151365790Y-78100990D02*
X151270552Y-78148609D01*
X151270552Y-78148609D02*
X150937219Y-78148609D01*
%TO.C,U3*%
D11*
X206775000Y-82550000D02*
G75*
G02*
X206575000Y-82750000I-200000J0D01*
G01*
X206575000Y-79150000D02*
G75*
G02*
X206775000Y-79350000I0J-200000D01*
G01*
X202975000Y-82750000D02*
G75*
G02*
X202775000Y-82550000I1J200001D01*
G01*
X202775000Y-79350000D02*
G75*
G02*
X202975000Y-79150000I200001J-1D01*
G01*
X206775000Y-79350000D02*
X206775000Y-82550000D01*
X206575000Y-82750000D02*
X202975000Y-82750000D01*
X202975000Y-79150000D02*
X206575000Y-79150000D01*
X202775000Y-82550000D02*
X202775000Y-79350000D01*
%TO.C,U12*%
X130575000Y-82550000D02*
G75*
G02*
X130375000Y-82750000I-200000J0D01*
G01*
X130375000Y-79150000D02*
G75*
G02*
X130575000Y-79350000I0J-200000D01*
G01*
X126775000Y-82750000D02*
G75*
G02*
X126575000Y-82550000I1J200001D01*
G01*
X126575000Y-79350000D02*
G75*
G02*
X126775000Y-79150000I200001J-1D01*
G01*
X130575000Y-79350000D02*
X130575000Y-82550000D01*
X130375000Y-82750000D02*
X126775000Y-82750000D01*
X126775000Y-79150000D02*
X130375000Y-79150000D01*
X126575000Y-82550000D02*
X126575000Y-79350000D01*
%TO.C,U4*%
X216300000Y-101600000D02*
G75*
G02*
X216100000Y-101800000I-200000J0D01*
G01*
X216100000Y-98200000D02*
G75*
G02*
X216300000Y-98400000I0J-200000D01*
G01*
X212500000Y-101800000D02*
G75*
G02*
X212300000Y-101600000I1J200001D01*
G01*
X212300000Y-98400000D02*
G75*
G02*
X212500000Y-98200000I200001J-1D01*
G01*
X216300000Y-98400000D02*
X216300000Y-101600000D01*
X216100000Y-101800000D02*
X212500000Y-101800000D01*
X212500000Y-98200000D02*
X216100000Y-98200000D01*
X212300000Y-101600000D02*
X212300000Y-98400000D01*
%TO.C,U7*%
X155150000Y-101600000D02*
X155150000Y-98400000D01*
X155350000Y-98200000D02*
X158950000Y-98200000D01*
X158950000Y-101800000D02*
X155350000Y-101800000D01*
X159150000Y-98400000D02*
X159150000Y-101600000D01*
X155150000Y-98400000D02*
G75*
G02*
X155350000Y-98200000I200001J-1D01*
G01*
X155350000Y-101800000D02*
G75*
G02*
X155150000Y-101600000I1J200001D01*
G01*
X158950000Y-98200000D02*
G75*
G02*
X159150000Y-98400000I0J-200000D01*
G01*
X159150000Y-101600000D02*
G75*
G02*
X158950000Y-101800000I-200000J0D01*
G01*
%TO.C,U1*%
X168675000Y-82550000D02*
G75*
G02*
X168475000Y-82750000I-200000J0D01*
G01*
X168475000Y-79150000D02*
G75*
G02*
X168675000Y-79350000I0J-200000D01*
G01*
X164875000Y-82750000D02*
G75*
G02*
X164675000Y-82550000I1J200001D01*
G01*
X164675000Y-79350000D02*
G75*
G02*
X164875000Y-79150000I200001J-1D01*
G01*
X168675000Y-79350000D02*
X168675000Y-82550000D01*
X168475000Y-82750000D02*
X164875000Y-82750000D01*
X164875000Y-79150000D02*
X168475000Y-79150000D01*
X164675000Y-82550000D02*
X164675000Y-79350000D01*
%TO.C,U11*%
X111525000Y-82550000D02*
G75*
G02*
X111325000Y-82750000I-200000J0D01*
G01*
X111325000Y-79150000D02*
G75*
G02*
X111525000Y-79350000I0J-200000D01*
G01*
X107725000Y-82750000D02*
G75*
G02*
X107525000Y-82550000I1J200001D01*
G01*
X107525000Y-79350000D02*
G75*
G02*
X107725000Y-79150000I200001J-1D01*
G01*
X111525000Y-79350000D02*
X111525000Y-82550000D01*
X111325000Y-82750000D02*
X107725000Y-82750000D01*
X107725000Y-79150000D02*
X111325000Y-79150000D01*
X107525000Y-82550000D02*
X107525000Y-79350000D01*
%TO.C,U6*%
X174200000Y-101600000D02*
X174200000Y-98400000D01*
X174400000Y-98200000D02*
X178000000Y-98200000D01*
X178000000Y-101800000D02*
X174400000Y-101800000D01*
X178200000Y-98400000D02*
X178200000Y-101600000D01*
X174200000Y-98400000D02*
G75*
G02*
X174400000Y-98200000I200001J-1D01*
G01*
X174400000Y-101800000D02*
G75*
G02*
X174200000Y-101600000I1J200001D01*
G01*
X178000000Y-98200000D02*
G75*
G02*
X178200000Y-98400000I0J-200000D01*
G01*
X178200000Y-101600000D02*
G75*
G02*
X178000000Y-101800000I-200000J0D01*
G01*
%TO.C,U9*%
X117050000Y-101600000D02*
X117050000Y-98400000D01*
X117250000Y-98200000D02*
X120850000Y-98200000D01*
X120850000Y-101800000D02*
X117250000Y-101800000D01*
X121050000Y-98400000D02*
X121050000Y-101600000D01*
X117050000Y-98400000D02*
G75*
G02*
X117250000Y-98200000I200001J-1D01*
G01*
X117250000Y-101800000D02*
G75*
G02*
X117050000Y-101600000I1J200001D01*
G01*
X120850000Y-98200000D02*
G75*
G02*
X121050000Y-98400000I0J-200000D01*
G01*
X121050000Y-101600000D02*
G75*
G02*
X120850000Y-101800000I-200000J0D01*
G01*
%TO.C,U10*%
X98000000Y-101600000D02*
X98000000Y-98400000D01*
X98200000Y-98200000D02*
X101800000Y-98200000D01*
X101800000Y-101800000D02*
X98200000Y-101800000D01*
X102000000Y-98400000D02*
X102000000Y-101600000D01*
X98000000Y-98400000D02*
G75*
G02*
X98200000Y-98200000I200001J-1D01*
G01*
X98200000Y-101800000D02*
G75*
G02*
X98000000Y-101600000I1J200001D01*
G01*
X101800000Y-98200000D02*
G75*
G02*
X102000000Y-98400000I0J-200000D01*
G01*
X102000000Y-101600000D02*
G75*
G02*
X101800000Y-101800000I-200000J0D01*
G01*
%TO.C,U5*%
X193250000Y-101600000D02*
X193250000Y-98400000D01*
X193450000Y-98200000D02*
X197050000Y-98200000D01*
X197050000Y-101800000D02*
X193450000Y-101800000D01*
X197250000Y-98400000D02*
X197250000Y-101600000D01*
X193250000Y-98400000D02*
G75*
G02*
X193450000Y-98200000I200001J-1D01*
G01*
X193450000Y-101800000D02*
G75*
G02*
X193250000Y-101600000I1J200001D01*
G01*
X197050000Y-98200000D02*
G75*
G02*
X197250000Y-98400000I0J-200000D01*
G01*
X197250000Y-101600000D02*
G75*
G02*
X197050000Y-101800000I-200000J0D01*
G01*
%TO.C,U8*%
X136100000Y-101600000D02*
X136100000Y-98400000D01*
X136300000Y-98200000D02*
X139900000Y-98200000D01*
X139900000Y-101800000D02*
X136300000Y-101800000D01*
X140100000Y-98400000D02*
X140100000Y-101600000D01*
X136100000Y-98400000D02*
G75*
G02*
X136300000Y-98200000I200001J-1D01*
G01*
X136300000Y-101800000D02*
G75*
G02*
X136100000Y-101600000I1J200001D01*
G01*
X139900000Y-98200000D02*
G75*
G02*
X140100000Y-98400000I0J-200000D01*
G01*
X140100000Y-101600000D02*
G75*
G02*
X139900000Y-101800000I-200000J0D01*
G01*
%TO.C,U2*%
X183725000Y-82550000D02*
X183725000Y-79350000D01*
X183925000Y-79150000D02*
X187525000Y-79150000D01*
X187525000Y-82750000D02*
X183925000Y-82750000D01*
X187725000Y-79350000D02*
X187725000Y-82550000D01*
X183725000Y-79350000D02*
G75*
G02*
X183925000Y-79150000I200001J-1D01*
G01*
X183925000Y-82750000D02*
G75*
G02*
X183725000Y-82550000I1J200001D01*
G01*
X187525000Y-79150000D02*
G75*
G02*
X187725000Y-79350000I0J-200000D01*
G01*
X187725000Y-82550000D02*
G75*
G02*
X187525000Y-82750000I-200000J0D01*
G01*
%TD*%
M02*
