%TF.GenerationSoftware,KiCad,Pcbnew,10.0.1*%
%TF.CreationDate,2026-06-18T16:13:49+08:00*%
%TF.ProjectId,Octave-HE,4f637461-7665-42d4-9845-2e6b69636164,rev?*%
%TF.SameCoordinates,Original*%
%TF.FileFunction,Legend,Bot*%
%TF.FilePolarity,Positive*%
%FSLAX46Y46*%
G04 Gerber Fmt 4.6, Leading zero omitted, Abs format (unit mm)*
G04 Created by KiCad (PCBNEW 10.0.1) date 2026-06-18 16:13:49*
%MOMM*%
%LPD*%
G01*
G04 APERTURE LIST*
%ADD10C,0.150000*%
%ADD11C,0.120000*%
%ADD12C,0.177800*%
%ADD13C,0.152400*%
%ADD14C,0.100000*%
G04 APERTURE END LIST*
D10*
X127635714Y-78145180D02*
X127635714Y-79145180D01*
X127635714Y-79145180D02*
X127873809Y-79145180D01*
X127873809Y-79145180D02*
X128016666Y-79097561D01*
X128016666Y-79097561D02*
X128111904Y-79002323D01*
X128111904Y-79002323D02*
X128159523Y-78907085D01*
X128159523Y-78907085D02*
X128207142Y-78716609D01*
X128207142Y-78716609D02*
X128207142Y-78573752D01*
X128207142Y-78573752D02*
X128159523Y-78383276D01*
X128159523Y-78383276D02*
X128111904Y-78288038D01*
X128111904Y-78288038D02*
X128016666Y-78192800D01*
X128016666Y-78192800D02*
X127873809Y-78145180D01*
X127873809Y-78145180D02*
X127635714Y-78145180D01*
X129159523Y-78145180D02*
X128588095Y-78145180D01*
X128873809Y-78145180D02*
X128873809Y-79145180D01*
X128873809Y-79145180D02*
X128778571Y-79002323D01*
X128778571Y-79002323D02*
X128683333Y-78907085D01*
X128683333Y-78907085D02*
X128588095Y-78859466D01*
X129540476Y-79049942D02*
X129588095Y-79097561D01*
X129588095Y-79097561D02*
X129683333Y-79145180D01*
X129683333Y-79145180D02*
X129921428Y-79145180D01*
X129921428Y-79145180D02*
X130016666Y-79097561D01*
X130016666Y-79097561D02*
X130064285Y-79049942D01*
X130064285Y-79049942D02*
X130111904Y-78954704D01*
X130111904Y-78954704D02*
X130111904Y-78859466D01*
X130111904Y-78859466D02*
X130064285Y-78716609D01*
X130064285Y-78716609D02*
X129492857Y-78145180D01*
X129492857Y-78145180D02*
X130111904Y-78145180D01*
X108285714Y-78195180D02*
X108285714Y-79195180D01*
X108285714Y-79195180D02*
X108523809Y-79195180D01*
X108523809Y-79195180D02*
X108666666Y-79147561D01*
X108666666Y-79147561D02*
X108761904Y-79052323D01*
X108761904Y-79052323D02*
X108809523Y-78957085D01*
X108809523Y-78957085D02*
X108857142Y-78766609D01*
X108857142Y-78766609D02*
X108857142Y-78623752D01*
X108857142Y-78623752D02*
X108809523Y-78433276D01*
X108809523Y-78433276D02*
X108761904Y-78338038D01*
X108761904Y-78338038D02*
X108666666Y-78242800D01*
X108666666Y-78242800D02*
X108523809Y-78195180D01*
X108523809Y-78195180D02*
X108285714Y-78195180D01*
X109809523Y-78195180D02*
X109238095Y-78195180D01*
X109523809Y-78195180D02*
X109523809Y-79195180D01*
X109523809Y-79195180D02*
X109428571Y-79052323D01*
X109428571Y-79052323D02*
X109333333Y-78957085D01*
X109333333Y-78957085D02*
X109238095Y-78909466D01*
X110761904Y-78195180D02*
X110190476Y-78195180D01*
X110476190Y-78195180D02*
X110476190Y-79195180D01*
X110476190Y-79195180D02*
X110380952Y-79052323D01*
X110380952Y-79052323D02*
X110285714Y-78957085D01*
X110285714Y-78957085D02*
X110190476Y-78909466D01*
X101164285Y-108454819D02*
X101164285Y-107454819D01*
X101164285Y-107454819D02*
X100926190Y-107454819D01*
X100926190Y-107454819D02*
X100783333Y-107502438D01*
X100783333Y-107502438D02*
X100688095Y-107597676D01*
X100688095Y-107597676D02*
X100640476Y-107692914D01*
X100640476Y-107692914D02*
X100592857Y-107883390D01*
X100592857Y-107883390D02*
X100592857Y-108026247D01*
X100592857Y-108026247D02*
X100640476Y-108216723D01*
X100640476Y-108216723D02*
X100688095Y-108311961D01*
X100688095Y-108311961D02*
X100783333Y-108407200D01*
X100783333Y-108407200D02*
X100926190Y-108454819D01*
X100926190Y-108454819D02*
X101164285Y-108454819D01*
X99640476Y-108454819D02*
X100211904Y-108454819D01*
X99926190Y-108454819D02*
X99926190Y-107454819D01*
X99926190Y-107454819D02*
X100021428Y-107597676D01*
X100021428Y-107597676D02*
X100116666Y-107692914D01*
X100116666Y-107692914D02*
X100211904Y-107740533D01*
X99021428Y-107454819D02*
X98926190Y-107454819D01*
X98926190Y-107454819D02*
X98830952Y-107502438D01*
X98830952Y-107502438D02*
X98783333Y-107550057D01*
X98783333Y-107550057D02*
X98735714Y-107645295D01*
X98735714Y-107645295D02*
X98688095Y-107835771D01*
X98688095Y-107835771D02*
X98688095Y-108073866D01*
X98688095Y-108073866D02*
X98735714Y-108264342D01*
X98735714Y-108264342D02*
X98783333Y-108359580D01*
X98783333Y-108359580D02*
X98830952Y-108407200D01*
X98830952Y-108407200D02*
X98926190Y-108454819D01*
X98926190Y-108454819D02*
X99021428Y-108454819D01*
X99021428Y-108454819D02*
X99116666Y-108407200D01*
X99116666Y-108407200D02*
X99164285Y-108359580D01*
X99164285Y-108359580D02*
X99211904Y-108264342D01*
X99211904Y-108264342D02*
X99259523Y-108073866D01*
X99259523Y-108073866D02*
X99259523Y-107835771D01*
X99259523Y-107835771D02*
X99211904Y-107645295D01*
X99211904Y-107645295D02*
X99164285Y-107550057D01*
X99164285Y-107550057D02*
X99116666Y-107502438D01*
X99116666Y-107502438D02*
X99021428Y-107454819D01*
X119788094Y-108404819D02*
X119788094Y-107404819D01*
X119788094Y-107404819D02*
X119549999Y-107404819D01*
X119549999Y-107404819D02*
X119407142Y-107452438D01*
X119407142Y-107452438D02*
X119311904Y-107547676D01*
X119311904Y-107547676D02*
X119264285Y-107642914D01*
X119264285Y-107642914D02*
X119216666Y-107833390D01*
X119216666Y-107833390D02*
X119216666Y-107976247D01*
X119216666Y-107976247D02*
X119264285Y-108166723D01*
X119264285Y-108166723D02*
X119311904Y-108261961D01*
X119311904Y-108261961D02*
X119407142Y-108357200D01*
X119407142Y-108357200D02*
X119549999Y-108404819D01*
X119549999Y-108404819D02*
X119788094Y-108404819D01*
X118740475Y-108404819D02*
X118549999Y-108404819D01*
X118549999Y-108404819D02*
X118454761Y-108357200D01*
X118454761Y-108357200D02*
X118407142Y-108309580D01*
X118407142Y-108309580D02*
X118311904Y-108166723D01*
X118311904Y-108166723D02*
X118264285Y-107976247D01*
X118264285Y-107976247D02*
X118264285Y-107595295D01*
X118264285Y-107595295D02*
X118311904Y-107500057D01*
X118311904Y-107500057D02*
X118359523Y-107452438D01*
X118359523Y-107452438D02*
X118454761Y-107404819D01*
X118454761Y-107404819D02*
X118645237Y-107404819D01*
X118645237Y-107404819D02*
X118740475Y-107452438D01*
X118740475Y-107452438D02*
X118788094Y-107500057D01*
X118788094Y-107500057D02*
X118835713Y-107595295D01*
X118835713Y-107595295D02*
X118835713Y-107833390D01*
X118835713Y-107833390D02*
X118788094Y-107928628D01*
X118788094Y-107928628D02*
X118740475Y-107976247D01*
X118740475Y-107976247D02*
X118645237Y-108023866D01*
X118645237Y-108023866D02*
X118454761Y-108023866D01*
X118454761Y-108023866D02*
X118359523Y-107976247D01*
X118359523Y-107976247D02*
X118311904Y-107928628D01*
X118311904Y-107928628D02*
X118264285Y-107833390D01*
X138838094Y-108404819D02*
X138838094Y-107404819D01*
X138838094Y-107404819D02*
X138599999Y-107404819D01*
X138599999Y-107404819D02*
X138457142Y-107452438D01*
X138457142Y-107452438D02*
X138361904Y-107547676D01*
X138361904Y-107547676D02*
X138314285Y-107642914D01*
X138314285Y-107642914D02*
X138266666Y-107833390D01*
X138266666Y-107833390D02*
X138266666Y-107976247D01*
X138266666Y-107976247D02*
X138314285Y-108166723D01*
X138314285Y-108166723D02*
X138361904Y-108261961D01*
X138361904Y-108261961D02*
X138457142Y-108357200D01*
X138457142Y-108357200D02*
X138599999Y-108404819D01*
X138599999Y-108404819D02*
X138838094Y-108404819D01*
X137695237Y-107833390D02*
X137790475Y-107785771D01*
X137790475Y-107785771D02*
X137838094Y-107738152D01*
X137838094Y-107738152D02*
X137885713Y-107642914D01*
X137885713Y-107642914D02*
X137885713Y-107595295D01*
X137885713Y-107595295D02*
X137838094Y-107500057D01*
X137838094Y-107500057D02*
X137790475Y-107452438D01*
X137790475Y-107452438D02*
X137695237Y-107404819D01*
X137695237Y-107404819D02*
X137504761Y-107404819D01*
X137504761Y-107404819D02*
X137409523Y-107452438D01*
X137409523Y-107452438D02*
X137361904Y-107500057D01*
X137361904Y-107500057D02*
X137314285Y-107595295D01*
X137314285Y-107595295D02*
X137314285Y-107642914D01*
X137314285Y-107642914D02*
X137361904Y-107738152D01*
X137361904Y-107738152D02*
X137409523Y-107785771D01*
X137409523Y-107785771D02*
X137504761Y-107833390D01*
X137504761Y-107833390D02*
X137695237Y-107833390D01*
X137695237Y-107833390D02*
X137790475Y-107881009D01*
X137790475Y-107881009D02*
X137838094Y-107928628D01*
X137838094Y-107928628D02*
X137885713Y-108023866D01*
X137885713Y-108023866D02*
X137885713Y-108214342D01*
X137885713Y-108214342D02*
X137838094Y-108309580D01*
X137838094Y-108309580D02*
X137790475Y-108357200D01*
X137790475Y-108357200D02*
X137695237Y-108404819D01*
X137695237Y-108404819D02*
X137504761Y-108404819D01*
X137504761Y-108404819D02*
X137409523Y-108357200D01*
X137409523Y-108357200D02*
X137361904Y-108309580D01*
X137361904Y-108309580D02*
X137314285Y-108214342D01*
X137314285Y-108214342D02*
X137314285Y-108023866D01*
X137314285Y-108023866D02*
X137361904Y-107928628D01*
X137361904Y-107928628D02*
X137409523Y-107881009D01*
X137409523Y-107881009D02*
X137504761Y-107833390D01*
X157838094Y-108354819D02*
X157838094Y-107354819D01*
X157838094Y-107354819D02*
X157599999Y-107354819D01*
X157599999Y-107354819D02*
X157457142Y-107402438D01*
X157457142Y-107402438D02*
X157361904Y-107497676D01*
X157361904Y-107497676D02*
X157314285Y-107592914D01*
X157314285Y-107592914D02*
X157266666Y-107783390D01*
X157266666Y-107783390D02*
X157266666Y-107926247D01*
X157266666Y-107926247D02*
X157314285Y-108116723D01*
X157314285Y-108116723D02*
X157361904Y-108211961D01*
X157361904Y-108211961D02*
X157457142Y-108307200D01*
X157457142Y-108307200D02*
X157599999Y-108354819D01*
X157599999Y-108354819D02*
X157838094Y-108354819D01*
X156933332Y-107354819D02*
X156266666Y-107354819D01*
X156266666Y-107354819D02*
X156695237Y-108354819D01*
X176888094Y-108504819D02*
X176888094Y-107504819D01*
X176888094Y-107504819D02*
X176649999Y-107504819D01*
X176649999Y-107504819D02*
X176507142Y-107552438D01*
X176507142Y-107552438D02*
X176411904Y-107647676D01*
X176411904Y-107647676D02*
X176364285Y-107742914D01*
X176364285Y-107742914D02*
X176316666Y-107933390D01*
X176316666Y-107933390D02*
X176316666Y-108076247D01*
X176316666Y-108076247D02*
X176364285Y-108266723D01*
X176364285Y-108266723D02*
X176411904Y-108361961D01*
X176411904Y-108361961D02*
X176507142Y-108457200D01*
X176507142Y-108457200D02*
X176649999Y-108504819D01*
X176649999Y-108504819D02*
X176888094Y-108504819D01*
X175459523Y-107504819D02*
X175649999Y-107504819D01*
X175649999Y-107504819D02*
X175745237Y-107552438D01*
X175745237Y-107552438D02*
X175792856Y-107600057D01*
X175792856Y-107600057D02*
X175888094Y-107742914D01*
X175888094Y-107742914D02*
X175935713Y-107933390D01*
X175935713Y-107933390D02*
X175935713Y-108314342D01*
X175935713Y-108314342D02*
X175888094Y-108409580D01*
X175888094Y-108409580D02*
X175840475Y-108457200D01*
X175840475Y-108457200D02*
X175745237Y-108504819D01*
X175745237Y-108504819D02*
X175554761Y-108504819D01*
X175554761Y-108504819D02*
X175459523Y-108457200D01*
X175459523Y-108457200D02*
X175411904Y-108409580D01*
X175411904Y-108409580D02*
X175364285Y-108314342D01*
X175364285Y-108314342D02*
X175364285Y-108076247D01*
X175364285Y-108076247D02*
X175411904Y-107981009D01*
X175411904Y-107981009D02*
X175459523Y-107933390D01*
X175459523Y-107933390D02*
X175554761Y-107885771D01*
X175554761Y-107885771D02*
X175745237Y-107885771D01*
X175745237Y-107885771D02*
X175840475Y-107933390D01*
X175840475Y-107933390D02*
X175888094Y-107981009D01*
X175888094Y-107981009D02*
X175935713Y-108076247D01*
X195838094Y-108404819D02*
X195838094Y-107404819D01*
X195838094Y-107404819D02*
X195599999Y-107404819D01*
X195599999Y-107404819D02*
X195457142Y-107452438D01*
X195457142Y-107452438D02*
X195361904Y-107547676D01*
X195361904Y-107547676D02*
X195314285Y-107642914D01*
X195314285Y-107642914D02*
X195266666Y-107833390D01*
X195266666Y-107833390D02*
X195266666Y-107976247D01*
X195266666Y-107976247D02*
X195314285Y-108166723D01*
X195314285Y-108166723D02*
X195361904Y-108261961D01*
X195361904Y-108261961D02*
X195457142Y-108357200D01*
X195457142Y-108357200D02*
X195599999Y-108404819D01*
X195599999Y-108404819D02*
X195838094Y-108404819D01*
X194361904Y-107404819D02*
X194838094Y-107404819D01*
X194838094Y-107404819D02*
X194885713Y-107881009D01*
X194885713Y-107881009D02*
X194838094Y-107833390D01*
X194838094Y-107833390D02*
X194742856Y-107785771D01*
X194742856Y-107785771D02*
X194504761Y-107785771D01*
X194504761Y-107785771D02*
X194409523Y-107833390D01*
X194409523Y-107833390D02*
X194361904Y-107881009D01*
X194361904Y-107881009D02*
X194314285Y-107976247D01*
X194314285Y-107976247D02*
X194314285Y-108214342D01*
X194314285Y-108214342D02*
X194361904Y-108309580D01*
X194361904Y-108309580D02*
X194409523Y-108357200D01*
X194409523Y-108357200D02*
X194504761Y-108404819D01*
X194504761Y-108404819D02*
X194742856Y-108404819D01*
X194742856Y-108404819D02*
X194838094Y-108357200D01*
X194838094Y-108357200D02*
X194885713Y-108309580D01*
X214988094Y-92954819D02*
X214988094Y-91954819D01*
X214988094Y-91954819D02*
X214749999Y-91954819D01*
X214749999Y-91954819D02*
X214607142Y-92002438D01*
X214607142Y-92002438D02*
X214511904Y-92097676D01*
X214511904Y-92097676D02*
X214464285Y-92192914D01*
X214464285Y-92192914D02*
X214416666Y-92383390D01*
X214416666Y-92383390D02*
X214416666Y-92526247D01*
X214416666Y-92526247D02*
X214464285Y-92716723D01*
X214464285Y-92716723D02*
X214511904Y-92811961D01*
X214511904Y-92811961D02*
X214607142Y-92907200D01*
X214607142Y-92907200D02*
X214749999Y-92954819D01*
X214749999Y-92954819D02*
X214988094Y-92954819D01*
X213559523Y-92288152D02*
X213559523Y-92954819D01*
X213797618Y-91907200D02*
X214035713Y-92621485D01*
X214035713Y-92621485D02*
X213416666Y-92621485D01*
X203961905Y-78145180D02*
X203961905Y-79145180D01*
X203961905Y-79145180D02*
X204200000Y-79145180D01*
X204200000Y-79145180D02*
X204342857Y-79097561D01*
X204342857Y-79097561D02*
X204438095Y-79002323D01*
X204438095Y-79002323D02*
X204485714Y-78907085D01*
X204485714Y-78907085D02*
X204533333Y-78716609D01*
X204533333Y-78716609D02*
X204533333Y-78573752D01*
X204533333Y-78573752D02*
X204485714Y-78383276D01*
X204485714Y-78383276D02*
X204438095Y-78288038D01*
X204438095Y-78288038D02*
X204342857Y-78192800D01*
X204342857Y-78192800D02*
X204200000Y-78145180D01*
X204200000Y-78145180D02*
X203961905Y-78145180D01*
X204866667Y-79145180D02*
X205485714Y-79145180D01*
X205485714Y-79145180D02*
X205152381Y-78764228D01*
X205152381Y-78764228D02*
X205295238Y-78764228D01*
X205295238Y-78764228D02*
X205390476Y-78716609D01*
X205390476Y-78716609D02*
X205438095Y-78668990D01*
X205438095Y-78668990D02*
X205485714Y-78573752D01*
X205485714Y-78573752D02*
X205485714Y-78335657D01*
X205485714Y-78335657D02*
X205438095Y-78240419D01*
X205438095Y-78240419D02*
X205390476Y-78192800D01*
X205390476Y-78192800D02*
X205295238Y-78145180D01*
X205295238Y-78145180D02*
X205009524Y-78145180D01*
X205009524Y-78145180D02*
X204914286Y-78192800D01*
X204914286Y-78192800D02*
X204866667Y-78240419D01*
X184911905Y-78195180D02*
X184911905Y-79195180D01*
X184911905Y-79195180D02*
X185150000Y-79195180D01*
X185150000Y-79195180D02*
X185292857Y-79147561D01*
X185292857Y-79147561D02*
X185388095Y-79052323D01*
X185388095Y-79052323D02*
X185435714Y-78957085D01*
X185435714Y-78957085D02*
X185483333Y-78766609D01*
X185483333Y-78766609D02*
X185483333Y-78623752D01*
X185483333Y-78623752D02*
X185435714Y-78433276D01*
X185435714Y-78433276D02*
X185388095Y-78338038D01*
X185388095Y-78338038D02*
X185292857Y-78242800D01*
X185292857Y-78242800D02*
X185150000Y-78195180D01*
X185150000Y-78195180D02*
X184911905Y-78195180D01*
X185864286Y-79099942D02*
X185911905Y-79147561D01*
X185911905Y-79147561D02*
X186007143Y-79195180D01*
X186007143Y-79195180D02*
X186245238Y-79195180D01*
X186245238Y-79195180D02*
X186340476Y-79147561D01*
X186340476Y-79147561D02*
X186388095Y-79099942D01*
X186388095Y-79099942D02*
X186435714Y-79004704D01*
X186435714Y-79004704D02*
X186435714Y-78909466D01*
X186435714Y-78909466D02*
X186388095Y-78766609D01*
X186388095Y-78766609D02*
X185816667Y-78195180D01*
X185816667Y-78195180D02*
X186435714Y-78195180D01*
X166111905Y-72745180D02*
X166111905Y-73745180D01*
X166111905Y-73745180D02*
X166350000Y-73745180D01*
X166350000Y-73745180D02*
X166492857Y-73697561D01*
X166492857Y-73697561D02*
X166588095Y-73602323D01*
X166588095Y-73602323D02*
X166635714Y-73507085D01*
X166635714Y-73507085D02*
X166683333Y-73316609D01*
X166683333Y-73316609D02*
X166683333Y-73173752D01*
X166683333Y-73173752D02*
X166635714Y-72983276D01*
X166635714Y-72983276D02*
X166588095Y-72888038D01*
X166588095Y-72888038D02*
X166492857Y-72792800D01*
X166492857Y-72792800D02*
X166350000Y-72745180D01*
X166350000Y-72745180D02*
X166111905Y-72745180D01*
X167635714Y-72745180D02*
X167064286Y-72745180D01*
X167350000Y-72745180D02*
X167350000Y-73745180D01*
X167350000Y-73745180D02*
X167254762Y-73602323D01*
X167254762Y-73602323D02*
X167159524Y-73507085D01*
X167159524Y-73507085D02*
X167064286Y-73459466D01*
X201737295Y-80340476D02*
X202384914Y-80340476D01*
X202384914Y-80340476D02*
X202461104Y-80378571D01*
X202461104Y-80378571D02*
X202499200Y-80416666D01*
X202499200Y-80416666D02*
X202537295Y-80492857D01*
X202537295Y-80492857D02*
X202537295Y-80645238D01*
X202537295Y-80645238D02*
X202499200Y-80721428D01*
X202499200Y-80721428D02*
X202461104Y-80759523D01*
X202461104Y-80759523D02*
X202384914Y-80797619D01*
X202384914Y-80797619D02*
X201737295Y-80797619D01*
X201737295Y-81102380D02*
X201737295Y-81597618D01*
X201737295Y-81597618D02*
X202042057Y-81330952D01*
X202042057Y-81330952D02*
X202042057Y-81445237D01*
X202042057Y-81445237D02*
X202080152Y-81521428D01*
X202080152Y-81521428D02*
X202118247Y-81559523D01*
X202118247Y-81559523D02*
X202194438Y-81597618D01*
X202194438Y-81597618D02*
X202384914Y-81597618D01*
X202384914Y-81597618D02*
X202461104Y-81559523D01*
X202461104Y-81559523D02*
X202499200Y-81521428D01*
X202499200Y-81521428D02*
X202537295Y-81445237D01*
X202537295Y-81445237D02*
X202537295Y-81216666D01*
X202537295Y-81216666D02*
X202499200Y-81140475D01*
X202499200Y-81140475D02*
X202461104Y-81102380D01*
X125054819Y-72566666D02*
X125769104Y-72566666D01*
X125769104Y-72566666D02*
X125911961Y-72519047D01*
X125911961Y-72519047D02*
X126007200Y-72423809D01*
X126007200Y-72423809D02*
X126054819Y-72280952D01*
X126054819Y-72280952D02*
X126054819Y-72185714D01*
X126054819Y-73566666D02*
X126054819Y-72995238D01*
X126054819Y-73280952D02*
X125054819Y-73280952D01*
X125054819Y-73280952D02*
X125197676Y-73185714D01*
X125197676Y-73185714D02*
X125292914Y-73090476D01*
X125292914Y-73090476D02*
X125340533Y-72995238D01*
X125537295Y-79959524D02*
X126184914Y-79959524D01*
X126184914Y-79959524D02*
X126261104Y-79997619D01*
X126261104Y-79997619D02*
X126299200Y-80035714D01*
X126299200Y-80035714D02*
X126337295Y-80111905D01*
X126337295Y-80111905D02*
X126337295Y-80264286D01*
X126337295Y-80264286D02*
X126299200Y-80340476D01*
X126299200Y-80340476D02*
X126261104Y-80378571D01*
X126261104Y-80378571D02*
X126184914Y-80416667D01*
X126184914Y-80416667D02*
X125537295Y-80416667D01*
X126337295Y-81216666D02*
X126337295Y-80759523D01*
X126337295Y-80988095D02*
X125537295Y-80988095D01*
X125537295Y-80988095D02*
X125651580Y-80911904D01*
X125651580Y-80911904D02*
X125727771Y-80835714D01*
X125727771Y-80835714D02*
X125765866Y-80759523D01*
X125613485Y-81521428D02*
X125575390Y-81559524D01*
X125575390Y-81559524D02*
X125537295Y-81635714D01*
X125537295Y-81635714D02*
X125537295Y-81826190D01*
X125537295Y-81826190D02*
X125575390Y-81902381D01*
X125575390Y-81902381D02*
X125613485Y-81940476D01*
X125613485Y-81940476D02*
X125689676Y-81978571D01*
X125689676Y-81978571D02*
X125765866Y-81978571D01*
X125765866Y-81978571D02*
X125880152Y-81940476D01*
X125880152Y-81940476D02*
X126337295Y-81483333D01*
X126337295Y-81483333D02*
X126337295Y-81978571D01*
X122109580Y-85882142D02*
X122157200Y-85834523D01*
X122157200Y-85834523D02*
X122204819Y-85691666D01*
X122204819Y-85691666D02*
X122204819Y-85596428D01*
X122204819Y-85596428D02*
X122157200Y-85453571D01*
X122157200Y-85453571D02*
X122061961Y-85358333D01*
X122061961Y-85358333D02*
X121966723Y-85310714D01*
X121966723Y-85310714D02*
X121776247Y-85263095D01*
X121776247Y-85263095D02*
X121633390Y-85263095D01*
X121633390Y-85263095D02*
X121442914Y-85310714D01*
X121442914Y-85310714D02*
X121347676Y-85358333D01*
X121347676Y-85358333D02*
X121252438Y-85453571D01*
X121252438Y-85453571D02*
X121204819Y-85596428D01*
X121204819Y-85596428D02*
X121204819Y-85691666D01*
X121204819Y-85691666D02*
X121252438Y-85834523D01*
X121252438Y-85834523D02*
X121300057Y-85882142D01*
X122204819Y-86834523D02*
X122204819Y-86263095D01*
X122204819Y-86548809D02*
X121204819Y-86548809D01*
X121204819Y-86548809D02*
X121347676Y-86453571D01*
X121347676Y-86453571D02*
X121442914Y-86358333D01*
X121442914Y-86358333D02*
X121490533Y-86263095D01*
X121538152Y-87691666D02*
X122204819Y-87691666D01*
X121157200Y-87453571D02*
X121871485Y-87215476D01*
X121871485Y-87215476D02*
X121871485Y-87834523D01*
X119859580Y-80832142D02*
X119907200Y-80784523D01*
X119907200Y-80784523D02*
X119954819Y-80641666D01*
X119954819Y-80641666D02*
X119954819Y-80546428D01*
X119954819Y-80546428D02*
X119907200Y-80403571D01*
X119907200Y-80403571D02*
X119811961Y-80308333D01*
X119811961Y-80308333D02*
X119716723Y-80260714D01*
X119716723Y-80260714D02*
X119526247Y-80213095D01*
X119526247Y-80213095D02*
X119383390Y-80213095D01*
X119383390Y-80213095D02*
X119192914Y-80260714D01*
X119192914Y-80260714D02*
X119097676Y-80308333D01*
X119097676Y-80308333D02*
X119002438Y-80403571D01*
X119002438Y-80403571D02*
X118954819Y-80546428D01*
X118954819Y-80546428D02*
X118954819Y-80641666D01*
X118954819Y-80641666D02*
X119002438Y-80784523D01*
X119002438Y-80784523D02*
X119050057Y-80832142D01*
X119954819Y-81784523D02*
X119954819Y-81213095D01*
X119954819Y-81498809D02*
X118954819Y-81498809D01*
X118954819Y-81498809D02*
X119097676Y-81403571D01*
X119097676Y-81403571D02*
X119192914Y-81308333D01*
X119192914Y-81308333D02*
X119240533Y-81213095D01*
X118954819Y-82117857D02*
X118954819Y-82736904D01*
X118954819Y-82736904D02*
X119335771Y-82403571D01*
X119335771Y-82403571D02*
X119335771Y-82546428D01*
X119335771Y-82546428D02*
X119383390Y-82641666D01*
X119383390Y-82641666D02*
X119431009Y-82689285D01*
X119431009Y-82689285D02*
X119526247Y-82736904D01*
X119526247Y-82736904D02*
X119764342Y-82736904D01*
X119764342Y-82736904D02*
X119859580Y-82689285D01*
X119859580Y-82689285D02*
X119907200Y-82641666D01*
X119907200Y-82641666D02*
X119954819Y-82546428D01*
X119954819Y-82546428D02*
X119954819Y-82260714D01*
X119954819Y-82260714D02*
X119907200Y-82165476D01*
X119907200Y-82165476D02*
X119859580Y-82117857D01*
X211262295Y-99390476D02*
X211909914Y-99390476D01*
X211909914Y-99390476D02*
X211986104Y-99428571D01*
X211986104Y-99428571D02*
X212024200Y-99466666D01*
X212024200Y-99466666D02*
X212062295Y-99542857D01*
X212062295Y-99542857D02*
X212062295Y-99695238D01*
X212062295Y-99695238D02*
X212024200Y-99771428D01*
X212024200Y-99771428D02*
X211986104Y-99809523D01*
X211986104Y-99809523D02*
X211909914Y-99847619D01*
X211909914Y-99847619D02*
X211262295Y-99847619D01*
X211528961Y-100571428D02*
X212062295Y-100571428D01*
X211224200Y-100380952D02*
X211795628Y-100190475D01*
X211795628Y-100190475D02*
X211795628Y-100685714D01*
X136116666Y-75804819D02*
X136449999Y-75328628D01*
X136688094Y-75804819D02*
X136688094Y-74804819D01*
X136688094Y-74804819D02*
X136307142Y-74804819D01*
X136307142Y-74804819D02*
X136211904Y-74852438D01*
X136211904Y-74852438D02*
X136164285Y-74900057D01*
X136164285Y-74900057D02*
X136116666Y-74995295D01*
X136116666Y-74995295D02*
X136116666Y-75138152D01*
X136116666Y-75138152D02*
X136164285Y-75233390D01*
X136164285Y-75233390D02*
X136211904Y-75281009D01*
X136211904Y-75281009D02*
X136307142Y-75328628D01*
X136307142Y-75328628D02*
X136688094Y-75328628D01*
X135783332Y-74804819D02*
X135164285Y-74804819D01*
X135164285Y-74804819D02*
X135497618Y-75185771D01*
X135497618Y-75185771D02*
X135354761Y-75185771D01*
X135354761Y-75185771D02*
X135259523Y-75233390D01*
X135259523Y-75233390D02*
X135211904Y-75281009D01*
X135211904Y-75281009D02*
X135164285Y-75376247D01*
X135164285Y-75376247D02*
X135164285Y-75614342D01*
X135164285Y-75614342D02*
X135211904Y-75709580D01*
X135211904Y-75709580D02*
X135259523Y-75757200D01*
X135259523Y-75757200D02*
X135354761Y-75804819D01*
X135354761Y-75804819D02*
X135640475Y-75804819D01*
X135640475Y-75804819D02*
X135735713Y-75757200D01*
X135735713Y-75757200D02*
X135783332Y-75709580D01*
X95442857Y-103459580D02*
X95490476Y-103507200D01*
X95490476Y-103507200D02*
X95633333Y-103554819D01*
X95633333Y-103554819D02*
X95728571Y-103554819D01*
X95728571Y-103554819D02*
X95871428Y-103507200D01*
X95871428Y-103507200D02*
X95966666Y-103411961D01*
X95966666Y-103411961D02*
X96014285Y-103316723D01*
X96014285Y-103316723D02*
X96061904Y-103126247D01*
X96061904Y-103126247D02*
X96061904Y-102983390D01*
X96061904Y-102983390D02*
X96014285Y-102792914D01*
X96014285Y-102792914D02*
X95966666Y-102697676D01*
X95966666Y-102697676D02*
X95871428Y-102602438D01*
X95871428Y-102602438D02*
X95728571Y-102554819D01*
X95728571Y-102554819D02*
X95633333Y-102554819D01*
X95633333Y-102554819D02*
X95490476Y-102602438D01*
X95490476Y-102602438D02*
X95442857Y-102650057D01*
X95061904Y-102650057D02*
X95014285Y-102602438D01*
X95014285Y-102602438D02*
X94919047Y-102554819D01*
X94919047Y-102554819D02*
X94680952Y-102554819D01*
X94680952Y-102554819D02*
X94585714Y-102602438D01*
X94585714Y-102602438D02*
X94538095Y-102650057D01*
X94538095Y-102650057D02*
X94490476Y-102745295D01*
X94490476Y-102745295D02*
X94490476Y-102840533D01*
X94490476Y-102840533D02*
X94538095Y-102983390D01*
X94538095Y-102983390D02*
X95109523Y-103554819D01*
X95109523Y-103554819D02*
X94490476Y-103554819D01*
X93633333Y-102554819D02*
X93823809Y-102554819D01*
X93823809Y-102554819D02*
X93919047Y-102602438D01*
X93919047Y-102602438D02*
X93966666Y-102650057D01*
X93966666Y-102650057D02*
X94061904Y-102792914D01*
X94061904Y-102792914D02*
X94109523Y-102983390D01*
X94109523Y-102983390D02*
X94109523Y-103364342D01*
X94109523Y-103364342D02*
X94061904Y-103459580D01*
X94061904Y-103459580D02*
X94014285Y-103507200D01*
X94014285Y-103507200D02*
X93919047Y-103554819D01*
X93919047Y-103554819D02*
X93728571Y-103554819D01*
X93728571Y-103554819D02*
X93633333Y-103507200D01*
X93633333Y-103507200D02*
X93585714Y-103459580D01*
X93585714Y-103459580D02*
X93538095Y-103364342D01*
X93538095Y-103364342D02*
X93538095Y-103126247D01*
X93538095Y-103126247D02*
X93585714Y-103031009D01*
X93585714Y-103031009D02*
X93633333Y-102983390D01*
X93633333Y-102983390D02*
X93728571Y-102935771D01*
X93728571Y-102935771D02*
X93919047Y-102935771D01*
X93919047Y-102935771D02*
X94014285Y-102983390D01*
X94014285Y-102983390D02*
X94061904Y-103031009D01*
X94061904Y-103031009D02*
X94109523Y-103126247D01*
X154112295Y-99390476D02*
X154759914Y-99390476D01*
X154759914Y-99390476D02*
X154836104Y-99428571D01*
X154836104Y-99428571D02*
X154874200Y-99466666D01*
X154874200Y-99466666D02*
X154912295Y-99542857D01*
X154912295Y-99542857D02*
X154912295Y-99695238D01*
X154912295Y-99695238D02*
X154874200Y-99771428D01*
X154874200Y-99771428D02*
X154836104Y-99809523D01*
X154836104Y-99809523D02*
X154759914Y-99847619D01*
X154759914Y-99847619D02*
X154112295Y-99847619D01*
X154112295Y-100152380D02*
X154112295Y-100685714D01*
X154112295Y-100685714D02*
X154912295Y-100342856D01*
X163637295Y-80340476D02*
X164284914Y-80340476D01*
X164284914Y-80340476D02*
X164361104Y-80378571D01*
X164361104Y-80378571D02*
X164399200Y-80416666D01*
X164399200Y-80416666D02*
X164437295Y-80492857D01*
X164437295Y-80492857D02*
X164437295Y-80645238D01*
X164437295Y-80645238D02*
X164399200Y-80721428D01*
X164399200Y-80721428D02*
X164361104Y-80759523D01*
X164361104Y-80759523D02*
X164284914Y-80797619D01*
X164284914Y-80797619D02*
X163637295Y-80797619D01*
X164437295Y-81597618D02*
X164437295Y-81140475D01*
X164437295Y-81369047D02*
X163637295Y-81369047D01*
X163637295Y-81369047D02*
X163751580Y-81292856D01*
X163751580Y-81292856D02*
X163827771Y-81216666D01*
X163827771Y-81216666D02*
X163865866Y-81140475D01*
X106487295Y-79959524D02*
X107134914Y-79959524D01*
X107134914Y-79959524D02*
X107211104Y-79997619D01*
X107211104Y-79997619D02*
X107249200Y-80035714D01*
X107249200Y-80035714D02*
X107287295Y-80111905D01*
X107287295Y-80111905D02*
X107287295Y-80264286D01*
X107287295Y-80264286D02*
X107249200Y-80340476D01*
X107249200Y-80340476D02*
X107211104Y-80378571D01*
X107211104Y-80378571D02*
X107134914Y-80416667D01*
X107134914Y-80416667D02*
X106487295Y-80416667D01*
X107287295Y-81216666D02*
X107287295Y-80759523D01*
X107287295Y-80988095D02*
X106487295Y-80988095D01*
X106487295Y-80988095D02*
X106601580Y-80911904D01*
X106601580Y-80911904D02*
X106677771Y-80835714D01*
X106677771Y-80835714D02*
X106715866Y-80759523D01*
X107287295Y-81978571D02*
X107287295Y-81521428D01*
X107287295Y-81750000D02*
X106487295Y-81750000D01*
X106487295Y-81750000D02*
X106601580Y-81673809D01*
X106601580Y-81673809D02*
X106677771Y-81597619D01*
X106677771Y-81597619D02*
X106715866Y-81521428D01*
X142633332Y-83107200D02*
X142490475Y-83154819D01*
X142490475Y-83154819D02*
X142252380Y-83154819D01*
X142252380Y-83154819D02*
X142157142Y-83107200D01*
X142157142Y-83107200D02*
X142109523Y-83059580D01*
X142109523Y-83059580D02*
X142061904Y-82964342D01*
X142061904Y-82964342D02*
X142061904Y-82869104D01*
X142061904Y-82869104D02*
X142109523Y-82773866D01*
X142109523Y-82773866D02*
X142157142Y-82726247D01*
X142157142Y-82726247D02*
X142252380Y-82678628D01*
X142252380Y-82678628D02*
X142442856Y-82631009D01*
X142442856Y-82631009D02*
X142538094Y-82583390D01*
X142538094Y-82583390D02*
X142585713Y-82535771D01*
X142585713Y-82535771D02*
X142633332Y-82440533D01*
X142633332Y-82440533D02*
X142633332Y-82345295D01*
X142633332Y-82345295D02*
X142585713Y-82250057D01*
X142585713Y-82250057D02*
X142538094Y-82202438D01*
X142538094Y-82202438D02*
X142442856Y-82154819D01*
X142442856Y-82154819D02*
X142204761Y-82154819D01*
X142204761Y-82154819D02*
X142061904Y-82202438D01*
X141728570Y-82154819D02*
X141490475Y-83154819D01*
X141490475Y-83154819D02*
X141299999Y-82440533D01*
X141299999Y-82440533D02*
X141109523Y-83154819D01*
X141109523Y-83154819D02*
X140871428Y-82154819D01*
X139966666Y-83154819D02*
X140538094Y-83154819D01*
X140252380Y-83154819D02*
X140252380Y-82154819D01*
X140252380Y-82154819D02*
X140347618Y-82297676D01*
X140347618Y-82297676D02*
X140442856Y-82392914D01*
X140442856Y-82392914D02*
X140538094Y-82440533D01*
X161916666Y-78688319D02*
X162249999Y-78212128D01*
X162488094Y-78688319D02*
X162488094Y-77688319D01*
X162488094Y-77688319D02*
X162107142Y-77688319D01*
X162107142Y-77688319D02*
X162011904Y-77735938D01*
X162011904Y-77735938D02*
X161964285Y-77783557D01*
X161964285Y-77783557D02*
X161916666Y-77878795D01*
X161916666Y-77878795D02*
X161916666Y-78021652D01*
X161916666Y-78021652D02*
X161964285Y-78116890D01*
X161964285Y-78116890D02*
X162011904Y-78164509D01*
X162011904Y-78164509D02*
X162107142Y-78212128D01*
X162107142Y-78212128D02*
X162488094Y-78212128D01*
X161535713Y-77783557D02*
X161488094Y-77735938D01*
X161488094Y-77735938D02*
X161392856Y-77688319D01*
X161392856Y-77688319D02*
X161154761Y-77688319D01*
X161154761Y-77688319D02*
X161059523Y-77735938D01*
X161059523Y-77735938D02*
X161011904Y-77783557D01*
X161011904Y-77783557D02*
X160964285Y-77878795D01*
X160964285Y-77878795D02*
X160964285Y-77974033D01*
X160964285Y-77974033D02*
X161011904Y-78116890D01*
X161011904Y-78116890D02*
X161583332Y-78688319D01*
X161583332Y-78688319D02*
X160964285Y-78688319D01*
X201004819Y-72466666D02*
X201719104Y-72466666D01*
X201719104Y-72466666D02*
X201861961Y-72419047D01*
X201861961Y-72419047D02*
X201957200Y-72323809D01*
X201957200Y-72323809D02*
X202004819Y-72180952D01*
X202004819Y-72180952D02*
X202004819Y-72085714D01*
X201004819Y-73419047D02*
X201004819Y-72942857D01*
X201004819Y-72942857D02*
X201481009Y-72895238D01*
X201481009Y-72895238D02*
X201433390Y-72942857D01*
X201433390Y-72942857D02*
X201385771Y-73038095D01*
X201385771Y-73038095D02*
X201385771Y-73276190D01*
X201385771Y-73276190D02*
X201433390Y-73371428D01*
X201433390Y-73371428D02*
X201481009Y-73419047D01*
X201481009Y-73419047D02*
X201576247Y-73466666D01*
X201576247Y-73466666D02*
X201814342Y-73466666D01*
X201814342Y-73466666D02*
X201909580Y-73419047D01*
X201909580Y-73419047D02*
X201957200Y-73371428D01*
X201957200Y-73371428D02*
X202004819Y-73276190D01*
X202004819Y-73276190D02*
X202004819Y-73038095D01*
X202004819Y-73038095D02*
X201957200Y-72942857D01*
X201957200Y-72942857D02*
X201909580Y-72895238D01*
X136292857Y-77259580D02*
X136340476Y-77307200D01*
X136340476Y-77307200D02*
X136483333Y-77354819D01*
X136483333Y-77354819D02*
X136578571Y-77354819D01*
X136578571Y-77354819D02*
X136721428Y-77307200D01*
X136721428Y-77307200D02*
X136816666Y-77211961D01*
X136816666Y-77211961D02*
X136864285Y-77116723D01*
X136864285Y-77116723D02*
X136911904Y-76926247D01*
X136911904Y-76926247D02*
X136911904Y-76783390D01*
X136911904Y-76783390D02*
X136864285Y-76592914D01*
X136864285Y-76592914D02*
X136816666Y-76497676D01*
X136816666Y-76497676D02*
X136721428Y-76402438D01*
X136721428Y-76402438D02*
X136578571Y-76354819D01*
X136578571Y-76354819D02*
X136483333Y-76354819D01*
X136483333Y-76354819D02*
X136340476Y-76402438D01*
X136340476Y-76402438D02*
X136292857Y-76450057D01*
X135911904Y-76450057D02*
X135864285Y-76402438D01*
X135864285Y-76402438D02*
X135769047Y-76354819D01*
X135769047Y-76354819D02*
X135530952Y-76354819D01*
X135530952Y-76354819D02*
X135435714Y-76402438D01*
X135435714Y-76402438D02*
X135388095Y-76450057D01*
X135388095Y-76450057D02*
X135340476Y-76545295D01*
X135340476Y-76545295D02*
X135340476Y-76640533D01*
X135340476Y-76640533D02*
X135388095Y-76783390D01*
X135388095Y-76783390D02*
X135959523Y-77354819D01*
X135959523Y-77354819D02*
X135340476Y-77354819D01*
X134769047Y-76783390D02*
X134864285Y-76735771D01*
X134864285Y-76735771D02*
X134911904Y-76688152D01*
X134911904Y-76688152D02*
X134959523Y-76592914D01*
X134959523Y-76592914D02*
X134959523Y-76545295D01*
X134959523Y-76545295D02*
X134911904Y-76450057D01*
X134911904Y-76450057D02*
X134864285Y-76402438D01*
X134864285Y-76402438D02*
X134769047Y-76354819D01*
X134769047Y-76354819D02*
X134578571Y-76354819D01*
X134578571Y-76354819D02*
X134483333Y-76402438D01*
X134483333Y-76402438D02*
X134435714Y-76450057D01*
X134435714Y-76450057D02*
X134388095Y-76545295D01*
X134388095Y-76545295D02*
X134388095Y-76592914D01*
X134388095Y-76592914D02*
X134435714Y-76688152D01*
X134435714Y-76688152D02*
X134483333Y-76735771D01*
X134483333Y-76735771D02*
X134578571Y-76783390D01*
X134578571Y-76783390D02*
X134769047Y-76783390D01*
X134769047Y-76783390D02*
X134864285Y-76831009D01*
X134864285Y-76831009D02*
X134911904Y-76878628D01*
X134911904Y-76878628D02*
X134959523Y-76973866D01*
X134959523Y-76973866D02*
X134959523Y-77164342D01*
X134959523Y-77164342D02*
X134911904Y-77259580D01*
X134911904Y-77259580D02*
X134864285Y-77307200D01*
X134864285Y-77307200D02*
X134769047Y-77354819D01*
X134769047Y-77354819D02*
X134578571Y-77354819D01*
X134578571Y-77354819D02*
X134483333Y-77307200D01*
X134483333Y-77307200D02*
X134435714Y-77259580D01*
X134435714Y-77259580D02*
X134388095Y-77164342D01*
X134388095Y-77164342D02*
X134388095Y-76973866D01*
X134388095Y-76973866D02*
X134435714Y-76878628D01*
X134435714Y-76878628D02*
X134483333Y-76831009D01*
X134483333Y-76831009D02*
X134578571Y-76783390D01*
X113309580Y-79807142D02*
X113357200Y-79759523D01*
X113357200Y-79759523D02*
X113404819Y-79616666D01*
X113404819Y-79616666D02*
X113404819Y-79521428D01*
X113404819Y-79521428D02*
X113357200Y-79378571D01*
X113357200Y-79378571D02*
X113261961Y-79283333D01*
X113261961Y-79283333D02*
X113166723Y-79235714D01*
X113166723Y-79235714D02*
X112976247Y-79188095D01*
X112976247Y-79188095D02*
X112833390Y-79188095D01*
X112833390Y-79188095D02*
X112642914Y-79235714D01*
X112642914Y-79235714D02*
X112547676Y-79283333D01*
X112547676Y-79283333D02*
X112452438Y-79378571D01*
X112452438Y-79378571D02*
X112404819Y-79521428D01*
X112404819Y-79521428D02*
X112404819Y-79616666D01*
X112404819Y-79616666D02*
X112452438Y-79759523D01*
X112452438Y-79759523D02*
X112500057Y-79807142D01*
X112500057Y-80188095D02*
X112452438Y-80235714D01*
X112452438Y-80235714D02*
X112404819Y-80330952D01*
X112404819Y-80330952D02*
X112404819Y-80569047D01*
X112404819Y-80569047D02*
X112452438Y-80664285D01*
X112452438Y-80664285D02*
X112500057Y-80711904D01*
X112500057Y-80711904D02*
X112595295Y-80759523D01*
X112595295Y-80759523D02*
X112690533Y-80759523D01*
X112690533Y-80759523D02*
X112833390Y-80711904D01*
X112833390Y-80711904D02*
X113404819Y-80140476D01*
X113404819Y-80140476D02*
X113404819Y-80759523D01*
X112404819Y-81092857D02*
X112404819Y-81759523D01*
X112404819Y-81759523D02*
X113404819Y-81330952D01*
X114342857Y-103359580D02*
X114390476Y-103407200D01*
X114390476Y-103407200D02*
X114533333Y-103454819D01*
X114533333Y-103454819D02*
X114628571Y-103454819D01*
X114628571Y-103454819D02*
X114771428Y-103407200D01*
X114771428Y-103407200D02*
X114866666Y-103311961D01*
X114866666Y-103311961D02*
X114914285Y-103216723D01*
X114914285Y-103216723D02*
X114961904Y-103026247D01*
X114961904Y-103026247D02*
X114961904Y-102883390D01*
X114961904Y-102883390D02*
X114914285Y-102692914D01*
X114914285Y-102692914D02*
X114866666Y-102597676D01*
X114866666Y-102597676D02*
X114771428Y-102502438D01*
X114771428Y-102502438D02*
X114628571Y-102454819D01*
X114628571Y-102454819D02*
X114533333Y-102454819D01*
X114533333Y-102454819D02*
X114390476Y-102502438D01*
X114390476Y-102502438D02*
X114342857Y-102550057D01*
X113961904Y-102550057D02*
X113914285Y-102502438D01*
X113914285Y-102502438D02*
X113819047Y-102454819D01*
X113819047Y-102454819D02*
X113580952Y-102454819D01*
X113580952Y-102454819D02*
X113485714Y-102502438D01*
X113485714Y-102502438D02*
X113438095Y-102550057D01*
X113438095Y-102550057D02*
X113390476Y-102645295D01*
X113390476Y-102645295D02*
X113390476Y-102740533D01*
X113390476Y-102740533D02*
X113438095Y-102883390D01*
X113438095Y-102883390D02*
X114009523Y-103454819D01*
X114009523Y-103454819D02*
X113390476Y-103454819D01*
X112485714Y-102454819D02*
X112961904Y-102454819D01*
X112961904Y-102454819D02*
X113009523Y-102931009D01*
X113009523Y-102931009D02*
X112961904Y-102883390D01*
X112961904Y-102883390D02*
X112866666Y-102835771D01*
X112866666Y-102835771D02*
X112628571Y-102835771D01*
X112628571Y-102835771D02*
X112533333Y-102883390D01*
X112533333Y-102883390D02*
X112485714Y-102931009D01*
X112485714Y-102931009D02*
X112438095Y-103026247D01*
X112438095Y-103026247D02*
X112438095Y-103264342D01*
X112438095Y-103264342D02*
X112485714Y-103359580D01*
X112485714Y-103359580D02*
X112533333Y-103407200D01*
X112533333Y-103407200D02*
X112628571Y-103454819D01*
X112628571Y-103454819D02*
X112866666Y-103454819D01*
X112866666Y-103454819D02*
X112961904Y-103407200D01*
X112961904Y-103407200D02*
X113009523Y-103359580D01*
X133392857Y-103409580D02*
X133440476Y-103457200D01*
X133440476Y-103457200D02*
X133583333Y-103504819D01*
X133583333Y-103504819D02*
X133678571Y-103504819D01*
X133678571Y-103504819D02*
X133821428Y-103457200D01*
X133821428Y-103457200D02*
X133916666Y-103361961D01*
X133916666Y-103361961D02*
X133964285Y-103266723D01*
X133964285Y-103266723D02*
X134011904Y-103076247D01*
X134011904Y-103076247D02*
X134011904Y-102933390D01*
X134011904Y-102933390D02*
X133964285Y-102742914D01*
X133964285Y-102742914D02*
X133916666Y-102647676D01*
X133916666Y-102647676D02*
X133821428Y-102552438D01*
X133821428Y-102552438D02*
X133678571Y-102504819D01*
X133678571Y-102504819D02*
X133583333Y-102504819D01*
X133583333Y-102504819D02*
X133440476Y-102552438D01*
X133440476Y-102552438D02*
X133392857Y-102600057D01*
X133011904Y-102600057D02*
X132964285Y-102552438D01*
X132964285Y-102552438D02*
X132869047Y-102504819D01*
X132869047Y-102504819D02*
X132630952Y-102504819D01*
X132630952Y-102504819D02*
X132535714Y-102552438D01*
X132535714Y-102552438D02*
X132488095Y-102600057D01*
X132488095Y-102600057D02*
X132440476Y-102695295D01*
X132440476Y-102695295D02*
X132440476Y-102790533D01*
X132440476Y-102790533D02*
X132488095Y-102933390D01*
X132488095Y-102933390D02*
X133059523Y-103504819D01*
X133059523Y-103504819D02*
X132440476Y-103504819D01*
X131583333Y-102838152D02*
X131583333Y-103504819D01*
X131821428Y-102457200D02*
X132059523Y-103171485D01*
X132059523Y-103171485D02*
X131440476Y-103171485D01*
X152542857Y-103259580D02*
X152590476Y-103307200D01*
X152590476Y-103307200D02*
X152733333Y-103354819D01*
X152733333Y-103354819D02*
X152828571Y-103354819D01*
X152828571Y-103354819D02*
X152971428Y-103307200D01*
X152971428Y-103307200D02*
X153066666Y-103211961D01*
X153066666Y-103211961D02*
X153114285Y-103116723D01*
X153114285Y-103116723D02*
X153161904Y-102926247D01*
X153161904Y-102926247D02*
X153161904Y-102783390D01*
X153161904Y-102783390D02*
X153114285Y-102592914D01*
X153114285Y-102592914D02*
X153066666Y-102497676D01*
X153066666Y-102497676D02*
X152971428Y-102402438D01*
X152971428Y-102402438D02*
X152828571Y-102354819D01*
X152828571Y-102354819D02*
X152733333Y-102354819D01*
X152733333Y-102354819D02*
X152590476Y-102402438D01*
X152590476Y-102402438D02*
X152542857Y-102450057D01*
X152161904Y-102450057D02*
X152114285Y-102402438D01*
X152114285Y-102402438D02*
X152019047Y-102354819D01*
X152019047Y-102354819D02*
X151780952Y-102354819D01*
X151780952Y-102354819D02*
X151685714Y-102402438D01*
X151685714Y-102402438D02*
X151638095Y-102450057D01*
X151638095Y-102450057D02*
X151590476Y-102545295D01*
X151590476Y-102545295D02*
X151590476Y-102640533D01*
X151590476Y-102640533D02*
X151638095Y-102783390D01*
X151638095Y-102783390D02*
X152209523Y-103354819D01*
X152209523Y-103354819D02*
X151590476Y-103354819D01*
X151257142Y-102354819D02*
X150638095Y-102354819D01*
X150638095Y-102354819D02*
X150971428Y-102735771D01*
X150971428Y-102735771D02*
X150828571Y-102735771D01*
X150828571Y-102735771D02*
X150733333Y-102783390D01*
X150733333Y-102783390D02*
X150685714Y-102831009D01*
X150685714Y-102831009D02*
X150638095Y-102926247D01*
X150638095Y-102926247D02*
X150638095Y-103164342D01*
X150638095Y-103164342D02*
X150685714Y-103259580D01*
X150685714Y-103259580D02*
X150733333Y-103307200D01*
X150733333Y-103307200D02*
X150828571Y-103354819D01*
X150828571Y-103354819D02*
X151114285Y-103354819D01*
X151114285Y-103354819D02*
X151209523Y-103307200D01*
X151209523Y-103307200D02*
X151257142Y-103259580D01*
X171642857Y-103409580D02*
X171690476Y-103457200D01*
X171690476Y-103457200D02*
X171833333Y-103504819D01*
X171833333Y-103504819D02*
X171928571Y-103504819D01*
X171928571Y-103504819D02*
X172071428Y-103457200D01*
X172071428Y-103457200D02*
X172166666Y-103361961D01*
X172166666Y-103361961D02*
X172214285Y-103266723D01*
X172214285Y-103266723D02*
X172261904Y-103076247D01*
X172261904Y-103076247D02*
X172261904Y-102933390D01*
X172261904Y-102933390D02*
X172214285Y-102742914D01*
X172214285Y-102742914D02*
X172166666Y-102647676D01*
X172166666Y-102647676D02*
X172071428Y-102552438D01*
X172071428Y-102552438D02*
X171928571Y-102504819D01*
X171928571Y-102504819D02*
X171833333Y-102504819D01*
X171833333Y-102504819D02*
X171690476Y-102552438D01*
X171690476Y-102552438D02*
X171642857Y-102600057D01*
X171261904Y-102600057D02*
X171214285Y-102552438D01*
X171214285Y-102552438D02*
X171119047Y-102504819D01*
X171119047Y-102504819D02*
X170880952Y-102504819D01*
X170880952Y-102504819D02*
X170785714Y-102552438D01*
X170785714Y-102552438D02*
X170738095Y-102600057D01*
X170738095Y-102600057D02*
X170690476Y-102695295D01*
X170690476Y-102695295D02*
X170690476Y-102790533D01*
X170690476Y-102790533D02*
X170738095Y-102933390D01*
X170738095Y-102933390D02*
X171309523Y-103504819D01*
X171309523Y-103504819D02*
X170690476Y-103504819D01*
X170309523Y-102600057D02*
X170261904Y-102552438D01*
X170261904Y-102552438D02*
X170166666Y-102504819D01*
X170166666Y-102504819D02*
X169928571Y-102504819D01*
X169928571Y-102504819D02*
X169833333Y-102552438D01*
X169833333Y-102552438D02*
X169785714Y-102600057D01*
X169785714Y-102600057D02*
X169738095Y-102695295D01*
X169738095Y-102695295D02*
X169738095Y-102790533D01*
X169738095Y-102790533D02*
X169785714Y-102933390D01*
X169785714Y-102933390D02*
X170357142Y-103504819D01*
X170357142Y-103504819D02*
X169738095Y-103504819D01*
X190542857Y-105809580D02*
X190590476Y-105857200D01*
X190590476Y-105857200D02*
X190733333Y-105904819D01*
X190733333Y-105904819D02*
X190828571Y-105904819D01*
X190828571Y-105904819D02*
X190971428Y-105857200D01*
X190971428Y-105857200D02*
X191066666Y-105761961D01*
X191066666Y-105761961D02*
X191114285Y-105666723D01*
X191114285Y-105666723D02*
X191161904Y-105476247D01*
X191161904Y-105476247D02*
X191161904Y-105333390D01*
X191161904Y-105333390D02*
X191114285Y-105142914D01*
X191114285Y-105142914D02*
X191066666Y-105047676D01*
X191066666Y-105047676D02*
X190971428Y-104952438D01*
X190971428Y-104952438D02*
X190828571Y-104904819D01*
X190828571Y-104904819D02*
X190733333Y-104904819D01*
X190733333Y-104904819D02*
X190590476Y-104952438D01*
X190590476Y-104952438D02*
X190542857Y-105000057D01*
X190161904Y-105000057D02*
X190114285Y-104952438D01*
X190114285Y-104952438D02*
X190019047Y-104904819D01*
X190019047Y-104904819D02*
X189780952Y-104904819D01*
X189780952Y-104904819D02*
X189685714Y-104952438D01*
X189685714Y-104952438D02*
X189638095Y-105000057D01*
X189638095Y-105000057D02*
X189590476Y-105095295D01*
X189590476Y-105095295D02*
X189590476Y-105190533D01*
X189590476Y-105190533D02*
X189638095Y-105333390D01*
X189638095Y-105333390D02*
X190209523Y-105904819D01*
X190209523Y-105904819D02*
X189590476Y-105904819D01*
X188638095Y-105904819D02*
X189209523Y-105904819D01*
X188923809Y-105904819D02*
X188923809Y-104904819D01*
X188923809Y-104904819D02*
X189019047Y-105047676D01*
X189019047Y-105047676D02*
X189114285Y-105142914D01*
X189114285Y-105142914D02*
X189209523Y-105190533D01*
X209792857Y-95859580D02*
X209840476Y-95907200D01*
X209840476Y-95907200D02*
X209983333Y-95954819D01*
X209983333Y-95954819D02*
X210078571Y-95954819D01*
X210078571Y-95954819D02*
X210221428Y-95907200D01*
X210221428Y-95907200D02*
X210316666Y-95811961D01*
X210316666Y-95811961D02*
X210364285Y-95716723D01*
X210364285Y-95716723D02*
X210411904Y-95526247D01*
X210411904Y-95526247D02*
X210411904Y-95383390D01*
X210411904Y-95383390D02*
X210364285Y-95192914D01*
X210364285Y-95192914D02*
X210316666Y-95097676D01*
X210316666Y-95097676D02*
X210221428Y-95002438D01*
X210221428Y-95002438D02*
X210078571Y-94954819D01*
X210078571Y-94954819D02*
X209983333Y-94954819D01*
X209983333Y-94954819D02*
X209840476Y-95002438D01*
X209840476Y-95002438D02*
X209792857Y-95050057D01*
X209411904Y-95050057D02*
X209364285Y-95002438D01*
X209364285Y-95002438D02*
X209269047Y-94954819D01*
X209269047Y-94954819D02*
X209030952Y-94954819D01*
X209030952Y-94954819D02*
X208935714Y-95002438D01*
X208935714Y-95002438D02*
X208888095Y-95050057D01*
X208888095Y-95050057D02*
X208840476Y-95145295D01*
X208840476Y-95145295D02*
X208840476Y-95240533D01*
X208840476Y-95240533D02*
X208888095Y-95383390D01*
X208888095Y-95383390D02*
X209459523Y-95954819D01*
X209459523Y-95954819D02*
X208840476Y-95954819D01*
X208221428Y-94954819D02*
X208126190Y-94954819D01*
X208126190Y-94954819D02*
X208030952Y-95002438D01*
X208030952Y-95002438D02*
X207983333Y-95050057D01*
X207983333Y-95050057D02*
X207935714Y-95145295D01*
X207935714Y-95145295D02*
X207888095Y-95335771D01*
X207888095Y-95335771D02*
X207888095Y-95573866D01*
X207888095Y-95573866D02*
X207935714Y-95764342D01*
X207935714Y-95764342D02*
X207983333Y-95859580D01*
X207983333Y-95859580D02*
X208030952Y-95907200D01*
X208030952Y-95907200D02*
X208126190Y-95954819D01*
X208126190Y-95954819D02*
X208221428Y-95954819D01*
X208221428Y-95954819D02*
X208316666Y-95907200D01*
X208316666Y-95907200D02*
X208364285Y-95859580D01*
X208364285Y-95859580D02*
X208411904Y-95764342D01*
X208411904Y-95764342D02*
X208459523Y-95573866D01*
X208459523Y-95573866D02*
X208459523Y-95335771D01*
X208459523Y-95335771D02*
X208411904Y-95145295D01*
X208411904Y-95145295D02*
X208364285Y-95050057D01*
X208364285Y-95050057D02*
X208316666Y-95002438D01*
X208316666Y-95002438D02*
X208221428Y-94954819D01*
X210842857Y-75559580D02*
X210890476Y-75607200D01*
X210890476Y-75607200D02*
X211033333Y-75654819D01*
X211033333Y-75654819D02*
X211128571Y-75654819D01*
X211128571Y-75654819D02*
X211271428Y-75607200D01*
X211271428Y-75607200D02*
X211366666Y-75511961D01*
X211366666Y-75511961D02*
X211414285Y-75416723D01*
X211414285Y-75416723D02*
X211461904Y-75226247D01*
X211461904Y-75226247D02*
X211461904Y-75083390D01*
X211461904Y-75083390D02*
X211414285Y-74892914D01*
X211414285Y-74892914D02*
X211366666Y-74797676D01*
X211366666Y-74797676D02*
X211271428Y-74702438D01*
X211271428Y-74702438D02*
X211128571Y-74654819D01*
X211128571Y-74654819D02*
X211033333Y-74654819D01*
X211033333Y-74654819D02*
X210890476Y-74702438D01*
X210890476Y-74702438D02*
X210842857Y-74750057D01*
X209890476Y-75654819D02*
X210461904Y-75654819D01*
X210176190Y-75654819D02*
X210176190Y-74654819D01*
X210176190Y-74654819D02*
X210271428Y-74797676D01*
X210271428Y-74797676D02*
X210366666Y-74892914D01*
X210366666Y-74892914D02*
X210461904Y-74940533D01*
X209414285Y-75654819D02*
X209223809Y-75654819D01*
X209223809Y-75654819D02*
X209128571Y-75607200D01*
X209128571Y-75607200D02*
X209080952Y-75559580D01*
X209080952Y-75559580D02*
X208985714Y-75416723D01*
X208985714Y-75416723D02*
X208938095Y-75226247D01*
X208938095Y-75226247D02*
X208938095Y-74845295D01*
X208938095Y-74845295D02*
X208985714Y-74750057D01*
X208985714Y-74750057D02*
X209033333Y-74702438D01*
X209033333Y-74702438D02*
X209128571Y-74654819D01*
X209128571Y-74654819D02*
X209319047Y-74654819D01*
X209319047Y-74654819D02*
X209414285Y-74702438D01*
X209414285Y-74702438D02*
X209461904Y-74750057D01*
X209461904Y-74750057D02*
X209509523Y-74845295D01*
X209509523Y-74845295D02*
X209509523Y-75083390D01*
X209509523Y-75083390D02*
X209461904Y-75178628D01*
X209461904Y-75178628D02*
X209414285Y-75226247D01*
X209414285Y-75226247D02*
X209319047Y-75273866D01*
X209319047Y-75273866D02*
X209128571Y-75273866D01*
X209128571Y-75273866D02*
X209033333Y-75226247D01*
X209033333Y-75226247D02*
X208985714Y-75178628D01*
X208985714Y-75178628D02*
X208938095Y-75083390D01*
X189459580Y-79707142D02*
X189507200Y-79659523D01*
X189507200Y-79659523D02*
X189554819Y-79516666D01*
X189554819Y-79516666D02*
X189554819Y-79421428D01*
X189554819Y-79421428D02*
X189507200Y-79278571D01*
X189507200Y-79278571D02*
X189411961Y-79183333D01*
X189411961Y-79183333D02*
X189316723Y-79135714D01*
X189316723Y-79135714D02*
X189126247Y-79088095D01*
X189126247Y-79088095D02*
X188983390Y-79088095D01*
X188983390Y-79088095D02*
X188792914Y-79135714D01*
X188792914Y-79135714D02*
X188697676Y-79183333D01*
X188697676Y-79183333D02*
X188602438Y-79278571D01*
X188602438Y-79278571D02*
X188554819Y-79421428D01*
X188554819Y-79421428D02*
X188554819Y-79516666D01*
X188554819Y-79516666D02*
X188602438Y-79659523D01*
X188602438Y-79659523D02*
X188650057Y-79707142D01*
X189554819Y-80659523D02*
X189554819Y-80088095D01*
X189554819Y-80373809D02*
X188554819Y-80373809D01*
X188554819Y-80373809D02*
X188697676Y-80278571D01*
X188697676Y-80278571D02*
X188792914Y-80183333D01*
X188792914Y-80183333D02*
X188840533Y-80088095D01*
X188983390Y-81230952D02*
X188935771Y-81135714D01*
X188935771Y-81135714D02*
X188888152Y-81088095D01*
X188888152Y-81088095D02*
X188792914Y-81040476D01*
X188792914Y-81040476D02*
X188745295Y-81040476D01*
X188745295Y-81040476D02*
X188650057Y-81088095D01*
X188650057Y-81088095D02*
X188602438Y-81135714D01*
X188602438Y-81135714D02*
X188554819Y-81230952D01*
X188554819Y-81230952D02*
X188554819Y-81421428D01*
X188554819Y-81421428D02*
X188602438Y-81516666D01*
X188602438Y-81516666D02*
X188650057Y-81564285D01*
X188650057Y-81564285D02*
X188745295Y-81611904D01*
X188745295Y-81611904D02*
X188792914Y-81611904D01*
X188792914Y-81611904D02*
X188888152Y-81564285D01*
X188888152Y-81564285D02*
X188935771Y-81516666D01*
X188935771Y-81516666D02*
X188983390Y-81421428D01*
X188983390Y-81421428D02*
X188983390Y-81230952D01*
X188983390Y-81230952D02*
X189031009Y-81135714D01*
X189031009Y-81135714D02*
X189078628Y-81088095D01*
X189078628Y-81088095D02*
X189173866Y-81040476D01*
X189173866Y-81040476D02*
X189364342Y-81040476D01*
X189364342Y-81040476D02*
X189459580Y-81088095D01*
X189459580Y-81088095D02*
X189507200Y-81135714D01*
X189507200Y-81135714D02*
X189554819Y-81230952D01*
X189554819Y-81230952D02*
X189554819Y-81421428D01*
X189554819Y-81421428D02*
X189507200Y-81516666D01*
X189507200Y-81516666D02*
X189459580Y-81564285D01*
X189459580Y-81564285D02*
X189364342Y-81611904D01*
X189364342Y-81611904D02*
X189173866Y-81611904D01*
X189173866Y-81611904D02*
X189078628Y-81564285D01*
X189078628Y-81564285D02*
X189031009Y-81516666D01*
X189031009Y-81516666D02*
X188983390Y-81421428D01*
X172409580Y-75757142D02*
X172457200Y-75709523D01*
X172457200Y-75709523D02*
X172504819Y-75566666D01*
X172504819Y-75566666D02*
X172504819Y-75471428D01*
X172504819Y-75471428D02*
X172457200Y-75328571D01*
X172457200Y-75328571D02*
X172361961Y-75233333D01*
X172361961Y-75233333D02*
X172266723Y-75185714D01*
X172266723Y-75185714D02*
X172076247Y-75138095D01*
X172076247Y-75138095D02*
X171933390Y-75138095D01*
X171933390Y-75138095D02*
X171742914Y-75185714D01*
X171742914Y-75185714D02*
X171647676Y-75233333D01*
X171647676Y-75233333D02*
X171552438Y-75328571D01*
X171552438Y-75328571D02*
X171504819Y-75471428D01*
X171504819Y-75471428D02*
X171504819Y-75566666D01*
X171504819Y-75566666D02*
X171552438Y-75709523D01*
X171552438Y-75709523D02*
X171600057Y-75757142D01*
X172504819Y-76709523D02*
X172504819Y-76138095D01*
X172504819Y-76423809D02*
X171504819Y-76423809D01*
X171504819Y-76423809D02*
X171647676Y-76328571D01*
X171647676Y-76328571D02*
X171742914Y-76233333D01*
X171742914Y-76233333D02*
X171790533Y-76138095D01*
X171504819Y-77042857D02*
X171504819Y-77709523D01*
X171504819Y-77709523D02*
X172504819Y-77280952D01*
X191709580Y-85007142D02*
X191757200Y-84959523D01*
X191757200Y-84959523D02*
X191804819Y-84816666D01*
X191804819Y-84816666D02*
X191804819Y-84721428D01*
X191804819Y-84721428D02*
X191757200Y-84578571D01*
X191757200Y-84578571D02*
X191661961Y-84483333D01*
X191661961Y-84483333D02*
X191566723Y-84435714D01*
X191566723Y-84435714D02*
X191376247Y-84388095D01*
X191376247Y-84388095D02*
X191233390Y-84388095D01*
X191233390Y-84388095D02*
X191042914Y-84435714D01*
X191042914Y-84435714D02*
X190947676Y-84483333D01*
X190947676Y-84483333D02*
X190852438Y-84578571D01*
X190852438Y-84578571D02*
X190804819Y-84721428D01*
X190804819Y-84721428D02*
X190804819Y-84816666D01*
X190804819Y-84816666D02*
X190852438Y-84959523D01*
X190852438Y-84959523D02*
X190900057Y-85007142D01*
X191804819Y-85959523D02*
X191804819Y-85388095D01*
X191804819Y-85673809D02*
X190804819Y-85673809D01*
X190804819Y-85673809D02*
X190947676Y-85578571D01*
X190947676Y-85578571D02*
X191042914Y-85483333D01*
X191042914Y-85483333D02*
X191090533Y-85388095D01*
X190804819Y-86816666D02*
X190804819Y-86626190D01*
X190804819Y-86626190D02*
X190852438Y-86530952D01*
X190852438Y-86530952D02*
X190900057Y-86483333D01*
X190900057Y-86483333D02*
X191042914Y-86388095D01*
X191042914Y-86388095D02*
X191233390Y-86340476D01*
X191233390Y-86340476D02*
X191614342Y-86340476D01*
X191614342Y-86340476D02*
X191709580Y-86388095D01*
X191709580Y-86388095D02*
X191757200Y-86435714D01*
X191757200Y-86435714D02*
X191804819Y-86530952D01*
X191804819Y-86530952D02*
X191804819Y-86721428D01*
X191804819Y-86721428D02*
X191757200Y-86816666D01*
X191757200Y-86816666D02*
X191709580Y-86864285D01*
X191709580Y-86864285D02*
X191614342Y-86911904D01*
X191614342Y-86911904D02*
X191376247Y-86911904D01*
X191376247Y-86911904D02*
X191281009Y-86864285D01*
X191281009Y-86864285D02*
X191233390Y-86816666D01*
X191233390Y-86816666D02*
X191185771Y-86721428D01*
X191185771Y-86721428D02*
X191185771Y-86530952D01*
X191185771Y-86530952D02*
X191233390Y-86435714D01*
X191233390Y-86435714D02*
X191281009Y-86388095D01*
X191281009Y-86388095D02*
X191376247Y-86340476D01*
X197709580Y-81407142D02*
X197757200Y-81359523D01*
X197757200Y-81359523D02*
X197804819Y-81216666D01*
X197804819Y-81216666D02*
X197804819Y-81121428D01*
X197804819Y-81121428D02*
X197757200Y-80978571D01*
X197757200Y-80978571D02*
X197661961Y-80883333D01*
X197661961Y-80883333D02*
X197566723Y-80835714D01*
X197566723Y-80835714D02*
X197376247Y-80788095D01*
X197376247Y-80788095D02*
X197233390Y-80788095D01*
X197233390Y-80788095D02*
X197042914Y-80835714D01*
X197042914Y-80835714D02*
X196947676Y-80883333D01*
X196947676Y-80883333D02*
X196852438Y-80978571D01*
X196852438Y-80978571D02*
X196804819Y-81121428D01*
X196804819Y-81121428D02*
X196804819Y-81216666D01*
X196804819Y-81216666D02*
X196852438Y-81359523D01*
X196852438Y-81359523D02*
X196900057Y-81407142D01*
X197804819Y-82359523D02*
X197804819Y-81788095D01*
X197804819Y-82073809D02*
X196804819Y-82073809D01*
X196804819Y-82073809D02*
X196947676Y-81978571D01*
X196947676Y-81978571D02*
X197042914Y-81883333D01*
X197042914Y-81883333D02*
X197090533Y-81788095D01*
X196804819Y-83264285D02*
X196804819Y-82788095D01*
X196804819Y-82788095D02*
X197281009Y-82740476D01*
X197281009Y-82740476D02*
X197233390Y-82788095D01*
X197233390Y-82788095D02*
X197185771Y-82883333D01*
X197185771Y-82883333D02*
X197185771Y-83121428D01*
X197185771Y-83121428D02*
X197233390Y-83216666D01*
X197233390Y-83216666D02*
X197281009Y-83264285D01*
X197281009Y-83264285D02*
X197376247Y-83311904D01*
X197376247Y-83311904D02*
X197614342Y-83311904D01*
X197614342Y-83311904D02*
X197709580Y-83264285D01*
X197709580Y-83264285D02*
X197757200Y-83216666D01*
X197757200Y-83216666D02*
X197804819Y-83121428D01*
X197804819Y-83121428D02*
X197804819Y-82883333D01*
X197804819Y-82883333D02*
X197757200Y-82788095D01*
X197757200Y-82788095D02*
X197709580Y-82740476D01*
X173162295Y-99390476D02*
X173809914Y-99390476D01*
X173809914Y-99390476D02*
X173886104Y-99428571D01*
X173886104Y-99428571D02*
X173924200Y-99466666D01*
X173924200Y-99466666D02*
X173962295Y-99542857D01*
X173962295Y-99542857D02*
X173962295Y-99695238D01*
X173962295Y-99695238D02*
X173924200Y-99771428D01*
X173924200Y-99771428D02*
X173886104Y-99809523D01*
X173886104Y-99809523D02*
X173809914Y-99847619D01*
X173809914Y-99847619D02*
X173162295Y-99847619D01*
X173162295Y-100571428D02*
X173162295Y-100419047D01*
X173162295Y-100419047D02*
X173200390Y-100342856D01*
X173200390Y-100342856D02*
X173238485Y-100304761D01*
X173238485Y-100304761D02*
X173352771Y-100228571D01*
X173352771Y-100228571D02*
X173505152Y-100190475D01*
X173505152Y-100190475D02*
X173809914Y-100190475D01*
X173809914Y-100190475D02*
X173886104Y-100228571D01*
X173886104Y-100228571D02*
X173924200Y-100266666D01*
X173924200Y-100266666D02*
X173962295Y-100342856D01*
X173962295Y-100342856D02*
X173962295Y-100495237D01*
X173962295Y-100495237D02*
X173924200Y-100571428D01*
X173924200Y-100571428D02*
X173886104Y-100609523D01*
X173886104Y-100609523D02*
X173809914Y-100647618D01*
X173809914Y-100647618D02*
X173619438Y-100647618D01*
X173619438Y-100647618D02*
X173543247Y-100609523D01*
X173543247Y-100609523D02*
X173505152Y-100571428D01*
X173505152Y-100571428D02*
X173467057Y-100495237D01*
X173467057Y-100495237D02*
X173467057Y-100342856D01*
X173467057Y-100342856D02*
X173505152Y-100266666D01*
X173505152Y-100266666D02*
X173543247Y-100228571D01*
X173543247Y-100228571D02*
X173619438Y-100190475D01*
X207642857Y-83909580D02*
X207690476Y-83957200D01*
X207690476Y-83957200D02*
X207833333Y-84004819D01*
X207833333Y-84004819D02*
X207928571Y-84004819D01*
X207928571Y-84004819D02*
X208071428Y-83957200D01*
X208071428Y-83957200D02*
X208166666Y-83861961D01*
X208166666Y-83861961D02*
X208214285Y-83766723D01*
X208214285Y-83766723D02*
X208261904Y-83576247D01*
X208261904Y-83576247D02*
X208261904Y-83433390D01*
X208261904Y-83433390D02*
X208214285Y-83242914D01*
X208214285Y-83242914D02*
X208166666Y-83147676D01*
X208166666Y-83147676D02*
X208071428Y-83052438D01*
X208071428Y-83052438D02*
X207928571Y-83004819D01*
X207928571Y-83004819D02*
X207833333Y-83004819D01*
X207833333Y-83004819D02*
X207690476Y-83052438D01*
X207690476Y-83052438D02*
X207642857Y-83100057D01*
X206690476Y-84004819D02*
X207261904Y-84004819D01*
X206976190Y-84004819D02*
X206976190Y-83004819D01*
X206976190Y-83004819D02*
X207071428Y-83147676D01*
X207071428Y-83147676D02*
X207166666Y-83242914D01*
X207166666Y-83242914D02*
X207261904Y-83290533D01*
X205738095Y-84004819D02*
X206309523Y-84004819D01*
X206023809Y-84004819D02*
X206023809Y-83004819D01*
X206023809Y-83004819D02*
X206119047Y-83147676D01*
X206119047Y-83147676D02*
X206214285Y-83242914D01*
X206214285Y-83242914D02*
X206309523Y-83290533D01*
X149111904Y-89454819D02*
X149111904Y-90264342D01*
X149111904Y-90264342D02*
X149064285Y-90359580D01*
X149064285Y-90359580D02*
X149016666Y-90407200D01*
X149016666Y-90407200D02*
X148921428Y-90454819D01*
X148921428Y-90454819D02*
X148730952Y-90454819D01*
X148730952Y-90454819D02*
X148635714Y-90407200D01*
X148635714Y-90407200D02*
X148588095Y-90359580D01*
X148588095Y-90359580D02*
X148540476Y-90264342D01*
X148540476Y-90264342D02*
X148540476Y-89454819D01*
X147873809Y-89454819D02*
X147778571Y-89454819D01*
X147778571Y-89454819D02*
X147683333Y-89502438D01*
X147683333Y-89502438D02*
X147635714Y-89550057D01*
X147635714Y-89550057D02*
X147588095Y-89645295D01*
X147588095Y-89645295D02*
X147540476Y-89835771D01*
X147540476Y-89835771D02*
X147540476Y-90073866D01*
X147540476Y-90073866D02*
X147588095Y-90264342D01*
X147588095Y-90264342D02*
X147635714Y-90359580D01*
X147635714Y-90359580D02*
X147683333Y-90407200D01*
X147683333Y-90407200D02*
X147778571Y-90454819D01*
X147778571Y-90454819D02*
X147873809Y-90454819D01*
X147873809Y-90454819D02*
X147969047Y-90407200D01*
X147969047Y-90407200D02*
X148016666Y-90359580D01*
X148016666Y-90359580D02*
X148064285Y-90264342D01*
X148064285Y-90264342D02*
X148111904Y-90073866D01*
X148111904Y-90073866D02*
X148111904Y-89835771D01*
X148111904Y-89835771D02*
X148064285Y-89645295D01*
X148064285Y-89645295D02*
X148016666Y-89550057D01*
X148016666Y-89550057D02*
X147969047Y-89502438D01*
X147969047Y-89502438D02*
X147873809Y-89454819D01*
X160616666Y-102209580D02*
X160664285Y-102257200D01*
X160664285Y-102257200D02*
X160807142Y-102304819D01*
X160807142Y-102304819D02*
X160902380Y-102304819D01*
X160902380Y-102304819D02*
X161045237Y-102257200D01*
X161045237Y-102257200D02*
X161140475Y-102161961D01*
X161140475Y-102161961D02*
X161188094Y-102066723D01*
X161188094Y-102066723D02*
X161235713Y-101876247D01*
X161235713Y-101876247D02*
X161235713Y-101733390D01*
X161235713Y-101733390D02*
X161188094Y-101542914D01*
X161188094Y-101542914D02*
X161140475Y-101447676D01*
X161140475Y-101447676D02*
X161045237Y-101352438D01*
X161045237Y-101352438D02*
X160902380Y-101304819D01*
X160902380Y-101304819D02*
X160807142Y-101304819D01*
X160807142Y-101304819D02*
X160664285Y-101352438D01*
X160664285Y-101352438D02*
X160616666Y-101400057D01*
X159759523Y-101304819D02*
X159949999Y-101304819D01*
X159949999Y-101304819D02*
X160045237Y-101352438D01*
X160045237Y-101352438D02*
X160092856Y-101400057D01*
X160092856Y-101400057D02*
X160188094Y-101542914D01*
X160188094Y-101542914D02*
X160235713Y-101733390D01*
X160235713Y-101733390D02*
X160235713Y-102114342D01*
X160235713Y-102114342D02*
X160188094Y-102209580D01*
X160188094Y-102209580D02*
X160140475Y-102257200D01*
X160140475Y-102257200D02*
X160045237Y-102304819D01*
X160045237Y-102304819D02*
X159854761Y-102304819D01*
X159854761Y-102304819D02*
X159759523Y-102257200D01*
X159759523Y-102257200D02*
X159711904Y-102209580D01*
X159711904Y-102209580D02*
X159664285Y-102114342D01*
X159664285Y-102114342D02*
X159664285Y-101876247D01*
X159664285Y-101876247D02*
X159711904Y-101781009D01*
X159711904Y-101781009D02*
X159759523Y-101733390D01*
X159759523Y-101733390D02*
X159854761Y-101685771D01*
X159854761Y-101685771D02*
X160045237Y-101685771D01*
X160045237Y-101685771D02*
X160140475Y-101733390D01*
X160140475Y-101733390D02*
X160188094Y-101781009D01*
X160188094Y-101781009D02*
X160235713Y-101876247D01*
X130533333Y-88904819D02*
X130533333Y-89619104D01*
X130533333Y-89619104D02*
X130580952Y-89761961D01*
X130580952Y-89761961D02*
X130676190Y-89857200D01*
X130676190Y-89857200D02*
X130819047Y-89904819D01*
X130819047Y-89904819D02*
X130914285Y-89904819D01*
X130104761Y-89000057D02*
X130057142Y-88952438D01*
X130057142Y-88952438D02*
X129961904Y-88904819D01*
X129961904Y-88904819D02*
X129723809Y-88904819D01*
X129723809Y-88904819D02*
X129628571Y-88952438D01*
X129628571Y-88952438D02*
X129580952Y-89000057D01*
X129580952Y-89000057D02*
X129533333Y-89095295D01*
X129533333Y-89095295D02*
X129533333Y-89190533D01*
X129533333Y-89190533D02*
X129580952Y-89333390D01*
X129580952Y-89333390D02*
X130152380Y-89904819D01*
X130152380Y-89904819D02*
X129533333Y-89904819D01*
X116012295Y-99390476D02*
X116659914Y-99390476D01*
X116659914Y-99390476D02*
X116736104Y-99428571D01*
X116736104Y-99428571D02*
X116774200Y-99466666D01*
X116774200Y-99466666D02*
X116812295Y-99542857D01*
X116812295Y-99542857D02*
X116812295Y-99695238D01*
X116812295Y-99695238D02*
X116774200Y-99771428D01*
X116774200Y-99771428D02*
X116736104Y-99809523D01*
X116736104Y-99809523D02*
X116659914Y-99847619D01*
X116659914Y-99847619D02*
X116012295Y-99847619D01*
X116812295Y-100266666D02*
X116812295Y-100419047D01*
X116812295Y-100419047D02*
X116774200Y-100495237D01*
X116774200Y-100495237D02*
X116736104Y-100533333D01*
X116736104Y-100533333D02*
X116621819Y-100609523D01*
X116621819Y-100609523D02*
X116469438Y-100647618D01*
X116469438Y-100647618D02*
X116164676Y-100647618D01*
X116164676Y-100647618D02*
X116088485Y-100609523D01*
X116088485Y-100609523D02*
X116050390Y-100571428D01*
X116050390Y-100571428D02*
X116012295Y-100495237D01*
X116012295Y-100495237D02*
X116012295Y-100342856D01*
X116012295Y-100342856D02*
X116050390Y-100266666D01*
X116050390Y-100266666D02*
X116088485Y-100228571D01*
X116088485Y-100228571D02*
X116164676Y-100190475D01*
X116164676Y-100190475D02*
X116355152Y-100190475D01*
X116355152Y-100190475D02*
X116431342Y-100228571D01*
X116431342Y-100228571D02*
X116469438Y-100266666D01*
X116469438Y-100266666D02*
X116507533Y-100342856D01*
X116507533Y-100342856D02*
X116507533Y-100495237D01*
X116507533Y-100495237D02*
X116469438Y-100571428D01*
X116469438Y-100571428D02*
X116431342Y-100609523D01*
X116431342Y-100609523D02*
X116355152Y-100647618D01*
X187816666Y-83909580D02*
X187864285Y-83957200D01*
X187864285Y-83957200D02*
X188007142Y-84004819D01*
X188007142Y-84004819D02*
X188102380Y-84004819D01*
X188102380Y-84004819D02*
X188245237Y-83957200D01*
X188245237Y-83957200D02*
X188340475Y-83861961D01*
X188340475Y-83861961D02*
X188388094Y-83766723D01*
X188388094Y-83766723D02*
X188435713Y-83576247D01*
X188435713Y-83576247D02*
X188435713Y-83433390D01*
X188435713Y-83433390D02*
X188388094Y-83242914D01*
X188388094Y-83242914D02*
X188340475Y-83147676D01*
X188340475Y-83147676D02*
X188245237Y-83052438D01*
X188245237Y-83052438D02*
X188102380Y-83004819D01*
X188102380Y-83004819D02*
X188007142Y-83004819D01*
X188007142Y-83004819D02*
X187864285Y-83052438D01*
X187864285Y-83052438D02*
X187816666Y-83100057D01*
X187340475Y-84004819D02*
X187149999Y-84004819D01*
X187149999Y-84004819D02*
X187054761Y-83957200D01*
X187054761Y-83957200D02*
X187007142Y-83909580D01*
X187007142Y-83909580D02*
X186911904Y-83766723D01*
X186911904Y-83766723D02*
X186864285Y-83576247D01*
X186864285Y-83576247D02*
X186864285Y-83195295D01*
X186864285Y-83195295D02*
X186911904Y-83100057D01*
X186911904Y-83100057D02*
X186959523Y-83052438D01*
X186959523Y-83052438D02*
X187054761Y-83004819D01*
X187054761Y-83004819D02*
X187245237Y-83004819D01*
X187245237Y-83004819D02*
X187340475Y-83052438D01*
X187340475Y-83052438D02*
X187388094Y-83100057D01*
X187388094Y-83100057D02*
X187435713Y-83195295D01*
X187435713Y-83195295D02*
X187435713Y-83433390D01*
X187435713Y-83433390D02*
X187388094Y-83528628D01*
X187388094Y-83528628D02*
X187340475Y-83576247D01*
X187340475Y-83576247D02*
X187245237Y-83623866D01*
X187245237Y-83623866D02*
X187054761Y-83623866D01*
X187054761Y-83623866D02*
X186959523Y-83576247D01*
X186959523Y-83576247D02*
X186911904Y-83528628D01*
X186911904Y-83528628D02*
X186864285Y-83433390D01*
X111616666Y-84109580D02*
X111664285Y-84157200D01*
X111664285Y-84157200D02*
X111807142Y-84204819D01*
X111807142Y-84204819D02*
X111902380Y-84204819D01*
X111902380Y-84204819D02*
X112045237Y-84157200D01*
X112045237Y-84157200D02*
X112140475Y-84061961D01*
X112140475Y-84061961D02*
X112188094Y-83966723D01*
X112188094Y-83966723D02*
X112235713Y-83776247D01*
X112235713Y-83776247D02*
X112235713Y-83633390D01*
X112235713Y-83633390D02*
X112188094Y-83442914D01*
X112188094Y-83442914D02*
X112140475Y-83347676D01*
X112140475Y-83347676D02*
X112045237Y-83252438D01*
X112045237Y-83252438D02*
X111902380Y-83204819D01*
X111902380Y-83204819D02*
X111807142Y-83204819D01*
X111807142Y-83204819D02*
X111664285Y-83252438D01*
X111664285Y-83252438D02*
X111616666Y-83300057D01*
X111235713Y-83300057D02*
X111188094Y-83252438D01*
X111188094Y-83252438D02*
X111092856Y-83204819D01*
X111092856Y-83204819D02*
X110854761Y-83204819D01*
X110854761Y-83204819D02*
X110759523Y-83252438D01*
X110759523Y-83252438D02*
X110711904Y-83300057D01*
X110711904Y-83300057D02*
X110664285Y-83395295D01*
X110664285Y-83395295D02*
X110664285Y-83490533D01*
X110664285Y-83490533D02*
X110711904Y-83633390D01*
X110711904Y-83633390D02*
X111283332Y-84204819D01*
X111283332Y-84204819D02*
X110664285Y-84204819D01*
X162788094Y-92404819D02*
X162788094Y-93214342D01*
X162788094Y-93214342D02*
X162740475Y-93309580D01*
X162740475Y-93309580D02*
X162692856Y-93357200D01*
X162692856Y-93357200D02*
X162597618Y-93404819D01*
X162597618Y-93404819D02*
X162407142Y-93404819D01*
X162407142Y-93404819D02*
X162311904Y-93357200D01*
X162311904Y-93357200D02*
X162264285Y-93309580D01*
X162264285Y-93309580D02*
X162216666Y-93214342D01*
X162216666Y-93214342D02*
X162216666Y-92404819D01*
X161216666Y-93404819D02*
X161788094Y-93404819D01*
X161502380Y-93404819D02*
X161502380Y-92404819D01*
X161502380Y-92404819D02*
X161597618Y-92547676D01*
X161597618Y-92547676D02*
X161692856Y-92642914D01*
X161692856Y-92642914D02*
X161788094Y-92690533D01*
X160883332Y-92404819D02*
X160264285Y-92404819D01*
X160264285Y-92404819D02*
X160597618Y-92785771D01*
X160597618Y-92785771D02*
X160454761Y-92785771D01*
X160454761Y-92785771D02*
X160359523Y-92833390D01*
X160359523Y-92833390D02*
X160311904Y-92881009D01*
X160311904Y-92881009D02*
X160264285Y-92976247D01*
X160264285Y-92976247D02*
X160264285Y-93214342D01*
X160264285Y-93214342D02*
X160311904Y-93309580D01*
X160311904Y-93309580D02*
X160359523Y-93357200D01*
X160359523Y-93357200D02*
X160454761Y-93404819D01*
X160454761Y-93404819D02*
X160740475Y-93404819D01*
X160740475Y-93404819D02*
X160835713Y-93357200D01*
X160835713Y-93357200D02*
X160883332Y-93309580D01*
X169483333Y-91354819D02*
X169483333Y-92069104D01*
X169483333Y-92069104D02*
X169530952Y-92211961D01*
X169530952Y-92211961D02*
X169626190Y-92307200D01*
X169626190Y-92307200D02*
X169769047Y-92354819D01*
X169769047Y-92354819D02*
X169864285Y-92354819D01*
X169102380Y-91354819D02*
X168483333Y-91354819D01*
X168483333Y-91354819D02*
X168816666Y-91735771D01*
X168816666Y-91735771D02*
X168673809Y-91735771D01*
X168673809Y-91735771D02*
X168578571Y-91783390D01*
X168578571Y-91783390D02*
X168530952Y-91831009D01*
X168530952Y-91831009D02*
X168483333Y-91926247D01*
X168483333Y-91926247D02*
X168483333Y-92164342D01*
X168483333Y-92164342D02*
X168530952Y-92259580D01*
X168530952Y-92259580D02*
X168578571Y-92307200D01*
X168578571Y-92307200D02*
X168673809Y-92354819D01*
X168673809Y-92354819D02*
X168959523Y-92354819D01*
X168959523Y-92354819D02*
X169054761Y-92307200D01*
X169054761Y-92307200D02*
X169102380Y-92259580D01*
X96962295Y-99009524D02*
X97609914Y-99009524D01*
X97609914Y-99009524D02*
X97686104Y-99047619D01*
X97686104Y-99047619D02*
X97724200Y-99085714D01*
X97724200Y-99085714D02*
X97762295Y-99161905D01*
X97762295Y-99161905D02*
X97762295Y-99314286D01*
X97762295Y-99314286D02*
X97724200Y-99390476D01*
X97724200Y-99390476D02*
X97686104Y-99428571D01*
X97686104Y-99428571D02*
X97609914Y-99466667D01*
X97609914Y-99466667D02*
X96962295Y-99466667D01*
X97762295Y-100266666D02*
X97762295Y-99809523D01*
X97762295Y-100038095D02*
X96962295Y-100038095D01*
X96962295Y-100038095D02*
X97076580Y-99961904D01*
X97076580Y-99961904D02*
X97152771Y-99885714D01*
X97152771Y-99885714D02*
X97190866Y-99809523D01*
X96962295Y-100761905D02*
X96962295Y-100838095D01*
X96962295Y-100838095D02*
X97000390Y-100914286D01*
X97000390Y-100914286D02*
X97038485Y-100952381D01*
X97038485Y-100952381D02*
X97114676Y-100990476D01*
X97114676Y-100990476D02*
X97267057Y-101028571D01*
X97267057Y-101028571D02*
X97457533Y-101028571D01*
X97457533Y-101028571D02*
X97609914Y-100990476D01*
X97609914Y-100990476D02*
X97686104Y-100952381D01*
X97686104Y-100952381D02*
X97724200Y-100914286D01*
X97724200Y-100914286D02*
X97762295Y-100838095D01*
X97762295Y-100838095D02*
X97762295Y-100761905D01*
X97762295Y-100761905D02*
X97724200Y-100685714D01*
X97724200Y-100685714D02*
X97686104Y-100647619D01*
X97686104Y-100647619D02*
X97609914Y-100609524D01*
X97609914Y-100609524D02*
X97457533Y-100571428D01*
X97457533Y-100571428D02*
X97267057Y-100571428D01*
X97267057Y-100571428D02*
X97114676Y-100609524D01*
X97114676Y-100609524D02*
X97038485Y-100647619D01*
X97038485Y-100647619D02*
X97000390Y-100685714D01*
X97000390Y-100685714D02*
X96962295Y-100761905D01*
X199642857Y-102559580D02*
X199690476Y-102607200D01*
X199690476Y-102607200D02*
X199833333Y-102654819D01*
X199833333Y-102654819D02*
X199928571Y-102654819D01*
X199928571Y-102654819D02*
X200071428Y-102607200D01*
X200071428Y-102607200D02*
X200166666Y-102511961D01*
X200166666Y-102511961D02*
X200214285Y-102416723D01*
X200214285Y-102416723D02*
X200261904Y-102226247D01*
X200261904Y-102226247D02*
X200261904Y-102083390D01*
X200261904Y-102083390D02*
X200214285Y-101892914D01*
X200214285Y-101892914D02*
X200166666Y-101797676D01*
X200166666Y-101797676D02*
X200071428Y-101702438D01*
X200071428Y-101702438D02*
X199928571Y-101654819D01*
X199928571Y-101654819D02*
X199833333Y-101654819D01*
X199833333Y-101654819D02*
X199690476Y-101702438D01*
X199690476Y-101702438D02*
X199642857Y-101750057D01*
X198690476Y-102654819D02*
X199261904Y-102654819D01*
X198976190Y-102654819D02*
X198976190Y-101654819D01*
X198976190Y-101654819D02*
X199071428Y-101797676D01*
X199071428Y-101797676D02*
X199166666Y-101892914D01*
X199166666Y-101892914D02*
X199261904Y-101940533D01*
X198071428Y-101654819D02*
X197976190Y-101654819D01*
X197976190Y-101654819D02*
X197880952Y-101702438D01*
X197880952Y-101702438D02*
X197833333Y-101750057D01*
X197833333Y-101750057D02*
X197785714Y-101845295D01*
X197785714Y-101845295D02*
X197738095Y-102035771D01*
X197738095Y-102035771D02*
X197738095Y-102273866D01*
X197738095Y-102273866D02*
X197785714Y-102464342D01*
X197785714Y-102464342D02*
X197833333Y-102559580D01*
X197833333Y-102559580D02*
X197880952Y-102607200D01*
X197880952Y-102607200D02*
X197976190Y-102654819D01*
X197976190Y-102654819D02*
X198071428Y-102654819D01*
X198071428Y-102654819D02*
X198166666Y-102607200D01*
X198166666Y-102607200D02*
X198214285Y-102559580D01*
X198214285Y-102559580D02*
X198261904Y-102464342D01*
X198261904Y-102464342D02*
X198309523Y-102273866D01*
X198309523Y-102273866D02*
X198309523Y-102035771D01*
X198309523Y-102035771D02*
X198261904Y-101845295D01*
X198261904Y-101845295D02*
X198214285Y-101750057D01*
X198214285Y-101750057D02*
X198166666Y-101702438D01*
X198166666Y-101702438D02*
X198071428Y-101654819D01*
X103116666Y-102509580D02*
X103164285Y-102557200D01*
X103164285Y-102557200D02*
X103307142Y-102604819D01*
X103307142Y-102604819D02*
X103402380Y-102604819D01*
X103402380Y-102604819D02*
X103545237Y-102557200D01*
X103545237Y-102557200D02*
X103640475Y-102461961D01*
X103640475Y-102461961D02*
X103688094Y-102366723D01*
X103688094Y-102366723D02*
X103735713Y-102176247D01*
X103735713Y-102176247D02*
X103735713Y-102033390D01*
X103735713Y-102033390D02*
X103688094Y-101842914D01*
X103688094Y-101842914D02*
X103640475Y-101747676D01*
X103640475Y-101747676D02*
X103545237Y-101652438D01*
X103545237Y-101652438D02*
X103402380Y-101604819D01*
X103402380Y-101604819D02*
X103307142Y-101604819D01*
X103307142Y-101604819D02*
X103164285Y-101652438D01*
X103164285Y-101652438D02*
X103116666Y-101700057D01*
X102164285Y-102604819D02*
X102735713Y-102604819D01*
X102449999Y-102604819D02*
X102449999Y-101604819D01*
X102449999Y-101604819D02*
X102545237Y-101747676D01*
X102545237Y-101747676D02*
X102640475Y-101842914D01*
X102640475Y-101842914D02*
X102735713Y-101890533D01*
X130616666Y-83959580D02*
X130664285Y-84007200D01*
X130664285Y-84007200D02*
X130807142Y-84054819D01*
X130807142Y-84054819D02*
X130902380Y-84054819D01*
X130902380Y-84054819D02*
X131045237Y-84007200D01*
X131045237Y-84007200D02*
X131140475Y-83911961D01*
X131140475Y-83911961D02*
X131188094Y-83816723D01*
X131188094Y-83816723D02*
X131235713Y-83626247D01*
X131235713Y-83626247D02*
X131235713Y-83483390D01*
X131235713Y-83483390D02*
X131188094Y-83292914D01*
X131188094Y-83292914D02*
X131140475Y-83197676D01*
X131140475Y-83197676D02*
X131045237Y-83102438D01*
X131045237Y-83102438D02*
X130902380Y-83054819D01*
X130902380Y-83054819D02*
X130807142Y-83054819D01*
X130807142Y-83054819D02*
X130664285Y-83102438D01*
X130664285Y-83102438D02*
X130616666Y-83150057D01*
X129759523Y-83388152D02*
X129759523Y-84054819D01*
X129997618Y-83007200D02*
X130235713Y-83721485D01*
X130235713Y-83721485D02*
X129616666Y-83721485D01*
X169304819Y-87383333D02*
X168828628Y-87050000D01*
X169304819Y-86811905D02*
X168304819Y-86811905D01*
X168304819Y-86811905D02*
X168304819Y-87192857D01*
X168304819Y-87192857D02*
X168352438Y-87288095D01*
X168352438Y-87288095D02*
X168400057Y-87335714D01*
X168400057Y-87335714D02*
X168495295Y-87383333D01*
X168495295Y-87383333D02*
X168638152Y-87383333D01*
X168638152Y-87383333D02*
X168733390Y-87335714D01*
X168733390Y-87335714D02*
X168781009Y-87288095D01*
X168781009Y-87288095D02*
X168828628Y-87192857D01*
X168828628Y-87192857D02*
X168828628Y-86811905D01*
X169304819Y-88335714D02*
X169304819Y-87764286D01*
X169304819Y-88050000D02*
X168304819Y-88050000D01*
X168304819Y-88050000D02*
X168447676Y-87954762D01*
X168447676Y-87954762D02*
X168542914Y-87859524D01*
X168542914Y-87859524D02*
X168590533Y-87764286D01*
X168866666Y-83959580D02*
X168914285Y-84007200D01*
X168914285Y-84007200D02*
X169057142Y-84054819D01*
X169057142Y-84054819D02*
X169152380Y-84054819D01*
X169152380Y-84054819D02*
X169295237Y-84007200D01*
X169295237Y-84007200D02*
X169390475Y-83911961D01*
X169390475Y-83911961D02*
X169438094Y-83816723D01*
X169438094Y-83816723D02*
X169485713Y-83626247D01*
X169485713Y-83626247D02*
X169485713Y-83483390D01*
X169485713Y-83483390D02*
X169438094Y-83292914D01*
X169438094Y-83292914D02*
X169390475Y-83197676D01*
X169390475Y-83197676D02*
X169295237Y-83102438D01*
X169295237Y-83102438D02*
X169152380Y-83054819D01*
X169152380Y-83054819D02*
X169057142Y-83054819D01*
X169057142Y-83054819D02*
X168914285Y-83102438D01*
X168914285Y-83102438D02*
X168866666Y-83150057D01*
X168533332Y-83054819D02*
X167866666Y-83054819D01*
X167866666Y-83054819D02*
X168295237Y-84054819D01*
X122566666Y-102409580D02*
X122614285Y-102457200D01*
X122614285Y-102457200D02*
X122757142Y-102504819D01*
X122757142Y-102504819D02*
X122852380Y-102504819D01*
X122852380Y-102504819D02*
X122995237Y-102457200D01*
X122995237Y-102457200D02*
X123090475Y-102361961D01*
X123090475Y-102361961D02*
X123138094Y-102266723D01*
X123138094Y-102266723D02*
X123185713Y-102076247D01*
X123185713Y-102076247D02*
X123185713Y-101933390D01*
X123185713Y-101933390D02*
X123138094Y-101742914D01*
X123138094Y-101742914D02*
X123090475Y-101647676D01*
X123090475Y-101647676D02*
X122995237Y-101552438D01*
X122995237Y-101552438D02*
X122852380Y-101504819D01*
X122852380Y-101504819D02*
X122757142Y-101504819D01*
X122757142Y-101504819D02*
X122614285Y-101552438D01*
X122614285Y-101552438D02*
X122566666Y-101600057D01*
X122233332Y-101504819D02*
X121614285Y-101504819D01*
X121614285Y-101504819D02*
X121947618Y-101885771D01*
X121947618Y-101885771D02*
X121804761Y-101885771D01*
X121804761Y-101885771D02*
X121709523Y-101933390D01*
X121709523Y-101933390D02*
X121661904Y-101981009D01*
X121661904Y-101981009D02*
X121614285Y-102076247D01*
X121614285Y-102076247D02*
X121614285Y-102314342D01*
X121614285Y-102314342D02*
X121661904Y-102409580D01*
X121661904Y-102409580D02*
X121709523Y-102457200D01*
X121709523Y-102457200D02*
X121804761Y-102504819D01*
X121804761Y-102504819D02*
X122090475Y-102504819D01*
X122090475Y-102504819D02*
X122185713Y-102457200D01*
X122185713Y-102457200D02*
X122233332Y-102409580D01*
X141566666Y-102459580D02*
X141614285Y-102507200D01*
X141614285Y-102507200D02*
X141757142Y-102554819D01*
X141757142Y-102554819D02*
X141852380Y-102554819D01*
X141852380Y-102554819D02*
X141995237Y-102507200D01*
X141995237Y-102507200D02*
X142090475Y-102411961D01*
X142090475Y-102411961D02*
X142138094Y-102316723D01*
X142138094Y-102316723D02*
X142185713Y-102126247D01*
X142185713Y-102126247D02*
X142185713Y-101983390D01*
X142185713Y-101983390D02*
X142138094Y-101792914D01*
X142138094Y-101792914D02*
X142090475Y-101697676D01*
X142090475Y-101697676D02*
X141995237Y-101602438D01*
X141995237Y-101602438D02*
X141852380Y-101554819D01*
X141852380Y-101554819D02*
X141757142Y-101554819D01*
X141757142Y-101554819D02*
X141614285Y-101602438D01*
X141614285Y-101602438D02*
X141566666Y-101650057D01*
X140661904Y-101554819D02*
X141138094Y-101554819D01*
X141138094Y-101554819D02*
X141185713Y-102031009D01*
X141185713Y-102031009D02*
X141138094Y-101983390D01*
X141138094Y-101983390D02*
X141042856Y-101935771D01*
X141042856Y-101935771D02*
X140804761Y-101935771D01*
X140804761Y-101935771D02*
X140709523Y-101983390D01*
X140709523Y-101983390D02*
X140661904Y-102031009D01*
X140661904Y-102031009D02*
X140614285Y-102126247D01*
X140614285Y-102126247D02*
X140614285Y-102364342D01*
X140614285Y-102364342D02*
X140661904Y-102459580D01*
X140661904Y-102459580D02*
X140709523Y-102507200D01*
X140709523Y-102507200D02*
X140804761Y-102554819D01*
X140804761Y-102554819D02*
X141042856Y-102554819D01*
X141042856Y-102554819D02*
X141138094Y-102507200D01*
X141138094Y-102507200D02*
X141185713Y-102459580D01*
X179616666Y-102409580D02*
X179664285Y-102457200D01*
X179664285Y-102457200D02*
X179807142Y-102504819D01*
X179807142Y-102504819D02*
X179902380Y-102504819D01*
X179902380Y-102504819D02*
X180045237Y-102457200D01*
X180045237Y-102457200D02*
X180140475Y-102361961D01*
X180140475Y-102361961D02*
X180188094Y-102266723D01*
X180188094Y-102266723D02*
X180235713Y-102076247D01*
X180235713Y-102076247D02*
X180235713Y-101933390D01*
X180235713Y-101933390D02*
X180188094Y-101742914D01*
X180188094Y-101742914D02*
X180140475Y-101647676D01*
X180140475Y-101647676D02*
X180045237Y-101552438D01*
X180045237Y-101552438D02*
X179902380Y-101504819D01*
X179902380Y-101504819D02*
X179807142Y-101504819D01*
X179807142Y-101504819D02*
X179664285Y-101552438D01*
X179664285Y-101552438D02*
X179616666Y-101600057D01*
X179045237Y-101933390D02*
X179140475Y-101885771D01*
X179140475Y-101885771D02*
X179188094Y-101838152D01*
X179188094Y-101838152D02*
X179235713Y-101742914D01*
X179235713Y-101742914D02*
X179235713Y-101695295D01*
X179235713Y-101695295D02*
X179188094Y-101600057D01*
X179188094Y-101600057D02*
X179140475Y-101552438D01*
X179140475Y-101552438D02*
X179045237Y-101504819D01*
X179045237Y-101504819D02*
X178854761Y-101504819D01*
X178854761Y-101504819D02*
X178759523Y-101552438D01*
X178759523Y-101552438D02*
X178711904Y-101600057D01*
X178711904Y-101600057D02*
X178664285Y-101695295D01*
X178664285Y-101695295D02*
X178664285Y-101742914D01*
X178664285Y-101742914D02*
X178711904Y-101838152D01*
X178711904Y-101838152D02*
X178759523Y-101885771D01*
X178759523Y-101885771D02*
X178854761Y-101933390D01*
X178854761Y-101933390D02*
X179045237Y-101933390D01*
X179045237Y-101933390D02*
X179140475Y-101981009D01*
X179140475Y-101981009D02*
X179188094Y-102028628D01*
X179188094Y-102028628D02*
X179235713Y-102123866D01*
X179235713Y-102123866D02*
X179235713Y-102314342D01*
X179235713Y-102314342D02*
X179188094Y-102409580D01*
X179188094Y-102409580D02*
X179140475Y-102457200D01*
X179140475Y-102457200D02*
X179045237Y-102504819D01*
X179045237Y-102504819D02*
X178854761Y-102504819D01*
X178854761Y-102504819D02*
X178759523Y-102457200D01*
X178759523Y-102457200D02*
X178711904Y-102409580D01*
X178711904Y-102409580D02*
X178664285Y-102314342D01*
X178664285Y-102314342D02*
X178664285Y-102123866D01*
X178664285Y-102123866D02*
X178711904Y-102028628D01*
X178711904Y-102028628D02*
X178759523Y-101981009D01*
X178759523Y-101981009D02*
X178854761Y-101933390D01*
X192212295Y-99390476D02*
X192859914Y-99390476D01*
X192859914Y-99390476D02*
X192936104Y-99428571D01*
X192936104Y-99428571D02*
X192974200Y-99466666D01*
X192974200Y-99466666D02*
X193012295Y-99542857D01*
X193012295Y-99542857D02*
X193012295Y-99695238D01*
X193012295Y-99695238D02*
X192974200Y-99771428D01*
X192974200Y-99771428D02*
X192936104Y-99809523D01*
X192936104Y-99809523D02*
X192859914Y-99847619D01*
X192859914Y-99847619D02*
X192212295Y-99847619D01*
X192212295Y-100609523D02*
X192212295Y-100228571D01*
X192212295Y-100228571D02*
X192593247Y-100190475D01*
X192593247Y-100190475D02*
X192555152Y-100228571D01*
X192555152Y-100228571D02*
X192517057Y-100304761D01*
X192517057Y-100304761D02*
X192517057Y-100495237D01*
X192517057Y-100495237D02*
X192555152Y-100571428D01*
X192555152Y-100571428D02*
X192593247Y-100609523D01*
X192593247Y-100609523D02*
X192669438Y-100647618D01*
X192669438Y-100647618D02*
X192859914Y-100647618D01*
X192859914Y-100647618D02*
X192936104Y-100609523D01*
X192936104Y-100609523D02*
X192974200Y-100571428D01*
X192974200Y-100571428D02*
X193012295Y-100495237D01*
X193012295Y-100495237D02*
X193012295Y-100304761D01*
X193012295Y-100304761D02*
X192974200Y-100228571D01*
X192974200Y-100228571D02*
X192936104Y-100190475D01*
X217442857Y-103059580D02*
X217490476Y-103107200D01*
X217490476Y-103107200D02*
X217633333Y-103154819D01*
X217633333Y-103154819D02*
X217728571Y-103154819D01*
X217728571Y-103154819D02*
X217871428Y-103107200D01*
X217871428Y-103107200D02*
X217966666Y-103011961D01*
X217966666Y-103011961D02*
X218014285Y-102916723D01*
X218014285Y-102916723D02*
X218061904Y-102726247D01*
X218061904Y-102726247D02*
X218061904Y-102583390D01*
X218061904Y-102583390D02*
X218014285Y-102392914D01*
X218014285Y-102392914D02*
X217966666Y-102297676D01*
X217966666Y-102297676D02*
X217871428Y-102202438D01*
X217871428Y-102202438D02*
X217728571Y-102154819D01*
X217728571Y-102154819D02*
X217633333Y-102154819D01*
X217633333Y-102154819D02*
X217490476Y-102202438D01*
X217490476Y-102202438D02*
X217442857Y-102250057D01*
X216490476Y-103154819D02*
X217061904Y-103154819D01*
X216776190Y-103154819D02*
X216776190Y-102154819D01*
X216776190Y-102154819D02*
X216871428Y-102297676D01*
X216871428Y-102297676D02*
X216966666Y-102392914D01*
X216966666Y-102392914D02*
X217061904Y-102440533D01*
X216109523Y-102250057D02*
X216061904Y-102202438D01*
X216061904Y-102202438D02*
X215966666Y-102154819D01*
X215966666Y-102154819D02*
X215728571Y-102154819D01*
X215728571Y-102154819D02*
X215633333Y-102202438D01*
X215633333Y-102202438D02*
X215585714Y-102250057D01*
X215585714Y-102250057D02*
X215538095Y-102345295D01*
X215538095Y-102345295D02*
X215538095Y-102440533D01*
X215538095Y-102440533D02*
X215585714Y-102583390D01*
X215585714Y-102583390D02*
X216157142Y-103154819D01*
X216157142Y-103154819D02*
X215538095Y-103154819D01*
X135062295Y-99390476D02*
X135709914Y-99390476D01*
X135709914Y-99390476D02*
X135786104Y-99428571D01*
X135786104Y-99428571D02*
X135824200Y-99466666D01*
X135824200Y-99466666D02*
X135862295Y-99542857D01*
X135862295Y-99542857D02*
X135862295Y-99695238D01*
X135862295Y-99695238D02*
X135824200Y-99771428D01*
X135824200Y-99771428D02*
X135786104Y-99809523D01*
X135786104Y-99809523D02*
X135709914Y-99847619D01*
X135709914Y-99847619D02*
X135062295Y-99847619D01*
X135405152Y-100342856D02*
X135367057Y-100266666D01*
X135367057Y-100266666D02*
X135328961Y-100228571D01*
X135328961Y-100228571D02*
X135252771Y-100190475D01*
X135252771Y-100190475D02*
X135214676Y-100190475D01*
X135214676Y-100190475D02*
X135138485Y-100228571D01*
X135138485Y-100228571D02*
X135100390Y-100266666D01*
X135100390Y-100266666D02*
X135062295Y-100342856D01*
X135062295Y-100342856D02*
X135062295Y-100495237D01*
X135062295Y-100495237D02*
X135100390Y-100571428D01*
X135100390Y-100571428D02*
X135138485Y-100609523D01*
X135138485Y-100609523D02*
X135214676Y-100647618D01*
X135214676Y-100647618D02*
X135252771Y-100647618D01*
X135252771Y-100647618D02*
X135328961Y-100609523D01*
X135328961Y-100609523D02*
X135367057Y-100571428D01*
X135367057Y-100571428D02*
X135405152Y-100495237D01*
X135405152Y-100495237D02*
X135405152Y-100342856D01*
X135405152Y-100342856D02*
X135443247Y-100266666D01*
X135443247Y-100266666D02*
X135481342Y-100228571D01*
X135481342Y-100228571D02*
X135557533Y-100190475D01*
X135557533Y-100190475D02*
X135709914Y-100190475D01*
X135709914Y-100190475D02*
X135786104Y-100228571D01*
X135786104Y-100228571D02*
X135824200Y-100266666D01*
X135824200Y-100266666D02*
X135862295Y-100342856D01*
X135862295Y-100342856D02*
X135862295Y-100495237D01*
X135862295Y-100495237D02*
X135824200Y-100571428D01*
X135824200Y-100571428D02*
X135786104Y-100609523D01*
X135786104Y-100609523D02*
X135709914Y-100647618D01*
X135709914Y-100647618D02*
X135557533Y-100647618D01*
X135557533Y-100647618D02*
X135481342Y-100609523D01*
X135481342Y-100609523D02*
X135443247Y-100571428D01*
X135443247Y-100571428D02*
X135405152Y-100495237D01*
X182687295Y-80340476D02*
X183334914Y-80340476D01*
X183334914Y-80340476D02*
X183411104Y-80378571D01*
X183411104Y-80378571D02*
X183449200Y-80416666D01*
X183449200Y-80416666D02*
X183487295Y-80492857D01*
X183487295Y-80492857D02*
X183487295Y-80645238D01*
X183487295Y-80645238D02*
X183449200Y-80721428D01*
X183449200Y-80721428D02*
X183411104Y-80759523D01*
X183411104Y-80759523D02*
X183334914Y-80797619D01*
X183334914Y-80797619D02*
X182687295Y-80797619D01*
X182763485Y-81140475D02*
X182725390Y-81178571D01*
X182725390Y-81178571D02*
X182687295Y-81254761D01*
X182687295Y-81254761D02*
X182687295Y-81445237D01*
X182687295Y-81445237D02*
X182725390Y-81521428D01*
X182725390Y-81521428D02*
X182763485Y-81559523D01*
X182763485Y-81559523D02*
X182839676Y-81597618D01*
X182839676Y-81597618D02*
X182915866Y-81597618D01*
X182915866Y-81597618D02*
X183030152Y-81559523D01*
X183030152Y-81559523D02*
X183487295Y-81102380D01*
X183487295Y-81102380D02*
X183487295Y-81597618D01*
%TO.C,D12*%
D11*
X125200000Y-77875000D02*
X132500000Y-77875000D01*
X125200000Y-74850000D02*
X125200000Y-77875000D01*
X125200000Y-74850000D02*
X125925000Y-74125000D01*
X132500000Y-77875000D02*
X132500000Y-74125000D01*
X132500000Y-74125000D02*
X125925000Y-74125000D01*
X126125000Y-74550000D02*
X125975000Y-74350000D01*
X126275000Y-74350000D01*
X126125000Y-74550000D01*
G36*
X126125000Y-74550000D02*
G01*
X125975000Y-74350000D01*
X126275000Y-74350000D01*
X126125000Y-74550000D01*
G37*
%TO.C,D11*%
X105850000Y-77925000D02*
X113150000Y-77925000D01*
X105850000Y-74900000D02*
X105850000Y-77925000D01*
X105850000Y-74900000D02*
X106575000Y-74175000D01*
X113150000Y-77925000D02*
X113150000Y-74175000D01*
X113150000Y-74175000D02*
X106575000Y-74175000D01*
X106775000Y-74600000D02*
X106625000Y-74400000D01*
X106925000Y-74400000D01*
X106775000Y-74600000D01*
G36*
X106775000Y-74600000D02*
G01*
X106625000Y-74400000D01*
X106925000Y-74400000D01*
X106775000Y-74600000D01*
G37*
%TO.C,D10*%
X103650000Y-103025000D02*
X96350000Y-103025000D01*
X103650000Y-106050000D02*
X103650000Y-103025000D01*
X103650000Y-106050000D02*
X102925000Y-106775000D01*
X96350000Y-103025000D02*
X96350000Y-106775000D01*
X96350000Y-106775000D02*
X102925000Y-106775000D01*
X102875000Y-106550000D02*
X102575000Y-106550000D01*
X102725000Y-106350000D01*
X102875000Y-106550000D01*
G36*
X102875000Y-106550000D02*
G01*
X102575000Y-106550000D01*
X102725000Y-106350000D01*
X102875000Y-106550000D01*
G37*
%TO.C,D9*%
X122750000Y-103025000D02*
X115450000Y-103025000D01*
X122750000Y-106050000D02*
X122750000Y-103025000D01*
X122750000Y-106050000D02*
X122025000Y-106775000D01*
X115450000Y-103025000D02*
X115450000Y-106775000D01*
X115450000Y-106775000D02*
X122025000Y-106775000D01*
X121975000Y-106550000D02*
X121675000Y-106550000D01*
X121825000Y-106350000D01*
X121975000Y-106550000D01*
G36*
X121975000Y-106550000D02*
G01*
X121675000Y-106550000D01*
X121825000Y-106350000D01*
X121975000Y-106550000D01*
G37*
%TO.C,D8*%
X141800000Y-103075000D02*
X134500000Y-103075000D01*
X141800000Y-106100000D02*
X141800000Y-103075000D01*
X141800000Y-106100000D02*
X141075000Y-106825000D01*
X134500000Y-103075000D02*
X134500000Y-106825000D01*
X134500000Y-106825000D02*
X141075000Y-106825000D01*
X141025000Y-106600000D02*
X140725000Y-106600000D01*
X140875000Y-106400000D01*
X141025000Y-106600000D01*
G36*
X141025000Y-106600000D02*
G01*
X140725000Y-106600000D01*
X140875000Y-106400000D01*
X141025000Y-106600000D01*
G37*
%TO.C,D7*%
X160750000Y-102975000D02*
X153450000Y-102975000D01*
X160750000Y-106000000D02*
X160750000Y-102975000D01*
X160750000Y-106000000D02*
X160025000Y-106725000D01*
X153450000Y-102975000D02*
X153450000Y-106725000D01*
X153450000Y-106725000D02*
X160025000Y-106725000D01*
X159975000Y-106500000D02*
X159675000Y-106500000D01*
X159825000Y-106300000D01*
X159975000Y-106500000D01*
G36*
X159975000Y-106500000D02*
G01*
X159675000Y-106500000D01*
X159825000Y-106300000D01*
X159975000Y-106500000D01*
G37*
%TO.C,D6*%
X179900000Y-103075000D02*
X172600000Y-103075000D01*
X179900000Y-106100000D02*
X179900000Y-103075000D01*
X179900000Y-106100000D02*
X179175000Y-106825000D01*
X172600000Y-103075000D02*
X172600000Y-106825000D01*
X172600000Y-106825000D02*
X179175000Y-106825000D01*
X179125000Y-106600000D02*
X178825000Y-106600000D01*
X178975000Y-106400000D01*
X179125000Y-106600000D01*
G36*
X179125000Y-106600000D02*
G01*
X178825000Y-106600000D01*
X178975000Y-106400000D01*
X179125000Y-106600000D01*
G37*
%TO.C,D5*%
X198800000Y-103125000D02*
X191500000Y-103125000D01*
X198800000Y-106150000D02*
X198800000Y-103125000D01*
X198800000Y-106150000D02*
X198075000Y-106875000D01*
X191500000Y-103125000D02*
X191500000Y-106875000D01*
X191500000Y-106875000D02*
X198075000Y-106875000D01*
X198025000Y-106650000D02*
X197725000Y-106650000D01*
X197875000Y-106450000D01*
X198025000Y-106650000D01*
G36*
X198025000Y-106650000D02*
G01*
X197725000Y-106650000D01*
X197875000Y-106450000D01*
X198025000Y-106650000D01*
G37*
%TO.C,D4*%
X217900000Y-93225000D02*
X210600000Y-93225000D01*
X217900000Y-96250000D02*
X217900000Y-93225000D01*
X217900000Y-96250000D02*
X217175000Y-96975000D01*
X210600000Y-93225000D02*
X210600000Y-96975000D01*
X210600000Y-96975000D02*
X217175000Y-96975000D01*
X217125000Y-96750000D02*
X216825000Y-96750000D01*
X216975000Y-96550000D01*
X217125000Y-96750000D01*
G36*
X217125000Y-96750000D02*
G01*
X216825000Y-96750000D01*
X216975000Y-96550000D01*
X217125000Y-96750000D01*
G37*
%TO.C,D3*%
X201050000Y-77875000D02*
X208350000Y-77875000D01*
X201050000Y-74850000D02*
X201050000Y-77875000D01*
X201050000Y-74850000D02*
X201775000Y-74125000D01*
X208350000Y-77875000D02*
X208350000Y-74125000D01*
X208350000Y-74125000D02*
X201775000Y-74125000D01*
X201975000Y-74550000D02*
X201825000Y-74350000D01*
X202125000Y-74350000D01*
X201975000Y-74550000D01*
G36*
X201975000Y-74550000D02*
G01*
X201825000Y-74350000D01*
X202125000Y-74350000D01*
X201975000Y-74550000D01*
G37*
%TO.C,D2*%
X182000000Y-77925000D02*
X189300000Y-77925000D01*
X182000000Y-74900000D02*
X182000000Y-77925000D01*
X182000000Y-74900000D02*
X182725000Y-74175000D01*
X189300000Y-77925000D02*
X189300000Y-74175000D01*
X189300000Y-74175000D02*
X182725000Y-74175000D01*
X182925000Y-74600000D02*
X182775000Y-74400000D01*
X183075000Y-74400000D01*
X182925000Y-74600000D01*
G36*
X182925000Y-74600000D02*
G01*
X182775000Y-74400000D01*
X183075000Y-74400000D01*
X182925000Y-74600000D01*
G37*
%TO.C,D1*%
X163050000Y-78025000D02*
X170350000Y-78025000D01*
X163050000Y-75000000D02*
X163050000Y-78025000D01*
X163050000Y-75000000D02*
X163775000Y-74275000D01*
X170350000Y-78025000D02*
X170350000Y-74275000D01*
X170350000Y-74275000D02*
X163775000Y-74275000D01*
X163975000Y-74700000D02*
X163825000Y-74500000D01*
X164125000Y-74500000D01*
X163975000Y-74700000D01*
G36*
X163975000Y-74700000D02*
G01*
X163825000Y-74500000D01*
X164125000Y-74500000D01*
X163975000Y-74700000D01*
G37*
%TO.C,U3*%
X203852500Y-82790000D02*
X203372500Y-82790000D01*
X203612500Y-82460000D01*
X203852500Y-82790000D01*
G36*
X203852500Y-82790000D02*
G01*
X203372500Y-82790000D01*
X203612500Y-82460000D01*
X203852500Y-82790000D01*
G37*
X204775000Y-82510000D02*
X205425000Y-82510000D01*
X204775000Y-82510000D02*
X204125000Y-82510000D01*
X204775000Y-79390000D02*
X205425000Y-79390000D01*
X204775000Y-79390000D02*
X204125000Y-79390000D01*
%TO.C,J1*%
X115450000Y-78200000D02*
G75*
G02*
X115050000Y-78200000I-200000J0D01*
G01*
X115050000Y-78200000D02*
G75*
G02*
X115450000Y-78200000I200000J0D01*
G01*
X124250000Y-77500000D02*
X122250000Y-77500000D01*
X124250000Y-77500000D02*
X124250000Y-77000000D01*
X116250000Y-77500000D02*
X114250000Y-77500000D01*
X114250000Y-77500000D02*
X114250000Y-77000000D01*
X122500000Y-72750000D02*
X122500000Y-72500000D01*
X122000000Y-72750000D02*
X122500000Y-72750000D01*
X116500000Y-72750000D02*
X116500000Y-72500000D01*
X116000000Y-72750000D02*
X116500000Y-72750000D01*
X124250000Y-72500000D02*
X124250000Y-73000000D01*
X122500000Y-72500000D02*
X124250000Y-72500000D01*
X122000000Y-72500000D02*
X122000000Y-72750000D01*
X116500000Y-72500000D02*
X122000000Y-72500000D01*
X116000000Y-72500000D02*
X116000000Y-72750000D01*
X114250000Y-72500000D02*
X114250000Y-73000000D01*
X114250000Y-72500000D02*
X116000000Y-72500000D01*
%TO.C,U12*%
X127652500Y-82790000D02*
X127172500Y-82790000D01*
X127412500Y-82460000D01*
X127652500Y-82790000D01*
G36*
X127652500Y-82790000D02*
G01*
X127172500Y-82790000D01*
X127412500Y-82460000D01*
X127652500Y-82790000D01*
G37*
X128575000Y-82510000D02*
X129225000Y-82510000D01*
X128575000Y-82510000D02*
X127925000Y-82510000D01*
X128575000Y-79390000D02*
X129225000Y-79390000D01*
X128575000Y-79390000D02*
X127925000Y-79390000D01*
%TO.C,C14*%
X120605000Y-82980000D02*
X120605000Y-87075000D01*
X118695000Y-82980000D02*
X120605000Y-82980000D01*
X118695000Y-87075000D02*
X118695000Y-82980000D01*
%TO.C,C13*%
X116395000Y-84325000D02*
X116395000Y-80230000D01*
X116395000Y-80230000D02*
X118305000Y-80230000D01*
X118305000Y-80230000D02*
X118305000Y-84325000D01*
%TO.C,U4*%
X213377500Y-101840000D02*
X212897500Y-101840000D01*
X213137500Y-101510000D01*
X213377500Y-101840000D01*
G36*
X213377500Y-101840000D02*
G01*
X212897500Y-101840000D01*
X213137500Y-101510000D01*
X213377500Y-101840000D01*
G37*
X214300000Y-101560000D02*
X214950000Y-101560000D01*
X214300000Y-101560000D02*
X213650000Y-101560000D01*
X214300000Y-98440000D02*
X214950000Y-98440000D01*
X214300000Y-98440000D02*
X213650000Y-98440000D01*
%TO.C,R3*%
X134700000Y-74800000D02*
X134700000Y-75800000D01*
X134700000Y-75800000D02*
X132800000Y-75800000D01*
X132800000Y-74800000D02*
X134700000Y-74800000D01*
X132800000Y-75800000D02*
X132800000Y-74800000D01*
%TO.C,U7*%
X157150000Y-98440000D02*
X156500000Y-98440000D01*
X157150000Y-98440000D02*
X157800000Y-98440000D01*
X157150000Y-101560000D02*
X156500000Y-101560000D01*
X157150000Y-101560000D02*
X157800000Y-101560000D01*
X156227500Y-101840000D02*
X155747500Y-101840000D01*
X155987500Y-101510000D01*
X156227500Y-101840000D01*
G36*
X156227500Y-101840000D02*
G01*
X155747500Y-101840000D01*
X155987500Y-101510000D01*
X156227500Y-101840000D01*
G37*
%TO.C,U1*%
X165752500Y-82790000D02*
X165272500Y-82790000D01*
X165512500Y-82460000D01*
X165752500Y-82790000D01*
G36*
X165752500Y-82790000D02*
G01*
X165272500Y-82790000D01*
X165512500Y-82460000D01*
X165752500Y-82790000D01*
G37*
X166675000Y-82510000D02*
X167325000Y-82510000D01*
X166675000Y-82510000D02*
X166025000Y-82510000D01*
X166675000Y-79390000D02*
X167325000Y-79390000D01*
X166675000Y-79390000D02*
X166025000Y-79390000D01*
%TO.C,U11*%
X108602500Y-82790000D02*
X108122500Y-82790000D01*
X108362500Y-82460000D01*
X108602500Y-82790000D01*
G36*
X108602500Y-82790000D02*
G01*
X108122500Y-82790000D01*
X108362500Y-82460000D01*
X108602500Y-82790000D01*
G37*
X109525000Y-82510000D02*
X110175000Y-82510000D01*
X109525000Y-82510000D02*
X108875000Y-82510000D01*
X109525000Y-79390000D02*
X110175000Y-79390000D01*
X109525000Y-79390000D02*
X108875000Y-79390000D01*
%TO.C,SW1*%
X144050000Y-84540000D02*
X144050000Y-83157000D01*
X144050000Y-84540000D02*
X145433000Y-84540000D01*
X144290000Y-75000000D02*
X151110000Y-75000000D01*
X144290000Y-76310000D02*
X144290000Y-75000000D01*
X144290000Y-78850000D02*
X144290000Y-77910000D01*
X144290000Y-81390000D02*
X144290000Y-80450000D01*
X144290000Y-84300000D02*
X144290000Y-82990000D01*
X144290000Y-84300000D02*
X151110000Y-84300000D01*
X147096667Y-77745000D02*
X147096667Y-76475000D01*
X147096667Y-80285000D02*
X147096667Y-79015000D01*
X147096667Y-82825000D02*
X147096667Y-81555000D01*
X151110000Y-76310000D02*
X151110000Y-75000000D01*
X151110000Y-78850000D02*
X151110000Y-77910000D01*
X151110000Y-81390000D02*
X151110000Y-80450000D01*
X151110000Y-84300000D02*
X151110000Y-82990000D01*
X145890000Y-76475000D02*
X147096667Y-76475000D01*
X147096667Y-77745000D01*
X145890000Y-77745000D01*
X145890000Y-76475000D01*
G36*
X145890000Y-76475000D02*
G01*
X147096667Y-76475000D01*
X147096667Y-77745000D01*
X145890000Y-77745000D01*
X145890000Y-76475000D01*
G37*
X145890000Y-76475000D02*
X149510000Y-76475000D01*
X149510000Y-77745000D01*
X145890000Y-77745000D01*
X145890000Y-76475000D01*
X145890000Y-79015000D02*
X147096667Y-79015000D01*
X147096667Y-80285000D01*
X145890000Y-80285000D01*
X145890000Y-79015000D01*
G36*
X145890000Y-79015000D02*
G01*
X147096667Y-79015000D01*
X147096667Y-80285000D01*
X145890000Y-80285000D01*
X145890000Y-79015000D01*
G37*
X145890000Y-79015000D02*
X149510000Y-79015000D01*
X149510000Y-80285000D01*
X145890000Y-80285000D01*
X145890000Y-79015000D01*
X145890000Y-81555000D02*
X147096667Y-81555000D01*
X147096667Y-82825000D01*
X145890000Y-82825000D01*
X145890000Y-81555000D01*
G36*
X145890000Y-81555000D02*
G01*
X147096667Y-81555000D01*
X147096667Y-82825000D01*
X145890000Y-82825000D01*
X145890000Y-81555000D01*
G37*
X145890000Y-81555000D02*
X149510000Y-81555000D01*
X149510000Y-82825000D01*
X145890000Y-82825000D01*
X145890000Y-81555000D01*
%TO.C,J4*%
D12*
X156800000Y-74650000D02*
X154200000Y-74650000D01*
X156800000Y-74650000D02*
X156800000Y-77250000D01*
X154200000Y-74650000D02*
X154200000Y-75250000D01*
X154200000Y-76650000D02*
X154200000Y-79250000D01*
X156800000Y-78650000D02*
X156800000Y-81250000D01*
X154200000Y-80650000D02*
X154200000Y-83250000D01*
X156800000Y-82650000D02*
X156800000Y-85250000D01*
X156800000Y-85250000D02*
X154200000Y-85250000D01*
X154200000Y-85250000D02*
X154200000Y-84650000D01*
%TO.C,R2*%
D11*
X160800000Y-77400000D02*
X160800000Y-76400000D01*
X160800000Y-76400000D02*
X162700000Y-76400000D01*
X162700000Y-77400000D02*
X160800000Y-77400000D01*
X162700000Y-76400000D02*
X162700000Y-77400000D01*
%TO.C,J5*%
X190250000Y-72600000D02*
X192000000Y-72600000D01*
X190250000Y-72600000D02*
X190250000Y-73100000D01*
X192000000Y-72600000D02*
X192000000Y-72850000D01*
X192500000Y-72600000D02*
X198000000Y-72600000D01*
X198000000Y-72600000D02*
X198000000Y-72850000D01*
X198500000Y-72600000D02*
X200250000Y-72600000D01*
X200250000Y-72600000D02*
X200250000Y-73100000D01*
X192000000Y-72850000D02*
X192500000Y-72850000D01*
X192500000Y-72850000D02*
X192500000Y-72600000D01*
X198000000Y-72850000D02*
X198500000Y-72850000D01*
X198500000Y-72850000D02*
X198500000Y-72600000D01*
X190250000Y-77600000D02*
X190250000Y-77100000D01*
X192250000Y-77600000D02*
X190250000Y-77600000D01*
X200250000Y-77600000D02*
X200250000Y-77100000D01*
X200250000Y-77600000D02*
X198250000Y-77600000D01*
X191450000Y-78300000D02*
G75*
G02*
X191050000Y-78300000I-200000J0D01*
G01*
X191050000Y-78300000D02*
G75*
G02*
X191450000Y-78300000I200000J0D01*
G01*
%TO.C,C16*%
X192145000Y-83155000D02*
X194055000Y-83155000D01*
X194055000Y-83155000D02*
X194055000Y-87250000D01*
X192145000Y-87250000D02*
X192145000Y-83155000D01*
%TO.C,C15*%
X194345000Y-80255000D02*
X196255000Y-80255000D01*
X196255000Y-80255000D02*
X196255000Y-84350000D01*
X194345000Y-84350000D02*
X194345000Y-80255000D01*
%TO.C,U6*%
X176200000Y-98440000D02*
X175550000Y-98440000D01*
X176200000Y-98440000D02*
X176850000Y-98440000D01*
X176200000Y-101560000D02*
X175550000Y-101560000D01*
X176200000Y-101560000D02*
X176850000Y-101560000D01*
X175277500Y-101840000D02*
X174797500Y-101840000D01*
X175037500Y-101510000D01*
X175277500Y-101840000D01*
G36*
X175277500Y-101840000D02*
G01*
X174797500Y-101840000D01*
X175037500Y-101510000D01*
X175277500Y-101840000D01*
G37*
%TO.C,U0*%
X144740000Y-86390000D02*
X144740000Y-86840000D01*
X144740000Y-93160000D02*
X144740000Y-93610000D01*
X144740000Y-93610000D02*
X145190000Y-93610000D01*
X145190000Y-86390000D02*
X144740000Y-86390000D01*
X151510000Y-93610000D02*
X151960000Y-93610000D01*
X151960000Y-86390000D02*
X151510000Y-86390000D01*
X151960000Y-86840000D02*
X151960000Y-86390000D01*
X151960000Y-93610000D02*
X151960000Y-93160000D01*
X152600000Y-86840000D02*
X152260000Y-86370000D01*
X152940000Y-86370000D01*
X152600000Y-86840000D01*
G36*
X152600000Y-86840000D02*
G01*
X152260000Y-86370000D01*
X152940000Y-86370000D01*
X152600000Y-86840000D01*
G37*
%TO.C,J2*%
X131350000Y-84100000D02*
X131850000Y-84100000D01*
X131350000Y-85850000D02*
X131350000Y-84100000D01*
X131350000Y-86350000D02*
X131600000Y-86350000D01*
X131350000Y-93850000D02*
X131350000Y-86350000D01*
X131350000Y-94350000D02*
X131600000Y-94350000D01*
X131350000Y-96100000D02*
X131350000Y-94350000D01*
X131350000Y-96100000D02*
X131850000Y-96100000D01*
X131600000Y-85850000D02*
X131350000Y-85850000D01*
X131600000Y-86350000D02*
X131600000Y-85850000D01*
X131600000Y-93850000D02*
X131350000Y-93850000D01*
X131600000Y-94350000D02*
X131600000Y-93850000D01*
X136350000Y-84100000D02*
X135850000Y-84100000D01*
X136350000Y-84100000D02*
X136350000Y-86100000D01*
X136350000Y-94100000D02*
X136350000Y-96100000D01*
X136350000Y-96100000D02*
X135850000Y-96100000D01*
X137250000Y-95100000D02*
G75*
G02*
X136850000Y-95100000I-200000J0D01*
G01*
X136850000Y-95100000D02*
G75*
G02*
X137250000Y-95100000I200000J0D01*
G01*
%TO.C,U9*%
X119050000Y-98440000D02*
X118400000Y-98440000D01*
X119050000Y-98440000D02*
X119700000Y-98440000D01*
X119050000Y-101560000D02*
X118400000Y-101560000D01*
X119050000Y-101560000D02*
X119700000Y-101560000D01*
X118127500Y-101840000D02*
X117647500Y-101840000D01*
X117887500Y-101510000D01*
X118127500Y-101840000D01*
G36*
X118127500Y-101840000D02*
G01*
X117647500Y-101840000D01*
X117887500Y-101510000D01*
X118127500Y-101840000D01*
G37*
%TO.C,U13*%
X159490000Y-86990000D02*
X159490000Y-87085000D01*
X159490000Y-92015000D02*
X159490000Y-92110000D01*
X159490000Y-92110000D02*
X163610000Y-92110000D01*
X163610000Y-86990000D02*
X159490000Y-86990000D01*
X163610000Y-87085000D02*
X163610000Y-86990000D01*
X163610000Y-92110000D02*
X163610000Y-92015000D01*
X159190000Y-92350000D02*
X158710000Y-92350000D01*
X158950000Y-92020000D01*
X159190000Y-92350000D01*
G36*
X159190000Y-92350000D02*
G01*
X158710000Y-92350000D01*
X158950000Y-92020000D01*
X159190000Y-92350000D01*
G37*
%TO.C,JP1*%
D13*
X165626000Y-88962000D02*
X165626000Y-87438000D01*
X165880000Y-89216000D02*
X167607200Y-89216000D01*
X167607200Y-87184000D02*
X165880000Y-87184000D01*
X167861200Y-88962000D02*
X167861200Y-87438000D01*
X165626000Y-87438000D02*
G75*
G02*
X165880000Y-87184000I254000J0D01*
G01*
X165880000Y-89216000D02*
G75*
G02*
X165626000Y-88962000I0J254000D01*
G01*
X167607200Y-87184000D02*
G75*
G02*
X167861200Y-87438000I0J-254000D01*
G01*
X167861200Y-88962000D02*
G75*
G02*
X167607200Y-89216000I-254000J0D01*
G01*
%TO.C,J3*%
D11*
X172875000Y-82700000D02*
X173375000Y-82700000D01*
X172875000Y-84700000D02*
X172875000Y-82700000D01*
X172875000Y-94700000D02*
X172875000Y-92700000D01*
X172875000Y-94700000D02*
X173375000Y-94700000D01*
X177625000Y-84450000D02*
X177625000Y-84950000D01*
X177625000Y-84950000D02*
X177875000Y-84950000D01*
X177625000Y-92450000D02*
X177625000Y-92950000D01*
X177625000Y-92950000D02*
X177875000Y-92950000D01*
X177875000Y-82700000D02*
X177375000Y-82700000D01*
X177875000Y-82700000D02*
X177875000Y-84450000D01*
X177875000Y-84450000D02*
X177625000Y-84450000D01*
X177875000Y-84950000D02*
X177875000Y-92450000D01*
X177875000Y-92450000D02*
X177625000Y-92450000D01*
X177875000Y-92950000D02*
X177875000Y-94700000D01*
X177875000Y-94700000D02*
X177375000Y-94700000D01*
X172375000Y-83700000D02*
G75*
G02*
X171975000Y-83700000I-200000J0D01*
G01*
X171975000Y-83700000D02*
G75*
G02*
X172375000Y-83700000I200000J0D01*
G01*
%TO.C,U10*%
X100000000Y-98440000D02*
X99350000Y-98440000D01*
X100000000Y-98440000D02*
X100650000Y-98440000D01*
X100000000Y-101560000D02*
X99350000Y-101560000D01*
X100000000Y-101560000D02*
X100650000Y-101560000D01*
X99077500Y-101840000D02*
X98597500Y-101840000D01*
X98837500Y-101510000D01*
X99077500Y-101840000D01*
G36*
X99077500Y-101840000D02*
G01*
X98597500Y-101840000D01*
X98837500Y-101510000D01*
X99077500Y-101840000D01*
G37*
%TO.C,R1*%
D14*
X168400000Y-88750000D02*
X169200000Y-88750000D01*
X168400000Y-90250000D02*
X168400000Y-88750000D01*
X169200000Y-88750000D02*
X169200000Y-90250000D01*
X169200000Y-90250000D02*
X168400000Y-90250000D01*
%TO.C,U5*%
D11*
X195250000Y-98440000D02*
X194600000Y-98440000D01*
X195250000Y-98440000D02*
X195900000Y-98440000D01*
X195250000Y-101560000D02*
X194600000Y-101560000D01*
X195250000Y-101560000D02*
X195900000Y-101560000D01*
X194327500Y-101840000D02*
X193847500Y-101840000D01*
X194087500Y-101510000D01*
X194327500Y-101840000D01*
G36*
X194327500Y-101840000D02*
G01*
X193847500Y-101840000D01*
X194087500Y-101510000D01*
X194327500Y-101840000D01*
G37*
%TO.C,U8*%
X138100000Y-98440000D02*
X137450000Y-98440000D01*
X138100000Y-98440000D02*
X138750000Y-98440000D01*
X138100000Y-101560000D02*
X137450000Y-101560000D01*
X138100000Y-101560000D02*
X138750000Y-101560000D01*
X137177500Y-101840000D02*
X136697500Y-101840000D01*
X136937500Y-101510000D01*
X137177500Y-101840000D01*
G36*
X137177500Y-101840000D02*
G01*
X136697500Y-101840000D01*
X136937500Y-101510000D01*
X137177500Y-101840000D01*
G37*
%TO.C,U2*%
X185725000Y-79390000D02*
X185075000Y-79390000D01*
X185725000Y-79390000D02*
X186375000Y-79390000D01*
X185725000Y-82510000D02*
X185075000Y-82510000D01*
X185725000Y-82510000D02*
X186375000Y-82510000D01*
X184802500Y-82790000D02*
X184322500Y-82790000D01*
X184562500Y-82460000D01*
X184802500Y-82790000D01*
G36*
X184802500Y-82790000D02*
G01*
X184322500Y-82790000D01*
X184562500Y-82460000D01*
X184802500Y-82790000D01*
G37*
%TD*%
M02*
