%TF.GenerationSoftware,KiCad,Pcbnew,10.0.1*%
%TF.CreationDate,2026-06-18T16:13:49+08:00*%
%TF.ProjectId,Octave-HE,4f637461-7665-42d4-9845-2e6b69636164,rev?*%
%TF.SameCoordinates,Original*%
%TF.FileFunction,Copper,L2,Bot*%
%TF.FilePolarity,Positive*%
%FSLAX46Y46*%
G04 Gerber Fmt 4.6, Leading zero omitted, Abs format (unit mm)*
G04 Created by KiCad (PCBNEW 10.0.1) date 2026-06-18 16:13:49*
%MOMM*%
%LPD*%
G01*
G04 APERTURE LIST*
G04 Aperture macros list*
%AMRoundRect*
0 Rectangle with rounded corners*
0 $1 Rounding radius*
0 $2 $3 $4 $5 $6 $7 $8 $9 X,Y pos of 4 corners*
0 Add a 4 corners polygon primitive as box body*
4,1,4,$2,$3,$4,$5,$6,$7,$8,$9,$2,$3,0*
0 Add four circle primitives for the rounded corners*
1,1,$1+$1,$2,$3*
1,1,$1+$1,$4,$5*
1,1,$1+$1,$6,$7*
1,1,$1+$1,$8,$9*
0 Add four rect primitives between the rounded corners*
20,1,$1+$1,$2,$3,$4,$5,0*
20,1,$1+$1,$4,$5,$6,$7,0*
20,1,$1+$1,$6,$7,$8,$9,0*
20,1,$1+$1,$8,$9,$2,$3,0*%
G04 Aperture macros list end*
%TA.AperFunction,Conductor*%
%ADD10C,0.200000*%
%TD*%
%TA.AperFunction,SMDPad,CuDef*%
%ADD11RoundRect,0.205000X-0.470000X-0.205000X0.470000X-0.205000X0.470000X0.205000X-0.470000X0.205000X0*%
%TD*%
%TA.AperFunction,SMDPad,CuDef*%
%ADD12RoundRect,0.205000X0.470000X0.205000X-0.470000X0.205000X-0.470000X-0.205000X0.470000X-0.205000X0*%
%TD*%
%TA.AperFunction,ComponentPad*%
%ADD13C,0.600000*%
%TD*%
%TA.AperFunction,SMDPad,CuDef*%
%ADD14RoundRect,0.150000X-0.587500X-0.150000X0.587500X-0.150000X0.587500X0.150000X-0.587500X0.150000X0*%
%TD*%
%TA.AperFunction,SMDPad,CuDef*%
%ADD15R,1.200000X5.700000*%
%TD*%
%TA.AperFunction,SMDPad,CuDef*%
%ADD16R,1.800000X3.200000*%
%TD*%
%TA.AperFunction,SMDPad,CuDef*%
%ADD17RoundRect,0.250000X-0.445000X0.545000X-0.445000X-0.545000X0.445000X-0.545000X0.445000X0.545000X0*%
%TD*%
%TA.AperFunction,SMDPad,CuDef*%
%ADD18RoundRect,0.135000X-0.135000X-0.185000X0.135000X-0.185000X0.135000X0.185000X-0.135000X0.185000X0*%
%TD*%
%TA.AperFunction,SMDPad,CuDef*%
%ADD19RoundRect,0.100000X-0.130000X-0.100000X0.130000X-0.100000X0.130000X0.100000X-0.130000X0.100000X0*%
%TD*%
%TA.AperFunction,SMDPad,CuDef*%
%ADD20RoundRect,0.250000X-0.830000X-0.310000X0.830000X-0.310000X0.830000X0.310000X-0.830000X0.310000X0*%
%TD*%
%TA.AperFunction,SMDPad,CuDef*%
%ADD21RoundRect,0.212500X0.637500X-0.212500X0.637500X0.212500X-0.637500X0.212500X-0.637500X-0.212500X0*%
%TD*%
%TA.AperFunction,SMDPad,CuDef*%
%ADD22RoundRect,0.100000X0.130000X0.100000X-0.130000X0.100000X-0.130000X-0.100000X0.130000X-0.100000X0*%
%TD*%
%TA.AperFunction,SMDPad,CuDef*%
%ADD23RoundRect,0.100000X-0.100000X0.130000X-0.100000X-0.130000X0.100000X-0.130000X0.100000X0.130000X0*%
%TD*%
%TA.AperFunction,SMDPad,CuDef*%
%ADD24RoundRect,0.075000X0.662500X0.075000X-0.662500X0.075000X-0.662500X-0.075000X0.662500X-0.075000X0*%
%TD*%
%TA.AperFunction,SMDPad,CuDef*%
%ADD25RoundRect,0.075000X0.075000X0.662500X-0.075000X0.662500X-0.075000X-0.662500X0.075000X-0.662500X0*%
%TD*%
%TA.AperFunction,SMDPad,CuDef*%
%ADD26R,3.200000X1.800000*%
%TD*%
%TA.AperFunction,SMDPad,CuDef*%
%ADD27R,5.700000X1.200000*%
%TD*%
%TA.AperFunction,SMDPad,CuDef*%
%ADD28RoundRect,0.150000X-0.825000X-0.150000X0.825000X-0.150000X0.825000X0.150000X-0.825000X0.150000X0*%
%TD*%
%TA.AperFunction,SMDPad,CuDef*%
%ADD29R,0.635000X1.270000*%
%TD*%
%TA.AperFunction,SMDPad,CuDef*%
%ADD30RoundRect,0.100000X0.100000X-0.130000X0.100000X0.130000X-0.100000X0.130000X-0.100000X-0.130000X0*%
%TD*%
%TA.AperFunction,ViaPad*%
%ADD31C,0.600000*%
%TD*%
%TA.AperFunction,Conductor*%
%ADD32C,0.400000*%
%TD*%
%TA.AperFunction,Conductor*%
%ADD33C,0.300000*%
%TD*%
%TA.AperFunction,Conductor*%
%ADD34C,1.500000*%
%TD*%
%TA.AperFunction,Conductor*%
%ADD35C,0.500000*%
%TD*%
G04 APERTURE END LIST*
%TO.N,3.3V*%
D10*
X193650000Y-100800000D02*
X194950000Y-100800000D01*
X194950000Y-102350000D01*
X193650000Y-102350000D01*
X193650000Y-100800000D01*
%TA.AperFunction,Conductor*%
G36*
X193650000Y-100800000D02*
G01*
X194950000Y-100800000D01*
X194950000Y-102350000D01*
X193650000Y-102350000D01*
X193650000Y-100800000D01*
G37*
%TD.AperFunction*%
X174600000Y-100750000D02*
X175900000Y-100750000D01*
X175900000Y-102300000D01*
X174600000Y-102300000D01*
X174600000Y-100750000D01*
%TA.AperFunction,Conductor*%
G36*
X174600000Y-100750000D02*
G01*
X175900000Y-100750000D01*
X175900000Y-102300000D01*
X174600000Y-102300000D01*
X174600000Y-100750000D01*
G37*
%TD.AperFunction*%
X155600000Y-100850000D02*
X156900000Y-100850000D01*
X156900000Y-102400000D01*
X155600000Y-102400000D01*
X155600000Y-100850000D01*
%TA.AperFunction,Conductor*%
G36*
X155600000Y-100850000D02*
G01*
X156900000Y-100850000D01*
X156900000Y-102400000D01*
X155600000Y-102400000D01*
X155600000Y-100850000D01*
G37*
%TD.AperFunction*%
X136550000Y-100800000D02*
X137850000Y-100800000D01*
X137850000Y-102350000D01*
X136550000Y-102350000D01*
X136550000Y-100800000D01*
%TA.AperFunction,Conductor*%
G36*
X136550000Y-100800000D02*
G01*
X137850000Y-100800000D01*
X137850000Y-102350000D01*
X136550000Y-102350000D01*
X136550000Y-100800000D01*
G37*
%TD.AperFunction*%
X117400000Y-100850000D02*
X118700000Y-100850000D01*
X118700000Y-102400000D01*
X117400000Y-102400000D01*
X117400000Y-100850000D01*
%TA.AperFunction,Conductor*%
G36*
X117400000Y-100850000D02*
G01*
X118700000Y-100850000D01*
X118700000Y-102400000D01*
X117400000Y-102400000D01*
X117400000Y-100850000D01*
G37*
%TD.AperFunction*%
X98450000Y-100850000D02*
X99750000Y-100850000D01*
X99750000Y-102400000D01*
X98450000Y-102400000D01*
X98450000Y-100850000D01*
%TA.AperFunction,Conductor*%
G36*
X98450000Y-100850000D02*
G01*
X99750000Y-100850000D01*
X99750000Y-102400000D01*
X98450000Y-102400000D01*
X98450000Y-100850000D01*
G37*
%TD.AperFunction*%
%TO.N,GND*%
X112475000Y-78375000D02*
X112825000Y-78375000D01*
X112825000Y-79325000D01*
X112475000Y-79325000D01*
X112475000Y-78375000D01*
%TA.AperFunction,Conductor*%
G36*
X112475000Y-78375000D02*
G01*
X112825000Y-78375000D01*
X112825000Y-79325000D01*
X112475000Y-79325000D01*
X112475000Y-78375000D01*
G37*
%TD.AperFunction*%
X94325000Y-104025000D02*
X95275000Y-104025000D01*
X95275000Y-104375000D01*
X94325000Y-104375000D01*
X94325000Y-104025000D01*
%TA.AperFunction,Conductor*%
G36*
X94325000Y-104025000D02*
G01*
X95275000Y-104025000D01*
X95275000Y-104375000D01*
X94325000Y-104375000D01*
X94325000Y-104025000D01*
G37*
%TD.AperFunction*%
X113375000Y-103975000D02*
X114325000Y-103975000D01*
X114325000Y-104325000D01*
X113375000Y-104325000D01*
X113375000Y-103975000D01*
%TA.AperFunction,Conductor*%
G36*
X113375000Y-103975000D02*
G01*
X114325000Y-103975000D01*
X114325000Y-104325000D01*
X113375000Y-104325000D01*
X113375000Y-103975000D01*
G37*
%TD.AperFunction*%
X132375000Y-104025000D02*
X133325000Y-104025000D01*
X133325000Y-104375000D01*
X132375000Y-104375000D01*
X132375000Y-104025000D01*
%TA.AperFunction,Conductor*%
G36*
X132375000Y-104025000D02*
G01*
X133325000Y-104025000D01*
X133325000Y-104375000D01*
X132375000Y-104375000D01*
X132375000Y-104025000D01*
G37*
%TD.AperFunction*%
X151275000Y-103925000D02*
X152225000Y-103925000D01*
X152225000Y-104275000D01*
X151275000Y-104275000D01*
X151275000Y-103925000D01*
%TA.AperFunction,Conductor*%
G36*
X151275000Y-103925000D02*
G01*
X152225000Y-103925000D01*
X152225000Y-104275000D01*
X151275000Y-104275000D01*
X151275000Y-103925000D01*
G37*
%TD.AperFunction*%
X170775000Y-103675000D02*
X171125000Y-103675000D01*
X171125000Y-104625000D01*
X170775000Y-104625000D01*
X170775000Y-103675000D01*
%TA.AperFunction,Conductor*%
G36*
X170775000Y-103675000D02*
G01*
X171125000Y-103675000D01*
X171125000Y-104625000D01*
X170775000Y-104625000D01*
X170775000Y-103675000D01*
G37*
%TD.AperFunction*%
X189675000Y-103825000D02*
X190025000Y-103825000D01*
X190025000Y-104775000D01*
X189675000Y-104775000D01*
X189675000Y-103825000D01*
%TA.AperFunction,Conductor*%
G36*
X189675000Y-103825000D02*
G01*
X190025000Y-103825000D01*
X190025000Y-104775000D01*
X189675000Y-104775000D01*
X189675000Y-103825000D01*
G37*
%TD.AperFunction*%
X209275000Y-94325000D02*
X209625000Y-94325000D01*
X209625000Y-95275000D01*
X209275000Y-95275000D01*
X209275000Y-94325000D01*
%TA.AperFunction,Conductor*%
G36*
X209275000Y-94325000D02*
G01*
X209625000Y-94325000D01*
X209625000Y-95275000D01*
X209275000Y-95275000D01*
X209275000Y-94325000D01*
G37*
%TD.AperFunction*%
X133575000Y-76675000D02*
X134525000Y-76675000D01*
X134525000Y-77025000D01*
X133575000Y-77025000D01*
X133575000Y-76675000D01*
%TA.AperFunction,Conductor*%
G36*
X133575000Y-76675000D02*
G01*
X134525000Y-76675000D01*
X134525000Y-77025000D01*
X133575000Y-77025000D01*
X133575000Y-76675000D01*
G37*
%TD.AperFunction*%
X170825000Y-76025000D02*
X171775000Y-76025000D01*
X171775000Y-76375000D01*
X170825000Y-76375000D01*
X170825000Y-76025000D01*
%TA.AperFunction,Conductor*%
G36*
X170825000Y-76025000D02*
G01*
X171775000Y-76025000D01*
X171775000Y-76375000D01*
X170825000Y-76375000D01*
X170825000Y-76025000D01*
G37*
%TD.AperFunction*%
X188575000Y-78275000D02*
X188925000Y-78275000D01*
X188925000Y-79225000D01*
X188575000Y-79225000D01*
X188575000Y-78275000D01*
%TA.AperFunction,Conductor*%
G36*
X188575000Y-78275000D02*
G01*
X188925000Y-78275000D01*
X188925000Y-79225000D01*
X188575000Y-79225000D01*
X188575000Y-78275000D01*
G37*
%TD.AperFunction*%
X209450000Y-76750000D02*
X209600000Y-76750000D01*
X209600000Y-77650000D01*
X209450000Y-77650000D01*
X209450000Y-76750000D01*
%TA.AperFunction,Conductor*%
G36*
X209450000Y-76750000D02*
G01*
X209600000Y-76750000D01*
X209600000Y-77650000D01*
X209450000Y-77650000D01*
X209450000Y-76750000D01*
G37*
%TD.AperFunction*%
%TO.N,Net-(C13-Pad2)*%
X116850000Y-83625000D02*
X120200000Y-83625000D01*
X120200000Y-84725000D01*
X116850000Y-84725000D01*
X116850000Y-83625000D01*
%TA.AperFunction,Conductor*%
G36*
X116850000Y-83625000D02*
G01*
X120200000Y-83625000D01*
X120200000Y-84725000D01*
X116850000Y-84725000D01*
X116850000Y-83625000D01*
G37*
%TD.AperFunction*%
%TO.N,Net-(C15-Pad2)*%
X192600000Y-83725000D02*
X195900000Y-83725000D01*
X195900000Y-84875000D01*
X192600000Y-84875000D01*
X192600000Y-83725000D01*
%TA.AperFunction,Conductor*%
G36*
X192600000Y-83725000D02*
G01*
X195900000Y-83725000D01*
X195900000Y-84875000D01*
X192600000Y-84875000D01*
X192600000Y-83725000D01*
G37*
%TD.AperFunction*%
%TO.N,Net-(C15-Pad1)*%
X194750000Y-77450000D02*
X195850000Y-77450000D01*
X195850000Y-81200000D01*
X194750000Y-81200000D01*
X194750000Y-77450000D01*
%TA.AperFunction,Conductor*%
G36*
X194750000Y-77450000D02*
G01*
X195850000Y-77450000D01*
X195850000Y-81200000D01*
X194750000Y-81200000D01*
X194750000Y-77450000D01*
G37*
%TD.AperFunction*%
%TO.N,Net-(C13-Pad1)*%
X116550000Y-77675000D02*
X117750000Y-77675000D01*
X117750000Y-81975000D01*
X116550000Y-81975000D01*
X116550000Y-77675000D01*
%TA.AperFunction,Conductor*%
G36*
X116550000Y-77675000D02*
G01*
X117750000Y-77675000D01*
X117750000Y-81975000D01*
X116550000Y-81975000D01*
X116550000Y-77675000D01*
G37*
%TD.AperFunction*%
%TO.N,GND*%
X149725000Y-76425000D02*
X152075000Y-76425000D01*
X152075000Y-82775000D01*
X149725000Y-82775000D01*
X149725000Y-76425000D01*
%TA.AperFunction,Conductor*%
G36*
X149725000Y-76425000D02*
G01*
X152075000Y-76425000D01*
X152075000Y-82775000D01*
X149725000Y-82775000D01*
X149725000Y-76425000D01*
G37*
%TD.AperFunction*%
X100198907Y-99695024D02*
X102501093Y-99695024D01*
X102501093Y-100250000D01*
X100198907Y-100250000D01*
X100198907Y-99695024D01*
%TA.AperFunction,Conductor*%
G36*
X100198907Y-99695024D02*
G01*
X102501093Y-99695024D01*
X102501093Y-100250000D01*
X100198907Y-100250000D01*
X100198907Y-99695024D01*
G37*
%TD.AperFunction*%
X100301093Y-100177186D02*
X100801093Y-100177186D01*
X100801093Y-102500000D01*
X100301093Y-102500000D01*
X100301093Y-100177186D01*
%TA.AperFunction,Conductor*%
G36*
X100301093Y-100177186D02*
G01*
X100801093Y-100177186D01*
X100801093Y-102500000D01*
X100301093Y-102500000D01*
X100301093Y-100177186D01*
G37*
%TD.AperFunction*%
%TO.N,3.3V*%
X108050000Y-81550000D02*
X109075000Y-81550000D01*
X109075000Y-83750000D01*
X108050000Y-83750000D01*
X108050000Y-81550000D01*
%TA.AperFunction,Conductor*%
G36*
X108050000Y-81550000D02*
G01*
X109075000Y-81550000D01*
X109075000Y-83750000D01*
X108050000Y-83750000D01*
X108050000Y-81550000D01*
G37*
%TD.AperFunction*%
%TO.N,GND*%
X109698907Y-80695024D02*
X112001093Y-80695024D01*
X112001093Y-81250000D01*
X109698907Y-81250000D01*
X109698907Y-80695024D01*
%TA.AperFunction,Conductor*%
G36*
X109698907Y-80695024D02*
G01*
X112001093Y-80695024D01*
X112001093Y-81250000D01*
X109698907Y-81250000D01*
X109698907Y-80695024D01*
G37*
%TD.AperFunction*%
X109900000Y-81038593D02*
X110400000Y-81038593D01*
X110400000Y-83361407D01*
X109900000Y-83361407D01*
X109900000Y-81038593D01*
%TA.AperFunction,Conductor*%
G36*
X109900000Y-81038593D02*
G01*
X110400000Y-81038593D01*
X110400000Y-83361407D01*
X109900000Y-83361407D01*
X109900000Y-81038593D01*
G37*
%TD.AperFunction*%
X119198907Y-99695024D02*
X121501093Y-99695024D01*
X121501093Y-100250000D01*
X119198907Y-100250000D01*
X119198907Y-99695024D01*
%TA.AperFunction,Conductor*%
G36*
X119198907Y-99695024D02*
G01*
X121501093Y-99695024D01*
X121501093Y-100250000D01*
X119198907Y-100250000D01*
X119198907Y-99695024D01*
G37*
%TD.AperFunction*%
X119301093Y-100177186D02*
X119801093Y-100177186D01*
X119801093Y-102500000D01*
X119301093Y-102500000D01*
X119301093Y-100177186D01*
%TA.AperFunction,Conductor*%
G36*
X119301093Y-100177186D02*
G01*
X119801093Y-100177186D01*
X119801093Y-102500000D01*
X119301093Y-102500000D01*
X119301093Y-100177186D01*
G37*
%TD.AperFunction*%
%TO.N,3.3V*%
X126400000Y-81700000D02*
X128450000Y-81700000D01*
X128450000Y-83900000D01*
X126400000Y-83900000D01*
X126400000Y-81700000D01*
%TA.AperFunction,Conductor*%
G36*
X126400000Y-81700000D02*
G01*
X128450000Y-81700000D01*
X128450000Y-83900000D01*
X126400000Y-83900000D01*
X126400000Y-81700000D01*
G37*
%TD.AperFunction*%
%TO.N,GND*%
X128748907Y-80695024D02*
X131051093Y-80695024D01*
X131051093Y-81250000D01*
X128748907Y-81250000D01*
X128748907Y-80695024D01*
%TA.AperFunction,Conductor*%
G36*
X128748907Y-80695024D02*
G01*
X131051093Y-80695024D01*
X131051093Y-81250000D01*
X128748907Y-81250000D01*
X128748907Y-80695024D01*
G37*
%TD.AperFunction*%
X128851093Y-81177186D02*
X129351093Y-81177186D01*
X129351093Y-83500000D01*
X128851093Y-83500000D01*
X128851093Y-81177186D01*
%TA.AperFunction,Conductor*%
G36*
X128851093Y-81177186D02*
G01*
X129351093Y-81177186D01*
X129351093Y-83500000D01*
X128851093Y-83500000D01*
X128851093Y-81177186D01*
G37*
%TD.AperFunction*%
X138298907Y-99745024D02*
X140601093Y-99745024D01*
X140601093Y-100300000D01*
X138298907Y-100300000D01*
X138298907Y-99745024D01*
%TA.AperFunction,Conductor*%
G36*
X138298907Y-99745024D02*
G01*
X140601093Y-99745024D01*
X140601093Y-100300000D01*
X138298907Y-100300000D01*
X138298907Y-99745024D01*
G37*
%TD.AperFunction*%
X138401093Y-100227186D02*
X138901093Y-100227186D01*
X138901093Y-102550000D01*
X138401093Y-102550000D01*
X138401093Y-100227186D01*
%TA.AperFunction,Conductor*%
G36*
X138401093Y-100227186D02*
G01*
X138901093Y-100227186D01*
X138901093Y-102550000D01*
X138401093Y-102550000D01*
X138401093Y-100227186D01*
G37*
%TD.AperFunction*%
X157348907Y-99695024D02*
X159651093Y-99695024D01*
X159651093Y-100250000D01*
X157348907Y-100250000D01*
X157348907Y-99695024D01*
%TA.AperFunction,Conductor*%
G36*
X157348907Y-99695024D02*
G01*
X159651093Y-99695024D01*
X159651093Y-100250000D01*
X157348907Y-100250000D01*
X157348907Y-99695024D01*
G37*
%TD.AperFunction*%
X157451093Y-100177186D02*
X157951093Y-100177186D01*
X157951093Y-102500000D01*
X157451093Y-102500000D01*
X157451093Y-100177186D01*
%TA.AperFunction,Conductor*%
G36*
X157451093Y-100177186D02*
G01*
X157951093Y-100177186D01*
X157951093Y-102500000D01*
X157451093Y-102500000D01*
X157451093Y-100177186D01*
G37*
%TD.AperFunction*%
X166947814Y-80695024D02*
X169250000Y-80695024D01*
X169250000Y-81250000D01*
X166947814Y-81250000D01*
X166947814Y-80695024D01*
%TA.AperFunction,Conductor*%
G36*
X166947814Y-80695024D02*
G01*
X169250000Y-80695024D01*
X169250000Y-81250000D01*
X166947814Y-81250000D01*
X166947814Y-80695024D01*
G37*
%TD.AperFunction*%
X167050000Y-81177186D02*
X167550000Y-81177186D01*
X167550000Y-83500000D01*
X167050000Y-83500000D01*
X167050000Y-81177186D01*
%TA.AperFunction,Conductor*%
G36*
X167050000Y-81177186D02*
G01*
X167550000Y-81177186D01*
X167550000Y-83500000D01*
X167050000Y-83500000D01*
X167050000Y-81177186D01*
G37*
%TD.AperFunction*%
X176398907Y-99695024D02*
X178701093Y-99695024D01*
X178701093Y-100250000D01*
X176398907Y-100250000D01*
X176398907Y-99695024D01*
%TA.AperFunction,Conductor*%
G36*
X176398907Y-99695024D02*
G01*
X178701093Y-99695024D01*
X178701093Y-100250000D01*
X176398907Y-100250000D01*
X176398907Y-99695024D01*
G37*
%TD.AperFunction*%
X176501093Y-100177186D02*
X177001093Y-100177186D01*
X177001093Y-102500000D01*
X176501093Y-102500000D01*
X176501093Y-100177186D01*
%TA.AperFunction,Conductor*%
G36*
X176501093Y-100177186D02*
G01*
X177001093Y-100177186D01*
X177001093Y-102500000D01*
X176501093Y-102500000D01*
X176501093Y-100177186D01*
G37*
%TD.AperFunction*%
X185948907Y-80745024D02*
X188251093Y-80745024D01*
X188251093Y-81300000D01*
X185948907Y-81300000D01*
X185948907Y-80745024D01*
%TA.AperFunction,Conductor*%
G36*
X185948907Y-80745024D02*
G01*
X188251093Y-80745024D01*
X188251093Y-81300000D01*
X185948907Y-81300000D01*
X185948907Y-80745024D01*
G37*
%TD.AperFunction*%
X186051093Y-81227186D02*
X186551093Y-81227186D01*
X186551093Y-83550000D01*
X186051093Y-83550000D01*
X186051093Y-81227186D01*
%TA.AperFunction,Conductor*%
G36*
X186051093Y-81227186D02*
G01*
X186551093Y-81227186D01*
X186551093Y-83550000D01*
X186051093Y-83550000D01*
X186051093Y-81227186D01*
G37*
%TD.AperFunction*%
X195548907Y-99745024D02*
X197851093Y-99745024D01*
X197851093Y-100300000D01*
X195548907Y-100300000D01*
X195548907Y-99745024D01*
%TA.AperFunction,Conductor*%
G36*
X195548907Y-99745024D02*
G01*
X197851093Y-99745024D01*
X197851093Y-100300000D01*
X195548907Y-100300000D01*
X195548907Y-99745024D01*
G37*
%TD.AperFunction*%
X195651093Y-100227186D02*
X196151093Y-100227186D01*
X196151093Y-102550000D01*
X195651093Y-102550000D01*
X195651093Y-100227186D01*
%TA.AperFunction,Conductor*%
G36*
X195651093Y-100227186D02*
G01*
X196151093Y-100227186D01*
X196151093Y-102550000D01*
X195651093Y-102550000D01*
X195651093Y-100227186D01*
G37*
%TD.AperFunction*%
X204998907Y-80695024D02*
X207301093Y-80695024D01*
X207301093Y-81250000D01*
X204998907Y-81250000D01*
X204998907Y-80695024D01*
%TA.AperFunction,Conductor*%
G36*
X204998907Y-80695024D02*
G01*
X207301093Y-80695024D01*
X207301093Y-81250000D01*
X204998907Y-81250000D01*
X204998907Y-80695024D01*
G37*
%TD.AperFunction*%
X205101093Y-81177186D02*
X205601093Y-81177186D01*
X205601093Y-83500000D01*
X205101093Y-83500000D01*
X205101093Y-81177186D01*
%TA.AperFunction,Conductor*%
G36*
X205101093Y-81177186D02*
G01*
X205601093Y-81177186D01*
X205601093Y-83500000D01*
X205101093Y-83500000D01*
X205101093Y-81177186D01*
G37*
%TD.AperFunction*%
X214497814Y-99695024D02*
X216800000Y-99695024D01*
X216800000Y-100250000D01*
X214497814Y-100250000D01*
X214497814Y-99695024D01*
%TA.AperFunction,Conductor*%
G36*
X214497814Y-99695024D02*
G01*
X216800000Y-99695024D01*
X216800000Y-100250000D01*
X214497814Y-100250000D01*
X214497814Y-99695024D01*
G37*
%TD.AperFunction*%
X214600000Y-100177186D02*
X215100000Y-100177186D01*
X215100000Y-102500000D01*
X214600000Y-102500000D01*
X214600000Y-100177186D01*
%TA.AperFunction,Conductor*%
G36*
X214600000Y-100177186D02*
G01*
X215100000Y-100177186D01*
X215100000Y-102500000D01*
X214600000Y-102500000D01*
X214600000Y-100177186D01*
G37*
%TD.AperFunction*%
%TD*%
D11*
%TO.P,D12,1,VSS_1*%
%TO.N,GND*%
X126125000Y-75250000D03*
%TO.P,D12,2,DIN_2*%
%TO.N,Net-(D11-DOUT)*%
X126125000Y-76750000D03*
%TO.P,D12,3,VDD_3*%
%TO.N,5V*%
X131575000Y-76750000D03*
%TO.P,D12,4,DOUT_4*%
%TO.N,Net-(D12-DOUT)*%
X131575000Y-75250000D03*
%TD*%
%TO.P,D11,1,VSS_1*%
%TO.N,GND*%
X106775000Y-75300000D03*
%TO.P,D11,2,DIN_2*%
%TO.N,Net-(D10-DOUT)*%
X106775000Y-76800000D03*
%TO.P,D11,3,VDD_3*%
%TO.N,5V*%
X112225000Y-76800000D03*
%TO.P,D11,4,DOUT_4*%
%TO.N,Net-(D11-DOUT)*%
X112225000Y-75300000D03*
%TD*%
D12*
%TO.P,D10,1,VSS_1*%
%TO.N,GND*%
X102725000Y-105650000D03*
%TO.P,D10,2,DIN_2*%
%TO.N,Net-(D10-DIN)*%
X102725000Y-104150000D03*
%TO.P,D10,3,VDD_3*%
%TO.N,5V*%
X97275000Y-104150000D03*
%TO.P,D10,4,DOUT_4*%
%TO.N,Net-(D10-DOUT)*%
X97275000Y-105650000D03*
%TD*%
%TO.P,D9,1,VSS_1*%
%TO.N,GND*%
X121825000Y-105650000D03*
%TO.P,D9,2,DIN_2*%
%TO.N,Net-(D8-DOUT)*%
X121825000Y-104150000D03*
%TO.P,D9,3,VDD_3*%
%TO.N,5V*%
X116375000Y-104150000D03*
%TO.P,D9,4,DOUT_4*%
%TO.N,Net-(D10-DIN)*%
X116375000Y-105650000D03*
%TD*%
%TO.P,D8,1,VSS_1*%
%TO.N,GND*%
X140875000Y-105700000D03*
%TO.P,D8,2,DIN_2*%
%TO.N,Net-(D7-DOUT)*%
X140875000Y-104200000D03*
%TO.P,D8,3,VDD_3*%
%TO.N,5V*%
X135425000Y-104200000D03*
%TO.P,D8,4,DOUT_4*%
%TO.N,Net-(D8-DOUT)*%
X135425000Y-105700000D03*
%TD*%
%TO.P,D7,1,VSS_1*%
%TO.N,GND*%
X159825000Y-105600000D03*
%TO.P,D7,2,DIN_2*%
%TO.N,Net-(D6-DOUT)*%
X159825000Y-104100000D03*
%TO.P,D7,3,VDD_3*%
%TO.N,5V*%
X154375000Y-104100000D03*
%TO.P,D7,4,DOUT_4*%
%TO.N,Net-(D7-DOUT)*%
X154375000Y-105600000D03*
%TD*%
%TO.P,D6,1,VSS_1*%
%TO.N,GND*%
X178975000Y-105700000D03*
%TO.P,D6,2,DIN_2*%
%TO.N,Net-(D5-DOUT)*%
X178975000Y-104200000D03*
%TO.P,D6,3,VDD_3*%
%TO.N,5V*%
X173525000Y-104200000D03*
%TO.P,D6,4,DOUT_4*%
%TO.N,Net-(D6-DOUT)*%
X173525000Y-105700000D03*
%TD*%
%TO.P,D5,1,VSS_1*%
%TO.N,GND*%
X197875000Y-105750000D03*
%TO.P,D5,2,DIN_2*%
%TO.N,Net-(D4-DOUT)*%
X197875000Y-104250000D03*
%TO.P,D5,3,VDD_3*%
%TO.N,5V*%
X192425000Y-104250000D03*
%TO.P,D5,4,DOUT_4*%
%TO.N,Net-(D5-DOUT)*%
X192425000Y-105750000D03*
%TD*%
%TO.P,D4,1,VSS_1*%
%TO.N,GND*%
X216975000Y-95850000D03*
%TO.P,D4,2,DIN_2*%
%TO.N,Net-(D3-DOUT)*%
X216975000Y-94350000D03*
%TO.P,D4,3,VDD_3*%
%TO.N,5V*%
X211525000Y-94350000D03*
%TO.P,D4,4,DOUT_4*%
%TO.N,Net-(D4-DOUT)*%
X211525000Y-95850000D03*
%TD*%
D11*
%TO.P,D3,1,VSS_1*%
%TO.N,GND*%
X201975000Y-75250000D03*
%TO.P,D3,2,DIN_2*%
%TO.N,Net-(D2-DOUT)*%
X201975000Y-76750000D03*
%TO.P,D3,3,VDD_3*%
%TO.N,5V*%
X207425000Y-76750000D03*
%TO.P,D3,4,DOUT_4*%
%TO.N,Net-(D3-DOUT)*%
X207425000Y-75250000D03*
%TD*%
%TO.P,D2,1,VSS_1*%
%TO.N,GND*%
X182925000Y-75300000D03*
%TO.P,D2,2,DIN_2*%
%TO.N,Net-(D1-DOUT)*%
X182925000Y-76800000D03*
%TO.P,D2,3,VDD_3*%
%TO.N,5V*%
X188375000Y-76800000D03*
%TO.P,D2,4,DOUT_4*%
%TO.N,Net-(D2-DOUT)*%
X188375000Y-75300000D03*
%TD*%
%TO.P,D1,1,VSS_1*%
%TO.N,GND*%
X163975000Y-75400000D03*
%TO.P,D1,2,DIN_2*%
%TO.N,Net-(D1-DIN)*%
X163975000Y-76900000D03*
%TO.P,D1,3,VDD_3*%
%TO.N,5V*%
X169425000Y-76900000D03*
%TO.P,D1,4,DOUT_4*%
%TO.N,Net-(D1-DOUT)*%
X169425000Y-75400000D03*
%TD*%
D13*
%TO.P,U3,3,GND_3*%
%TO.N,GND*%
X207075000Y-80950000D03*
D14*
X205712500Y-80950000D03*
%TO.P,U3,2,VOUT_2*%
%TO.N,/ADC3*%
X203837500Y-80000000D03*
%TO.P,U3,1,VCC_1*%
%TO.N,3.3V*%
X203837500Y-81900000D03*
%TD*%
D15*
%TO.P,J1,3*%
%TO.N,GND*%
X121250000Y-77000000D03*
%TO.P,J1,2*%
%TO.N,Net-(C15-Pad1)*%
X119250000Y-77000000D03*
%TO.P,J1,1*%
%TO.N,Net-(C13-Pad1)*%
X117250000Y-77000000D03*
D16*
%TO.P,J1,*%
%TO.N,*%
X123650000Y-75000000D03*
X114850000Y-75000000D03*
%TD*%
D13*
%TO.P,U12,3,GND_3*%
%TO.N,GND*%
X130875000Y-80950000D03*
D14*
X129512500Y-80950000D03*
%TO.P,U12,2,VOUT_2*%
%TO.N,/ADC12*%
X127637500Y-80000000D03*
%TO.P,U12,1,VCC_1*%
%TO.N,3.3V*%
X127637500Y-81900000D03*
%TD*%
D17*
%TO.P,C14,2*%
%TO.N,3.3V*%
X119650000Y-86915000D03*
%TO.P,C14,1*%
%TO.N,Net-(C13-Pad2)*%
X119650000Y-84035000D03*
%TD*%
%TO.P,C13,2*%
%TO.N,Net-(C13-Pad2)*%
X117350000Y-84165000D03*
%TO.P,C13,1*%
%TO.N,Net-(C13-Pad1)*%
X117350000Y-81285000D03*
%TD*%
D13*
%TO.P,U4,3,GND_3*%
%TO.N,GND*%
X216600000Y-100000000D03*
D14*
X215237500Y-100000000D03*
%TO.P,U4,2,VOUT_2*%
%TO.N,/ADC4*%
X213362500Y-99050000D03*
%TO.P,U4,1,VCC_1*%
%TO.N,3.3V*%
X213362500Y-100950000D03*
%TD*%
D18*
%TO.P,R3,2*%
%TO.N,unconnected-(R3-Pad2)*%
X134260000Y-75300000D03*
%TO.P,R3,1*%
%TO.N,Net-(D12-DOUT)*%
X133240000Y-75300000D03*
%TD*%
D19*
%TO.P,C26,2*%
%TO.N,5V*%
X95820000Y-104200000D03*
%TO.P,C26,1*%
%TO.N,GND*%
X95180000Y-104200000D03*
%TD*%
D14*
%TO.P,U7,1,VCC_1*%
%TO.N,3.3V*%
X156212500Y-100950000D03*
%TO.P,U7,2,VOUT_2*%
%TO.N,/ADC7*%
X156212500Y-99050000D03*
%TO.P,U7,3,GND_3*%
%TO.N,GND*%
X158087500Y-100000000D03*
D13*
X159450000Y-100000000D03*
%TD*%
%TO.P,U1,3,GND_3*%
%TO.N,GND*%
X168975000Y-80950000D03*
D14*
X167612500Y-80950000D03*
%TO.P,U1,2,VOUT_2*%
%TO.N,/ADC1*%
X165737500Y-80000000D03*
%TO.P,U1,1,VCC_1*%
%TO.N,3.3V*%
X165737500Y-81900000D03*
%TD*%
D13*
%TO.P,U11,3,GND_3*%
%TO.N,GND*%
X111825000Y-80950000D03*
D14*
X110462500Y-80950000D03*
%TO.P,U11,2,VOUT_2*%
%TO.N,/ADC11*%
X108587500Y-80000000D03*
%TO.P,U11,1,VCC_1*%
%TO.N,3.3V*%
X108587500Y-81900000D03*
%TD*%
D20*
%TO.P,SW1,1*%
%TO.N,/SW1*%
X144335000Y-82190000D03*
%TO.P,SW1,2*%
%TO.N,/SW2*%
X144335000Y-79650000D03*
%TO.P,SW1,3*%
%TO.N,/SW3*%
X144335000Y-77110000D03*
%TO.P,SW1,4*%
%TO.N,GND*%
X151065000Y-77110000D03*
%TO.P,SW1,5*%
X151065000Y-79650000D03*
%TO.P,SW1,6*%
X151065000Y-82190000D03*
%TD*%
D21*
%TO.P,J4,1,Pin_1_1*%
%TO.N,3.3V*%
X154000000Y-75950000D03*
%TO.P,J4,2,Pin_2_2*%
%TO.N,/SWDIO*%
X157000000Y-77950000D03*
%TO.P,J4,3,Pin_3_3*%
%TO.N,/SWCLK*%
X154000000Y-79950000D03*
%TO.P,J4,4,Pin_4_4*%
%TO.N,GND*%
X157000000Y-81950000D03*
%TO.P,J4,5,Pin_5_5*%
%TO.N,/NRST*%
X154000000Y-83950000D03*
%TD*%
D18*
%TO.P,R2,1*%
%TO.N,/LED*%
X161240000Y-76900000D03*
%TO.P,R2,2*%
%TO.N,Net-(D1-DIN)*%
X162260000Y-76900000D03*
%TD*%
D16*
%TO.P,J5,*%
%TO.N,*%
X190850000Y-75100000D03*
X199650000Y-75100000D03*
D15*
%TO.P,J5,1*%
%TO.N,Net-(C13-Pad1)*%
X193250000Y-77100000D03*
%TO.P,J5,2*%
%TO.N,Net-(C15-Pad1)*%
X195250000Y-77100000D03*
%TO.P,J5,3*%
%TO.N,GND*%
X197250000Y-77100000D03*
%TD*%
D22*
%TO.P,C28,1*%
%TO.N,GND*%
X133670000Y-76850000D03*
%TO.P,C28,2*%
%TO.N,5V*%
X133030000Y-76850000D03*
%TD*%
%TO.P,C27,1*%
%TO.N,GND*%
X112570000Y-78450000D03*
%TO.P,C27,2*%
%TO.N,5V*%
X111930000Y-78450000D03*
%TD*%
D19*
%TO.P,C25,1*%
%TO.N,GND*%
X114230000Y-104150000D03*
%TO.P,C25,2*%
%TO.N,5V*%
X114870000Y-104150000D03*
%TD*%
%TO.P,C24,1*%
%TO.N,GND*%
X133230000Y-104200000D03*
%TO.P,C24,2*%
%TO.N,5V*%
X133870000Y-104200000D03*
%TD*%
%TO.P,C23,1*%
%TO.N,GND*%
X152180000Y-104100000D03*
%TO.P,C23,2*%
%TO.N,5V*%
X152820000Y-104100000D03*
%TD*%
%TO.P,C22,1*%
%TO.N,GND*%
X171380000Y-104150000D03*
%TO.P,C22,2*%
%TO.N,5V*%
X172020000Y-104150000D03*
%TD*%
%TO.P,C21,1*%
%TO.N,GND*%
X190230000Y-104300000D03*
%TO.P,C21,2*%
%TO.N,5V*%
X190870000Y-104300000D03*
%TD*%
%TO.P,C20,1*%
%TO.N,GND*%
X209580000Y-94400000D03*
%TO.P,C20,2*%
%TO.N,5V*%
X210220000Y-94400000D03*
%TD*%
D22*
%TO.P,C19,1*%
%TO.N,GND*%
X209520000Y-76800000D03*
%TO.P,C19,2*%
%TO.N,5V*%
X208880000Y-76800000D03*
%TD*%
%TO.P,C18,1*%
%TO.N,GND*%
X188700000Y-78400000D03*
%TO.P,C18,2*%
%TO.N,5V*%
X188060000Y-78400000D03*
%TD*%
D23*
%TO.P,C17,1*%
%TO.N,GND*%
X170950000Y-76280000D03*
%TO.P,C17,2*%
%TO.N,5V*%
X170950000Y-76920000D03*
%TD*%
D17*
%TO.P,C16,1*%
%TO.N,Net-(C15-Pad2)*%
X193100000Y-84210000D03*
%TO.P,C16,2*%
%TO.N,5V*%
X193100000Y-87090000D03*
%TD*%
%TO.P,C15,1*%
%TO.N,Net-(C15-Pad1)*%
X195300000Y-81310000D03*
%TO.P,C15,2*%
%TO.N,Net-(C15-Pad2)*%
X195300000Y-84190000D03*
%TD*%
D14*
%TO.P,U6,1,VCC_1*%
%TO.N,3.3V*%
X175262500Y-100950000D03*
%TO.P,U6,2,VOUT_2*%
%TO.N,/ADC6*%
X175262500Y-99050000D03*
%TO.P,U6,3,GND_3*%
%TO.N,GND*%
X177137500Y-100000000D03*
D13*
X178500000Y-100000000D03*
%TD*%
D22*
%TO.P,C11,1*%
%TO.N,GND*%
X205120000Y-83300000D03*
%TO.P,C11,2*%
%TO.N,3.3V*%
X204480000Y-83300000D03*
%TD*%
D24*
%TO.P,U0,1,PC13_1*%
%TO.N,unconnected-(U0-PC13-Pad1)*%
X152512500Y-87250000D03*
%TO.P,U0,2,PC14_2*%
%TO.N,unconnected-(U0-PC14-Pad2)*%
X152512500Y-87750000D03*
%TO.P,U0,3,PC15_3*%
%TO.N,/GPIO*%
X152512500Y-88250000D03*
%TO.P,U0,4,VBAT_4*%
%TO.N,unconnected-(U0-VBAT-Pad4)*%
X152512500Y-88750000D03*
%TO.P,U0,5,VREF+_5*%
%TO.N,unconnected-(U0-VREF+-Pad5)*%
X152512500Y-89250000D03*
%TO.P,U0,6,VDD_6*%
%TO.N,3.3V*%
X152512500Y-89750000D03*
%TO.P,U0,7,VSS_7*%
%TO.N,GND*%
X152512500Y-90250000D03*
%TO.P,U0,8,PF0_8*%
%TO.N,unconnected-(U0-PF0-Pad8)*%
X152512500Y-90750000D03*
%TO.P,U0,9,PF1_9*%
%TO.N,unconnected-(U0-PF1-Pad9)*%
X152512500Y-91250000D03*
%TO.P,U0,10,PF2_10*%
%TO.N,/NRST*%
X152512500Y-91750000D03*
%TO.P,U0,11,PA0_11*%
%TO.N,/ADC1*%
X152512500Y-92250000D03*
%TO.P,U0,12,PA1_12*%
%TO.N,/ADC2*%
X152512500Y-92750000D03*
D25*
%TO.P,U0,13,PA2_13*%
%TO.N,/ADC3*%
X151100000Y-94162500D03*
%TO.P,U0,14,PA3_14*%
%TO.N,/ADC4*%
X150600000Y-94162500D03*
%TO.P,U0,15,PA4_15*%
%TO.N,/ADC5*%
X150100000Y-94162500D03*
%TO.P,U0,16,PA5_16*%
%TO.N,/ADC6*%
X149600000Y-94162500D03*
%TO.P,U0,17,PA6_17*%
%TO.N,/ADC7*%
X149100000Y-94162500D03*
%TO.P,U0,18,PA7_18*%
%TO.N,/ADC8*%
X148600000Y-94162500D03*
%TO.P,U0,19,PB0_19*%
%TO.N,/ADC9*%
X148100000Y-94162500D03*
%TO.P,U0,20,PB1_20*%
%TO.N,/ADC10*%
X147600000Y-94162500D03*
%TO.P,U0,21,PB2_21*%
%TO.N,/ADC11*%
X147100000Y-94162500D03*
%TO.P,U0,22,PB10_22*%
%TO.N,/ADC12*%
X146600000Y-94162500D03*
%TO.P,U0,23,PB11_23*%
%TO.N,unconnected-(U0-PB11-Pad23)*%
X146100000Y-94162500D03*
%TO.P,U0,24,PB12_24*%
%TO.N,unconnected-(U0-PB12-Pad24)*%
X145600000Y-94162500D03*
D24*
%TO.P,U0,25,PB13_25*%
%TO.N,unconnected-(U0-PB13-Pad25)*%
X144187500Y-92750000D03*
%TO.P,U0,26,PB14_26*%
%TO.N,unconnected-(U0-PB14-Pad26)*%
X144187500Y-92250000D03*
%TO.P,U0,27,PB15_27*%
%TO.N,unconnected-(U0-PB15-Pad27)*%
X144187500Y-91750000D03*
%TO.P,U0,28,PA8_28*%
%TO.N,unconnected-(U0-PA8-Pad28)*%
X144187500Y-91250000D03*
%TO.P,U0,29,PA9/UCPD1_DBCC1_29*%
%TO.N,/TX_LEFT*%
X144187500Y-90750000D03*
%TO.P,U0,30,PC6_30*%
%TO.N,unconnected-(U0-PC6-Pad30)*%
X144187500Y-90250000D03*
%TO.P,U0,31,PC7_31*%
%TO.N,unconnected-(U0-PC7-Pad31)*%
X144187500Y-89750000D03*
%TO.P,U0,32,PA10/UCPD1_DBCC2_32*%
%TO.N,/RX_LEFT*%
X144187500Y-89250000D03*
%TO.P,U0,33,PA9/PA11_33*%
%TO.N,unconnected-(U0-PA9{slash}PA11-Pad33)*%
X144187500Y-88750000D03*
%TO.P,U0,34,PA10/PA12_34*%
%TO.N,unconnected-(U0-PA10{slash}PA12-Pad34)*%
X144187500Y-88250000D03*
%TO.P,U0,35,PA13_35*%
%TO.N,/SWDIO*%
X144187500Y-87750000D03*
%TO.P,U0,36,PA14_36*%
%TO.N,/SWCLK*%
X144187500Y-87250000D03*
D25*
%TO.P,U0,37,PA15_37*%
%TO.N,unconnected-(U0-PA15-Pad37)*%
X145600000Y-85837500D03*
%TO.P,U0,38,PD0_38*%
%TO.N,unconnected-(U0-PD0-Pad38)*%
X146100000Y-85837500D03*
%TO.P,U0,39,PD1_39*%
%TO.N,unconnected-(U0-PD1-Pad39)*%
X146600000Y-85837500D03*
%TO.P,U0,40,PD2_40*%
%TO.N,unconnected-(U0-PD2-Pad40)*%
X147100000Y-85837500D03*
%TO.P,U0,41,PD3_41*%
%TO.N,unconnected-(U0-PD3-Pad41)*%
X147600000Y-85837500D03*
%TO.P,U0,42,PB3_42*%
%TO.N,/SW1*%
X148100000Y-85837500D03*
%TO.P,U0,43,PB4_43*%
%TO.N,/SW2*%
X148600000Y-85837500D03*
%TO.P,U0,44,PB5_44*%
%TO.N,/SW3*%
X149100000Y-85837500D03*
%TO.P,U0,45,PB6_45*%
%TO.N,unconnected-(U0-PB6-Pad45)*%
X149600000Y-85837500D03*
%TO.P,U0,46,PB7_46*%
%TO.N,/LED*%
X150100000Y-85837500D03*
%TO.P,U0,47,PB8_47*%
%TO.N,/TX_RIGHT*%
X150600000Y-85837500D03*
%TO.P,U0,48,PB9_48*%
%TO.N,/RX_RIGHT*%
X151100000Y-85837500D03*
%TD*%
D22*
%TO.P,C6,1*%
%TO.N,GND*%
X157520000Y-102300000D03*
%TO.P,C6,2*%
%TO.N,3.3V*%
X156880000Y-102300000D03*
%TD*%
D26*
%TO.P,J2,*%
%TO.N,*%
X133850000Y-84700000D03*
X133850000Y-95500000D03*
D27*
%TO.P,J2,1*%
%TO.N,/TX_LEFT*%
X135850000Y-93100000D03*
%TO.P,J2,2*%
%TO.N,/RX_LEFT*%
X135850000Y-91100000D03*
%TO.P,J2,3*%
%TO.N,GND*%
X135850000Y-89100000D03*
%TO.P,J2,4*%
%TO.N,unconnected-(J2-Pad4)*%
X135850000Y-87100000D03*
%TD*%
D14*
%TO.P,U9,1,VCC_1*%
%TO.N,3.3V*%
X118112500Y-100950000D03*
%TO.P,U9,2,VOUT_2*%
%TO.N,/ADC9*%
X118112500Y-99050000D03*
%TO.P,U9,3,GND_3*%
%TO.N,GND*%
X119987500Y-100000000D03*
D13*
X121350000Y-100000000D03*
%TD*%
D22*
%TO.P,C9,1*%
%TO.N,GND*%
X186120000Y-83300000D03*
%TO.P,C9,2*%
%TO.N,3.3V*%
X185480000Y-83300000D03*
%TD*%
%TO.P,C2,1*%
%TO.N,GND*%
X109975000Y-83250000D03*
%TO.P,C2,2*%
%TO.N,3.3V*%
X109335000Y-83250000D03*
%TD*%
D28*
%TO.P,U13,1,RO_1*%
%TO.N,/RX_RIGHT*%
X159075000Y-91455000D03*
%TO.P,U13,2,~{RE}_2*%
%TO.N,/GPIO*%
X159075000Y-90185000D03*
%TO.P,U13,3,DE_3*%
X159075000Y-88915000D03*
%TO.P,U13,4,DI_4*%
%TO.N,/TX_RIGHT*%
X159075000Y-87645000D03*
%TO.P,U13,5,GND_5*%
%TO.N,GND*%
X164025000Y-87645000D03*
%TO.P,U13,6,A_6*%
%TO.N,/A*%
X164025000Y-88915000D03*
%TO.P,U13,7,B_7*%
%TO.N,/B*%
X164025000Y-90185000D03*
%TO.P,U13,8,VCC_8*%
%TO.N,3.3V*%
X164025000Y-91455000D03*
%TD*%
D29*
%TO.P,JP1,1,A_1*%
%TO.N,Net-(JP1-A)*%
X167150000Y-88200000D03*
%TO.P,JP1,2,B_2*%
%TO.N,/A*%
X166337200Y-88200000D03*
%TD*%
D26*
%TO.P,J3,*%
%TO.N,*%
X175375000Y-94100000D03*
X175375000Y-83300000D03*
D27*
%TO.P,J3,1*%
%TO.N,/A*%
X173375000Y-85700000D03*
%TO.P,J3,2*%
%TO.N,/B*%
X173375000Y-87700000D03*
%TO.P,J3,3*%
%TO.N,GND*%
X173375000Y-89700000D03*
%TO.P,J3,4*%
%TO.N,unconnected-(J3-Pad4)*%
X173375000Y-91700000D03*
%TD*%
D14*
%TO.P,U10,1,VCC_1*%
%TO.N,3.3V*%
X99062500Y-100950000D03*
%TO.P,U10,2,VOUT_2*%
%TO.N,/ADC10*%
X99062500Y-99050000D03*
%TO.P,U10,3,GND_3*%
%TO.N,GND*%
X100937500Y-100000000D03*
D13*
X102300000Y-100000000D03*
%TD*%
D22*
%TO.P,C10,1*%
%TO.N,GND*%
X195575000Y-102300000D03*
%TO.P,C10,2*%
%TO.N,3.3V*%
X194935000Y-102300000D03*
%TD*%
%TO.P,C1,1*%
%TO.N,GND*%
X100365000Y-102300000D03*
%TO.P,C1,2*%
%TO.N,3.3V*%
X99725000Y-102300000D03*
%TD*%
%TO.P,C4,1*%
%TO.N,GND*%
X129000000Y-83300000D03*
%TO.P,C4,2*%
%TO.N,3.3V*%
X128360000Y-83300000D03*
%TD*%
D30*
%TO.P,R1,1*%
%TO.N,/B*%
X168800000Y-89820000D03*
%TO.P,R1,2*%
%TO.N,Net-(JP1-A)*%
X168800000Y-89180000D03*
%TD*%
D22*
%TO.P,C7,1*%
%TO.N,GND*%
X167020000Y-83300000D03*
%TO.P,C7,2*%
%TO.N,3.3V*%
X166380000Y-83300000D03*
%TD*%
%TO.P,C3,1*%
%TO.N,GND*%
X119320000Y-102300000D03*
%TO.P,C3,2*%
%TO.N,3.3V*%
X118680000Y-102300000D03*
%TD*%
%TO.P,C5,1*%
%TO.N,GND*%
X138520000Y-102300000D03*
%TO.P,C5,2*%
%TO.N,3.3V*%
X137880000Y-102300000D03*
%TD*%
%TO.P,C8,1*%
%TO.N,GND*%
X176575000Y-102300000D03*
%TO.P,C8,2*%
%TO.N,3.3V*%
X175935000Y-102300000D03*
%TD*%
D14*
%TO.P,U5,1,VCC_1*%
%TO.N,3.3V*%
X194312500Y-100950000D03*
%TO.P,U5,2,VOUT_2*%
%TO.N,/ADC5*%
X194312500Y-99050000D03*
%TO.P,U5,3,GND_3*%
%TO.N,GND*%
X196187500Y-100000000D03*
D13*
X197550000Y-100000000D03*
%TD*%
D22*
%TO.P,C12,1*%
%TO.N,GND*%
X214620000Y-102300000D03*
%TO.P,C12,2*%
%TO.N,3.3V*%
X213980000Y-102300000D03*
%TD*%
D14*
%TO.P,U8,1,VCC_1*%
%TO.N,3.3V*%
X137162500Y-100950000D03*
%TO.P,U8,2,VOUT_2*%
%TO.N,/ADC8*%
X137162500Y-99050000D03*
%TO.P,U8,3,GND_3*%
%TO.N,GND*%
X139037500Y-100000000D03*
D13*
X140400000Y-100000000D03*
%TD*%
D14*
%TO.P,U2,1,VCC_1*%
%TO.N,3.3V*%
X184787500Y-81900000D03*
%TO.P,U2,2,VOUT_2*%
%TO.N,/ADC2*%
X184787500Y-80000000D03*
%TO.P,U2,3,GND_3*%
%TO.N,GND*%
X186662500Y-80950000D03*
D13*
X188025000Y-80950000D03*
%TD*%
D31*
%TO.N,5V*%
X115600000Y-98850000D03*
%TO.N,3.3V*%
X184150000Y-85750000D03*
X203400000Y-85050000D03*
%TO.N,GND*%
X182925000Y-75300000D03*
%TO.N,3.3V*%
X148100000Y-87132261D03*
%TO.N,5V*%
X131575000Y-76750000D03*
X112225000Y-76800000D03*
%TO.N,3.3V*%
X168450000Y-96250000D03*
X163550000Y-85000000D03*
X154000000Y-75950000D03*
X123706200Y-87132261D03*
X203400000Y-97700000D03*
X193800000Y-102450000D03*
X174700000Y-102250000D03*
X155650000Y-102350000D03*
X165175000Y-93825000D03*
X136600000Y-102350000D03*
X117550000Y-102350000D03*
X99050000Y-102250000D03*
X110590000Y-86700000D03*
%TO.N,5V*%
X97275000Y-104150000D03*
X116375000Y-104150000D03*
X135425000Y-104200000D03*
X193100000Y-87090000D03*
X192425000Y-104250000D03*
X173525000Y-104200000D03*
X154375000Y-104100000D03*
%TO.N,GND*%
X106775000Y-75300000D03*
X112675000Y-79225000D03*
X94425000Y-104225000D03*
X113475000Y-104175000D03*
X132475000Y-104225000D03*
X151375000Y-104125000D03*
X170975000Y-104525000D03*
X189875000Y-104675000D03*
X209475000Y-95175000D03*
X216975000Y-95850000D03*
X197875000Y-105750000D03*
X178975000Y-105700000D03*
X159825000Y-105600000D03*
X140875000Y-105700000D03*
X121825000Y-105650000D03*
X102725000Y-105650000D03*
X121250000Y-77000000D03*
X134425000Y-76825000D03*
X126125000Y-75250000D03*
X163975000Y-75400000D03*
X171675000Y-76175000D03*
X188775000Y-79125000D03*
X209550000Y-77550000D03*
X201975000Y-75250000D03*
X197250000Y-77100000D03*
X157000000Y-81950000D03*
X135850000Y-89100000D03*
X164025000Y-87645000D03*
X154000000Y-90250000D03*
X173375000Y-89700000D03*
X151065000Y-79650000D03*
%TD*%
%TO.N,5V*%
D10*
X115600000Y-103420000D02*
X115600000Y-98850000D01*
X114870000Y-104150000D02*
X115600000Y-103420000D01*
%TO.N,3.3V*%
D32*
X184150000Y-85750000D02*
X184150000Y-83800000D01*
D33*
X203400000Y-85050000D02*
X203400000Y-83095000D01*
D32*
X184150000Y-88650000D02*
X184150000Y-85750000D01*
D10*
X150717739Y-89750000D02*
X152512500Y-89750000D01*
X148100000Y-87132261D02*
X150717739Y-89750000D01*
%TO.N,5V*%
X188060000Y-78400000D02*
X188060000Y-77525000D01*
X187760122Y-79905146D02*
X188050000Y-80195024D01*
X187760122Y-78699878D02*
X187760122Y-79905146D01*
D32*
X175170000Y-76920000D02*
X170950000Y-76920000D01*
X176200000Y-77950000D02*
X175170000Y-76920000D01*
X183250000Y-77950000D02*
X176200000Y-77950000D01*
X187760122Y-78699878D02*
X183999878Y-78699878D01*
X188060000Y-78400000D02*
X187760122Y-78699878D01*
X183999878Y-78699878D02*
X183250000Y-77950000D01*
%TO.N,Net-(D2-DOUT)*%
D10*
X198600000Y-80347944D02*
X198600000Y-80125000D01*
X198600000Y-80125000D02*
X201975000Y-76750000D01*
X198495000Y-80452944D02*
X198600000Y-80347944D01*
X198495000Y-81447056D02*
X198495000Y-80452944D01*
X198600000Y-82300000D02*
X198600000Y-81552056D01*
X197850000Y-83050000D02*
X198600000Y-82300000D01*
X194200000Y-83050000D02*
X197850000Y-83050000D01*
X192005000Y-80855000D02*
X194200000Y-83050000D01*
X192005000Y-80452944D02*
X192005000Y-80855000D01*
X191302056Y-79750000D02*
X192005000Y-80452944D01*
X190900000Y-79750000D02*
X191302056Y-79750000D01*
X190800000Y-79650000D02*
X190900000Y-79750000D01*
X189750000Y-79650000D02*
X190800000Y-79650000D01*
X189600000Y-79500000D02*
X189750000Y-79650000D01*
X189376471Y-78876471D02*
X189600000Y-79100000D01*
X189375000Y-78876471D02*
X189376471Y-78876471D01*
X189350000Y-78851471D02*
X189375000Y-78876471D01*
X189350000Y-76380142D02*
X189350000Y-78851471D01*
X189300000Y-76330142D02*
X189350000Y-76380142D01*
X189600000Y-79100000D02*
X189600000Y-79500000D01*
X188375000Y-75300000D02*
X189300000Y-76225000D01*
X198600000Y-81552056D02*
X198495000Y-81447056D01*
X189300000Y-76225000D02*
X189300000Y-76330142D01*
%TO.N,5V*%
D32*
X112225000Y-77075000D02*
X112225000Y-76800000D01*
X112016532Y-77283468D02*
X112225000Y-77075000D01*
X112019378Y-77476703D02*
X112016532Y-77283468D01*
X111930000Y-77633281D02*
X112019378Y-77476703D01*
X111930000Y-78450000D02*
X111930000Y-77633281D01*
%TO.N,3.3V*%
X163550000Y-85000000D02*
X165815000Y-82735000D01*
D33*
X203400000Y-97700000D02*
X203400000Y-85050000D01*
D32*
X165175000Y-93825000D02*
X167500000Y-96150000D01*
D34*
X110590000Y-86700000D02*
X110590000Y-85840000D01*
%TO.N,Net-(D10-DOUT)*%
D10*
X95450000Y-105650000D02*
X97275000Y-105650000D01*
X92200000Y-108900000D02*
X95450000Y-105650000D01*
X91600000Y-91350000D02*
X91600000Y-108300000D01*
X101250000Y-90048528D02*
X99948528Y-91350000D01*
X99948528Y-91350000D02*
X91600000Y-91350000D01*
X101250000Y-82325000D02*
X101250000Y-90048528D01*
X91600000Y-108300000D02*
X92200000Y-108900000D01*
X106775000Y-76800000D02*
X101250000Y-82325000D01*
%TO.N,Net-(D11-DOUT)*%
X117250000Y-73100000D02*
X113650000Y-73100000D01*
X118350000Y-80150000D02*
X118350000Y-74200000D01*
X118350000Y-74200000D02*
X117250000Y-73100000D01*
X125750000Y-76750000D02*
X122350000Y-80150000D01*
X126125000Y-76750000D02*
X125750000Y-76750000D01*
X122350000Y-80150000D02*
X118350000Y-80150000D01*
X113650000Y-73100000D02*
X112225000Y-74525000D01*
X112225000Y-74525000D02*
X112225000Y-75300000D01*
%TO.N,Net-(C13-Pad1)*%
X193250000Y-74050000D02*
X193250000Y-77100000D01*
X192400000Y-73200000D02*
X193250000Y-74050000D01*
X135300000Y-78750000D02*
X140850000Y-73200000D01*
X127500000Y-78750000D02*
X135300000Y-78750000D01*
X124200000Y-82050000D02*
X127500000Y-78750000D01*
X123992056Y-82150000D02*
X124092056Y-82050000D01*
X140850000Y-73200000D02*
X192400000Y-73200000D01*
X122997944Y-82150000D02*
X123992056Y-82150000D01*
X122897944Y-82050000D02*
X122997944Y-82150000D01*
X121015000Y-81285000D02*
X121780000Y-82050000D01*
X121780000Y-82050000D02*
X122897944Y-82050000D01*
X117350000Y-81285000D02*
X121015000Y-81285000D01*
X124092056Y-82050000D02*
X124200000Y-82050000D01*
%TO.N,5V*%
D32*
X131675000Y-76850000D02*
X131575000Y-76750000D01*
X133030000Y-76850000D02*
X131675000Y-76850000D01*
D35*
X193100000Y-86990000D02*
X193100000Y-87090000D01*
X188801093Y-80517207D02*
X188801093Y-84851093D01*
X188801093Y-84851093D02*
X190790000Y-86840000D01*
X188050000Y-80195024D02*
X188478910Y-80195024D01*
X188478910Y-80195024D02*
X188801093Y-80517207D01*
X190790000Y-86840000D02*
X192950000Y-86840000D01*
X192950000Y-86840000D02*
X193100000Y-86990000D01*
X203254920Y-78367262D02*
X206596016Y-78367262D01*
X201700000Y-79922182D02*
X203254920Y-78367262D01*
X201700000Y-80854188D02*
X201700000Y-79922182D01*
X193100000Y-87090000D02*
X195464188Y-87090000D01*
X195464188Y-87090000D02*
X201700000Y-80854188D01*
%TO.N,Net-(C15-Pad1)*%
D10*
X119250000Y-74750000D02*
X119250000Y-77000000D01*
X195150000Y-72050000D02*
X121950000Y-72050000D01*
X195150000Y-74050000D02*
X195150000Y-72050000D01*
X121950000Y-72050000D02*
X119250000Y-74750000D01*
X195250000Y-74150000D02*
X195150000Y-74050000D01*
X195250000Y-77100000D02*
X195250000Y-74150000D01*
%TO.N,3.3V*%
D34*
X110590000Y-85840000D02*
X108562500Y-83812500D01*
X110590000Y-86915000D02*
X110590000Y-86700000D01*
X119650000Y-86915000D02*
X110590000Y-86915000D01*
X124085000Y-86140000D02*
X127425000Y-82800000D01*
X119650000Y-86915000D02*
X123785000Y-86915000D01*
%TO.N,Net-(D3-DOUT)*%
D10*
X214053610Y-91053977D02*
X211055000Y-88055367D01*
X216975000Y-92975000D02*
X215053977Y-91053977D01*
X216975000Y-94350000D02*
X216975000Y-92975000D01*
X215053977Y-91053977D02*
X214053610Y-91053977D01*
X211055000Y-88055367D02*
X211055000Y-77607254D01*
X211055000Y-77607254D02*
X208697746Y-75250000D01*
X208697746Y-75250000D02*
X207425000Y-75250000D01*
%TO.N,Net-(D4-DOUT)*%
X218750000Y-97450000D02*
X211650000Y-97450000D01*
X220580000Y-99280000D02*
X218750000Y-97450000D01*
X211525000Y-97325000D02*
X211525000Y-95850000D01*
X220580000Y-100497056D02*
X220580000Y-99280000D01*
X216827056Y-104250000D02*
X220580000Y-100497056D01*
X211650000Y-97450000D02*
X211525000Y-97325000D01*
X197875000Y-104250000D02*
X216827056Y-104250000D01*
%TO.N,5V*%
D35*
X209625000Y-92450000D02*
X211525000Y-94350000D01*
X208500000Y-92450000D02*
X209625000Y-92450000D01*
X208500000Y-80271246D02*
X208500000Y-92450000D01*
X206596016Y-78367262D02*
X208500000Y-80271246D01*
%TO.N,3.3V*%
D32*
X184787500Y-83262500D02*
X184787500Y-81900000D01*
X184750000Y-83300000D02*
X184787500Y-83262500D01*
X184250000Y-83800000D02*
X184750000Y-83300000D01*
X184150000Y-83800000D02*
X184250000Y-83800000D01*
X178900000Y-96150000D02*
X184150000Y-90900000D01*
X184750000Y-83300000D02*
X185480000Y-83300000D01*
X184150000Y-90900000D02*
X184150000Y-88650000D01*
X167500000Y-96150000D02*
X178900000Y-96150000D01*
X162350000Y-91000000D02*
X165175000Y-93825000D01*
%TO.N,/ADC2*%
D10*
X161450000Y-91700000D02*
X159700000Y-93450000D01*
X161450000Y-82909448D02*
X161450000Y-91700000D01*
X164959448Y-79400000D02*
X161450000Y-82909448D01*
X184187500Y-79400000D02*
X164959448Y-79400000D01*
X159700000Y-93450000D02*
X155450000Y-93450000D01*
X155450000Y-93450000D02*
X154750000Y-92750000D01*
X184787500Y-80000000D02*
X184187500Y-79400000D01*
X154750000Y-92750000D02*
X152512500Y-92750000D01*
%TO.N,/ADC1*%
X151742590Y-92250000D02*
X152512500Y-92250000D01*
X151475000Y-92517590D02*
X151742590Y-92250000D01*
X151475000Y-93175000D02*
X151475000Y-92517590D01*
X152350000Y-94050000D02*
X151475000Y-93175000D01*
X160200000Y-94050000D02*
X152350000Y-94050000D01*
X161850000Y-92400000D02*
X160200000Y-94050000D01*
X161850000Y-83887500D02*
X161850000Y-92400000D01*
X165737500Y-80000000D02*
X161850000Y-83887500D01*
%TO.N,3.3V*%
D32*
X162350000Y-86200000D02*
X163550000Y-85000000D01*
X162350000Y-91000000D02*
X162350000Y-86200000D01*
X164025000Y-91455000D02*
X162805000Y-91455000D01*
X162805000Y-91455000D02*
X162350000Y-91000000D01*
X165815000Y-82735000D02*
X166380000Y-83300000D01*
X165737500Y-82657500D02*
X165815000Y-82735000D01*
X165737500Y-81900000D02*
X165737500Y-82657500D01*
%TO.N,Net-(D1-DOUT)*%
D10*
X176650000Y-76800000D02*
X182925000Y-76800000D01*
X175250000Y-75400000D02*
X176650000Y-76800000D01*
X169425000Y-75400000D02*
X175250000Y-75400000D01*
%TO.N,3.3V*%
D33*
X203400000Y-83095000D02*
X203837500Y-82657500D01*
X213300000Y-98000000D02*
X203700000Y-98000000D01*
X213550000Y-98250000D02*
X213300000Y-98000000D01*
X215550000Y-103450000D02*
X217650000Y-101350000D01*
X217400000Y-98250000D02*
X213550000Y-98250000D01*
X203700000Y-98000000D02*
X203400000Y-97700000D01*
X213500000Y-103450000D02*
X215550000Y-103450000D01*
X212950000Y-102900000D02*
X213500000Y-103450000D01*
X217650000Y-101350000D02*
X217650000Y-98500000D01*
X212950000Y-102095000D02*
X212950000Y-102900000D01*
X217650000Y-98500000D02*
X217400000Y-98250000D01*
X213362500Y-101682500D02*
X212950000Y-102095000D01*
D35*
X213362500Y-101682500D02*
X213980000Y-102300000D01*
X213362500Y-100950000D02*
X213362500Y-101682500D01*
X203837500Y-82657500D02*
X204480000Y-83300000D01*
X203837500Y-81900000D02*
X203837500Y-82657500D01*
%TO.N,5V*%
X207425000Y-77538278D02*
X207425000Y-76750000D01*
X206596016Y-78367262D02*
X207425000Y-77538278D01*
%TO.N,/ADC12*%
D10*
X146550000Y-97050000D02*
X146600000Y-97000000D01*
X132100000Y-97050000D02*
X146550000Y-97050000D01*
X131650000Y-96600000D02*
X132100000Y-97050000D01*
X131600000Y-96600000D02*
X131650000Y-96600000D01*
X146600000Y-97000000D02*
X146600000Y-94162500D01*
X131600000Y-80592056D02*
X131600000Y-96600000D01*
X127637500Y-80000000D02*
X131007944Y-80000000D01*
X131007944Y-80000000D02*
X131600000Y-80592056D01*
%TO.N,Net-(D5-DOUT)*%
X185300000Y-105750000D02*
X192425000Y-105750000D01*
X183750000Y-104200000D02*
X185300000Y-105750000D01*
X178975000Y-104200000D02*
X183750000Y-104200000D01*
%TO.N,Net-(D6-DOUT)*%
X167550000Y-105700000D02*
X173525000Y-105700000D01*
X165950000Y-104100000D02*
X167550000Y-105700000D01*
X159825000Y-104100000D02*
X165950000Y-104100000D01*
%TO.N,Net-(D7-DOUT)*%
X146900000Y-104200000D02*
X148300000Y-105600000D01*
X140875000Y-104200000D02*
X146900000Y-104200000D01*
X148300000Y-105600000D02*
X154375000Y-105600000D01*
%TO.N,Net-(D8-DOUT)*%
X126950000Y-104150000D02*
X128500000Y-105700000D01*
X128500000Y-105700000D02*
X135425000Y-105700000D01*
X121825000Y-104150000D02*
X126950000Y-104150000D01*
%TO.N,Net-(D10-DIN)*%
X108600000Y-104150000D02*
X110100000Y-105650000D01*
X110100000Y-105650000D02*
X116375000Y-105650000D01*
X102725000Y-104150000D02*
X108600000Y-104150000D01*
%TO.N,/LED*%
X159465000Y-78675000D02*
X161240000Y-76900000D01*
X157694328Y-78675000D02*
X159465000Y-78675000D01*
X150367590Y-84800000D02*
X151569328Y-84800000D01*
X150100000Y-85067590D02*
X150367590Y-84800000D01*
X151569328Y-84800000D02*
X157694328Y-78675000D01*
X150100000Y-85837500D02*
X150100000Y-85067590D01*
%TO.N,Net-(D1-DIN)*%
X163975000Y-76900000D02*
X162260000Y-76900000D01*
%TO.N,5V*%
X111930000Y-77095000D02*
X112225000Y-76800000D01*
X95870000Y-104150000D02*
X95820000Y-104200000D01*
D32*
X97275000Y-104150000D02*
X95870000Y-104150000D01*
D10*
X116375000Y-104150000D02*
X114870000Y-104150000D01*
X135425000Y-104200000D02*
X133870000Y-104200000D01*
X154375000Y-104100000D02*
X152820000Y-104100000D01*
X172070000Y-104200000D02*
X172020000Y-104150000D01*
X173525000Y-104200000D02*
X172070000Y-104200000D01*
X190920000Y-104250000D02*
X190870000Y-104300000D01*
X192425000Y-104250000D02*
X190920000Y-104250000D01*
%TO.N,GND*%
X217025000Y-95900000D02*
X216975000Y-95850000D01*
%TO.N,5V*%
D32*
X210220000Y-94400000D02*
X211625000Y-94400000D01*
D10*
X208880000Y-76800000D02*
X207475000Y-76800000D01*
X207475000Y-76800000D02*
X207425000Y-76750000D01*
X188375000Y-77210000D02*
X188060000Y-77525000D01*
X188375000Y-76800000D02*
X188375000Y-77210000D01*
X170930000Y-76900000D02*
X170950000Y-76920000D01*
X169425000Y-76900000D02*
X170930000Y-76900000D01*
%TO.N,Net-(D12-DOUT)*%
X131625000Y-75300000D02*
X131575000Y-75250000D01*
X133240000Y-75300000D02*
X131625000Y-75300000D01*
%TO.N,/SWDIO*%
X142250000Y-86682410D02*
X143317590Y-87750000D01*
X142250000Y-76704571D02*
X142250000Y-86682410D01*
X143104570Y-75850000D02*
X142250000Y-76704571D01*
X152319328Y-75850000D02*
X143104570Y-75850000D01*
X157000000Y-77950000D02*
X154419328Y-77950000D01*
X154419328Y-77950000D02*
X152319328Y-75850000D01*
X143317590Y-87750000D02*
X144187500Y-87750000D01*
%TO.N,/SWCLK*%
X142650000Y-85712500D02*
X144187500Y-87250000D01*
X142650000Y-76870256D02*
X142650000Y-85712500D01*
X143270256Y-76250000D02*
X142650000Y-76870256D01*
X145399744Y-76250000D02*
X143270256Y-76250000D01*
X146115000Y-76965256D02*
X145399744Y-76250000D01*
X146115000Y-79730685D02*
X146115000Y-76965256D01*
X149559315Y-83175000D02*
X146115000Y-79730685D01*
X152240685Y-83175000D02*
X149559315Y-83175000D01*
X154000000Y-81415685D02*
X152240685Y-83175000D01*
X154000000Y-79950000D02*
X154000000Y-81415685D01*
%TO.N,/SW3*%
X145679872Y-80229872D02*
X149100000Y-83650000D01*
X145715000Y-80194744D02*
X145679872Y-80229872D01*
X145715000Y-79105256D02*
X145715000Y-80194744D01*
X149100000Y-83650000D02*
X149100000Y-85837500D01*
X145399744Y-78790000D02*
X145715000Y-79105256D01*
X144335000Y-77110000D02*
X144335000Y-78790000D01*
X144335000Y-78790000D02*
X145399744Y-78790000D01*
%TO.N,/SW2*%
X148600000Y-83915000D02*
X144335000Y-79650000D01*
X148600000Y-85837500D02*
X148600000Y-83915000D01*
%TO.N,/SW1*%
X148100000Y-84875000D02*
X148100000Y-85837500D01*
X145415000Y-82190000D02*
X148100000Y-84875000D01*
X144335000Y-82190000D02*
X145415000Y-82190000D01*
%TO.N,/ADC3*%
X151200000Y-97150000D02*
X151100000Y-97050000D01*
X171681372Y-97150000D02*
X151200000Y-97150000D01*
X201650000Y-97450000D02*
X171981372Y-97450000D01*
X202250000Y-80150000D02*
X202250000Y-96850000D01*
X202400000Y-80000000D02*
X202250000Y-80150000D01*
X202250000Y-96850000D02*
X201650000Y-97450000D01*
X203837500Y-80000000D02*
X202400000Y-80000000D01*
X171981372Y-97450000D02*
X171681372Y-97150000D01*
X151100000Y-97050000D02*
X151100000Y-94162500D01*
%TO.N,/ADC11*%
X147100000Y-97450000D02*
X147100000Y-94162500D01*
X108587500Y-97387500D02*
X108650000Y-97450000D01*
X108587500Y-85878185D02*
X108587500Y-97387500D01*
X108650000Y-97450000D02*
X147100000Y-97450000D01*
X108009315Y-80000000D02*
X106800000Y-81209315D01*
X106800000Y-84090685D02*
X108587500Y-85878185D01*
X108587500Y-80000000D02*
X108009315Y-80000000D01*
X106800000Y-81209315D02*
X106800000Y-84090685D01*
%TO.N,3.3V*%
X127750000Y-83300000D02*
X128360000Y-83300000D01*
X127637500Y-81900000D02*
X127637500Y-83412500D01*
X127637500Y-83412500D02*
X127750000Y-83300000D01*
%TO.N,/ADC6*%
X149600000Y-94162500D02*
X149600000Y-98350000D01*
X149550000Y-98400000D02*
X171217056Y-98400000D01*
X171217056Y-98400000D02*
X171867056Y-99050000D01*
X171867056Y-99050000D02*
X175262500Y-99050000D01*
X149600000Y-98350000D02*
X149550000Y-98400000D01*
%TO.N,GND*%
D33*
X152512500Y-90250000D02*
X154000000Y-90250000D01*
%TO.N,/GPIO*%
D10*
X159075000Y-88915000D02*
X158410000Y-88250000D01*
X155550000Y-88250000D02*
X152512500Y-88250000D01*
X157485000Y-90185000D02*
X155550000Y-88250000D01*
X158410000Y-88250000D02*
X155550000Y-88250000D01*
X159075000Y-90185000D02*
X157485000Y-90185000D01*
%TO.N,/ADC4*%
X171515686Y-97550000D02*
X150650000Y-97550000D01*
X212762500Y-98450000D02*
X191400000Y-98450000D01*
X213362500Y-99050000D02*
X212762500Y-98450000D01*
X150650000Y-97550000D02*
X150600000Y-97500000D01*
X172015686Y-98050000D02*
X171515686Y-97550000D01*
X150600000Y-97500000D02*
X150600000Y-94162500D01*
X191000000Y-98050000D02*
X172015686Y-98050000D01*
X191400000Y-98450000D02*
X191000000Y-98050000D01*
%TO.N,/ADC5*%
X171350000Y-97950000D02*
X171900000Y-98500000D01*
X190317056Y-98450000D02*
X190917056Y-99050000D01*
X150100000Y-94162500D02*
X150100000Y-97950000D01*
X150100000Y-97950000D02*
X171350000Y-97950000D01*
X190917056Y-99050000D02*
X194312500Y-99050000D01*
X171950000Y-98450000D02*
X190317056Y-98450000D01*
X171900000Y-98500000D02*
X171950000Y-98450000D01*
%TO.N,/ADC7*%
X155962500Y-98800000D02*
X149100000Y-98800000D01*
X149100000Y-98800000D02*
X149100000Y-94162500D01*
X156212500Y-99050000D02*
X155962500Y-98800000D01*
%TO.N,/ADC8*%
X148600000Y-98600000D02*
X148600000Y-94162500D01*
X148500000Y-98700000D02*
X148600000Y-98600000D01*
X137162500Y-99050000D02*
X137512500Y-98700000D01*
X137512500Y-98700000D02*
X148500000Y-98700000D01*
%TO.N,/ADC9*%
X122650000Y-99050000D02*
X123400000Y-98300000D01*
X147950000Y-98300000D02*
X148100000Y-98150000D01*
X123400000Y-98300000D02*
X147950000Y-98300000D01*
X148100000Y-98150000D02*
X148100000Y-94162500D01*
X118112500Y-99050000D02*
X122650000Y-99050000D01*
%TO.N,/ADC10*%
X100212500Y-97900000D02*
X99062500Y-99050000D01*
X147600000Y-94162500D02*
X147600000Y-97850000D01*
X147550000Y-97900000D02*
X100212500Y-97900000D01*
X147600000Y-97850000D02*
X147550000Y-97900000D01*
%TO.N,/TX_LEFT*%
X140450000Y-90750000D02*
X144187500Y-90750000D01*
X138100000Y-93100000D02*
X140450000Y-90750000D01*
X135850000Y-93100000D02*
X138100000Y-93100000D01*
%TO.N,/RX_LEFT*%
X135850000Y-91100000D02*
X138100000Y-91100000D01*
X139950000Y-89250000D02*
X144187500Y-89250000D01*
X138100000Y-91100000D02*
X139950000Y-89250000D01*
%TO.N,/TX_RIGHT*%
X150867590Y-86875000D02*
X150600000Y-86607410D01*
X159075000Y-87645000D02*
X158230000Y-86800000D01*
X150600000Y-86607410D02*
X150600000Y-85837500D01*
X158230000Y-86800000D02*
X151407410Y-86800000D01*
X151332410Y-86875000D02*
X150867590Y-86875000D01*
X151407410Y-86800000D02*
X151332410Y-86875000D01*
%TO.N,/RX_RIGHT*%
X159075000Y-91455000D02*
X160049999Y-91455000D01*
X158883052Y-85837500D02*
X151100000Y-85837500D01*
X160350000Y-87304448D02*
X158883052Y-85837500D01*
X160350000Y-91154999D02*
X160350000Y-87304448D01*
X160049999Y-91455000D02*
X160350000Y-91154999D01*
%TO.N,/A*%
D35*
X164025000Y-88915000D02*
X165622200Y-88915000D01*
X165622200Y-88915000D02*
X166337200Y-88200000D01*
X168002200Y-85700000D02*
X173375000Y-85700000D01*
X166337200Y-88200000D02*
X166337200Y-87365000D01*
X166337200Y-87365000D02*
X168002200Y-85700000D01*
%TO.N,/B*%
D33*
X169750000Y-87900000D02*
X169950000Y-87700000D01*
X169950000Y-87700000D02*
X173375000Y-87700000D01*
D10*
X168780002Y-89820000D02*
X168800000Y-89820000D01*
X169680000Y-89820000D02*
X169750000Y-89750000D01*
D33*
X169750000Y-89750000D02*
X169750000Y-87900000D01*
X168415002Y-90185000D02*
X168780002Y-89820000D01*
X164025000Y-90185000D02*
X168415002Y-90185000D01*
X168800000Y-89820000D02*
X169680000Y-89820000D01*
%TO.N,Net-(JP1-A)*%
X167820000Y-88200000D02*
X168800000Y-89180000D01*
X167150000Y-88200000D02*
X167820000Y-88200000D01*
%TO.N,/NRST*%
D10*
X160750000Y-91395552D02*
X159445552Y-92700000D01*
X154000000Y-83950000D02*
X157561237Y-83950000D01*
X157561237Y-83950000D02*
X160750000Y-87138763D01*
X156215686Y-92700000D02*
X155265686Y-91750000D01*
X160750000Y-87138763D02*
X160750000Y-91395552D01*
X159445552Y-92700000D02*
X156215686Y-92700000D01*
X155265686Y-91750000D02*
X152512500Y-91750000D01*
%TD*%
M02*
